<mxfile host="Electron" agent="Mozilla/5.0 (Windows NT 10.0; Win64; x64) AppleWebKit/537.36 (KHTML, like Gecko) draw.io/24.7.5 Chrome/126.0.6478.183 Electron/31.3.0 Safari/537.36" version="24.7.5">
  <diagram name="Page-1" id="99kmjvC5C-cmliOz_KFj">
    <mxGraphModel dx="2100" dy="1468" grid="1" gridSize="10" guides="1" tooltips="1" connect="1" arrows="1" fold="1" page="1" pageScale="1" pageWidth="850" pageHeight="1100" math="0" shadow="0">
      <root>
        <mxCell id="0" />
        <mxCell id="1" parent="0" />
        <mxCell id="NA0LoAFdrYcwkmw4g3k5-2" value="" style="shape=image;verticalLabelPosition=bottom;labelBackgroundColor=default;verticalAlign=top;aspect=fixed;imageAspect=0;image=data:image/png,iVBORw0KGgoAAAANSUhEUgAABREAAAScCAYAAAAcW8itAAAAAXNSR0IArs4c6QAAAARnQU1BAACxjwv8YQUAAAAJcEhZcwAADsMAAA7DAcdvqGQAAP+lSURBVHhe7P0JnFTFob+N6y/3/973dxNv/lmuubkxMdEbc2OiXo07omiCG6IigogbARdA9n0bhkU2AcGNVUVBQXEBkaAEBBQJyOKuIG5xVzQucYsarfd8a7raM031bN2nu7rneT6fL3OqztKnz9SZ6XmoqrMLAAAAAAAAAAAAAAAAAABAPhmREQAAAAAAAAAAAIBqrI5iYmkWBQAAAAAAAAAAACANEhEgAf7/fW8whBCSr6R+tAAAAAAAABQNJCJAAuiP/rtf+IAQQnIOEhEAAAAAAEIAiQiQAE4iul5EhBDSkCARAQAAAAAgFJCIAAkQ/+Pf9SYihJD6BIkIAAAAAAAhgUQESAAkIiEk1yARAQAAAAAgJJCIAAmARCSE5BokIgAAAAAAhAQSESABkIiEkFyDRAQAAAAAgJBAIgIkABKREJJrkIgAAAAAABASSESABEAiEkJyDRIRAAAAAABCAokIkABIREJIrkEiAgAAAABASCARARIAiUgIyTVIRAAAAAAACAkkIkACIBEJIbkGiQgAAAAAACGBRARIACQiISTXIBEBAAAAACAkkIgACYBEJITkGiQiAAAAAACEBBIRIAGQiISQXINEBAAAAACAkEAiAiQAEpEQkmuQiAAAAAAAEBJIRIAEQCISQnINEhEAAAAAAEICiQiQAEhEQkiuQSICAAAAAEBIIBEBEgCJSAjJNUhEAAAAAAAICSQiQAIgEQkhuQaJCAAAAAAAIYFEBEgAJCIhJNcgEQEAAAAAICSQiAAJgEQkhOQaJCIUlFH3XDzymtXDb5p0X9/t0bIhRJm0vO/28cu6Pzr5z/1PTjUVCJBdd9115CGHHHLTnnvuuT0qxv+4I404ag8/+MEPHt1rr724fwPm3jNbjVzX49KbVnc8f/t9Z55uCFFWd7pg+8rz2j26plOH0O5fJCJAAuQqEc/pNdh07DvEHNLk6Pj9SRp5Do7aw0FHNjVj5i/1thtSXkEiQsG4dvWIWySM7njkerPmueXm6beeIsRG7UGZunLIjqtXVcxLNRkIiCOPPPKW6IsZMWKEWb16tQFwqD0o+++//45DDz2U+zdA1vXqdouE0bYrrzBvLbrT/OORzYTYqD0oa7tevGNdz64h3b9IRIAEyEUiduo7xN6PfBaETNxnwSObHmMu7DfE235I+QSJCAVh0vI+227dNP0dn0AiJJ5bN878YOJ9fZ9NNR0IgJ/+9Kfb+vfv/07qcwJAVgYNGvTBz372M+7fgFj9x/O3PTVx/Ds+gURIPE9PuvyD1R0vCOX+RSICJEBDJaJ6mg0dXpn6bQ+QnSEVlba9+NoRKY8gESFx1ANx4ZbZn/iEESG+SCTSIzEM1ANxyJAhn6Q+FwDUikQiPRLDQD0Qt14x8ROfMCLEF4nEdd2D6JGIRARIgIZIRPVARCBCfaiI2gs9Ess3SERIlDFLuxw7deXgt32iiJCaoqHv45Z1G5tqSlAE/vVf//XY/fbb7+3U5wGAOhM1H7Pbbrtx/xaRle3bHvtg14ve9okiQmqKhr6vPLtNse9fJCJAAtRXIo5f8CdzRNNjUr/dAepO1NzM2T0HedsVKe0gESFRxi3rvmXNc/d5JREhNeWOLdebK+8fOifVlKAIfO9739vCnDfQEDRf0oEHHsj9W0RWnNtuC/MfkoZEc2euvbRzse9fJCJAAtRXIh54RFPmP4QGoc+Cf+xDb8RyDBIREkVPYUYikoZE7UZPbU41JSgCeuouHxyhIajdpJ7iDUVCT2FGIpKG5K3Fd9qnNqeaUrFAIgIkQH0lop7CzGdBaAhqN8yNWJ5BIkKiaEiqTxARUpeo/aSaEhSH1McAgPqj9lPVjKAYaEiqTxARUpeo/aSaUrFAIgIkQH0lYrRL6rc6QP1R+/G1K1LaQSJCoiARSS5BIhad1EcAgPqj9lPVjKAYIBFJLkEiApQnSEQoJGo/vnZFSjtIREiUfEjEFZv/bBYsm2/WP/sX7/q65tFXHjFPvP6Ed1055JGXt5gn38jv+9P1euzVR73rChEkYtFJfQQAqD9qP1XNqHT4epddfhTlwCi7p6pKFiQiySVIRIDyBIkIhUTtx9euSGkHiQiJkotEHDhqoPn2d77tPjza7LHnHuaGO673bl9btH/F+ArvuobmsKMOq3Z+Lgf87gDTd3hf89SbT3r3y3dWP7bKvu6kmZO86xsavQd9D3zrlNvuu9UsXbfUuy4fQSIWndRHAID6o/ZT1YyKx9e77PLr6CR0MiZa/kWqWvVPqy5VtNtF2ei2TW3/UJRfpjYpOZCIJJcgEQHKEyQiFBK1H1+7IqUdJCIkSkMlYufel9gfOj/f++em8vLhZvats0yfYb3TUnHi9Mu9+9UU7ZeERNQ59RjUI51Ol3a0563X6ze8n3e/fKdYElHv84yzW3nX5SNIxKKT+ggA+eDLL780n3zyifnnP/+Zqilv1H6qmlHx+HqXXfaNTsJJwVtS1ap/VnVajv75t6j8QmqbZ6MMd+ujr5KN/6/dqcRAIpJcgkQEKE+QiFBI1H587YqUdpCIkCgNkYh3rLjd/sBRb74Nz66vtu7uBxZbqaVseWlztXW1RcdMQiJKpGXWb9i+wZ7j7w773U7rkggSERIi9REgv8yaNcu213333deKNfH222/bulatWtlyPtixY4c9Ztu2bVM1xeWyyy6z57Ns2bJUjZ+XXnrJTJkyxWzatClVU5rovUYpKl/HJKISlQ9L1aclYrR8UWrd/dHX/6O66Ou3ovL6VP25qis1ykUi/nqvvfR9Mu1bnOxdH1ou69Hdnu+y6dO860slSESA8gSJCIVE7cfXrkhpB4kIidIQiXjmuWfaHzgL/7zQu75PRR+7fuKMiWbj8w9bUTfluivMWRe0Nfvsu4/dZt3Wh+xxJLmOPOYI23NR+8QlomRls+Obme//8PvmwEMPNEPHDkkPP77lnpvtcTV0+pg/HG3O7tAuvV882SSionPR8GtXXvvUg6Z1+zNs3d777G06dOlgz9+t19yPqtO6H/34R+b0s07faej2FbMn2+PqvTQ9rqkZc+Vltt5JxJ6De5oWZ7Sw70nbjbt6XLX9JRn1vrRe72vm/BnV1uv47j3pep5/yflZJeIfTv69fU2tP6HlCbbuidceN72G9LT7a92+++1rpl43Zad96xokYtFJfQTILzNnzrTtQ5FQFG+99ZYtn3baabacD5yYbN26daqmuNx7772mV69e5qmnnkrV+Fm+fLk970mTJqVqSpPU97iofJ2SiNHXu6L8PcpDUXnX6GtcIl6R2qa33SlFVK5I1Y9NVZUU5SARN922QN+jdN77y0Pe7ULK6O7d7LkuvfYa7/pSCRIRoDxBIkIhUfvxtStS2kEiQqI0RCJKosXlW2Y0B190aHNpv67mL9vW2WVFMuvC7hdakaVjqE4iTjLMbeMk4u0rFtqythsyZrAdgqyypJnWXzv3mvQ+EmLZhk/7JKJE5PW3X2f3bXNeG1u36YWNVgzqHLtG5z1gRH+7LNGn89U2Em6Se72H9rJyUGUd46Fn1tr1EnwqS96NnjLaClCVr7zhyrREVFSvHoRO5N27fpndf9j4YbYs+Thy0oi0BLzy+qnVjq9r331At/Q1zCYRx18z3q777f/+Nn19zr/4PLuPvjc63omnnmDLWs7cvy5BIhad1EeA/BKXiLvttpv58MMPq0nEDz74wDRp0sQKN/HVV1/ZcqdOnWx5xowZplmzZmby5MnmkEMOMYcffrhZvXq16d27t9ljjz3sMdQL0UnE4447zpx33nl2XZs2bcybb75pj/PFF1+YkSNHmr322stG+3/++ed2yLFeb9iwYaZbt25esfnYY4+Z5s2b2/PXuaxdu9bWjx071panTZtmvv76a3Puuefa8pYtW8xNN91kj7t+/Xq77YIFC8wJJ5xgdt99d3t+Tz/9tO2FqPek895nn33sNp999pmZMGGC2X///W1d9+7dzUcffWSPkcl1111ne3hqfx1n1apVtv6RRx6x56HekHo/er8DBgww//jHP+z6JNA5RCkqX38jEWdGkd3Rcuso8eHM+oWgE/6D3SlFtM1pqfobU1UlRTlIxMEXdoou/y7ml3v+zH5dMPHy9LoPNvzFjOnZw+z3y1/a9V3bnWXefejBavsrUwcNMEf87wFWSKp8/aiRtvzgTXNsee64sab5EUeY//j+921vx0fvWFjrfp9t2WSmDBxgX/snP9rdtDvpRLNmzg12OyRi3kAiAiQAEhEKidqPr12R0g4SERKlIRIx2s2KLt86RUJO26inoZOIknF6+rLWOxk29qqx6X1GTh5p65xEbHJsEyvA4kOiO3b9o91GT4F2EvGcTufU+HAUSUT3+i46ruok4dwTpV3vSfVwdPtOm3etrdN8j4+/+phpfkpzM2P+9PT6q+Zcadfr4SUqS+7FpaP2kSjUOTqJqF6Ibv9Fq+6ydboeep86L71vt15Pcpao1LBxlXV8iU73BGutl9TMJhEVvb4bzrzq0apzOPfCc9Lr3Wtkita6BolYdFIfAfKLk4gdOnSwXysqKqpJxHfffdcuS/4JzSGo8kEHHWTLAwcOtGVFYtAtS+gpWpYgcxJRkahTtHzBBRfY44wbN86WJdQk6LTcuXNnK+jcforEX5z3338//ToSiW675557zkpAV77mmqqfIy1btrT7xYczP//883ZZAlRyVMsnnXSSefXVV+37VlnntGjRIjN37lxb1rDsFi1a2OWJEyfaY8a544477DpF5+yWt2/fbiWrK+v9uuWlS5em9s4/qdcoKl9Xl4j/GuWFVF5VfWqbCalthtidUkTlMaqPMiJVVVKUukT8dPNGK+iit2LunTHNfm3d/A/p9TeMHmXrzozuwZOaHmWXx/XqWe0YSs9zz7HrVt1wnS2PvLSrLd999VXmmSWL7fKh++1nOpwuZ7yLOaHJkbXut3buTXZZ56fX17IkpLZDIuYNJCJAAiARoZCo/fjaFSntIBEhURoiEd3wYt86ZfnGqqF+3fpfmpaIA0cOSK93MnDN46vTdRoqrDpJRElBLUuYqeehiwSb6jXM2UnEhctvSx/DF0lESTYNI3a5oPMFVshp/6tvvMpu53r9xV/PDdvWMGptIymo7bXuuBOPS8vIW+9dYDa/uCm9f/z1XZxEVA9DV+eujd7zXfffaZd1XePn4HobSnbqq4Rk/Lg6x7pKRMlQHUPXLr6NrofqH3v10Wr1dQkSseikPgLkFycR58+fb+dA1PLDDz9sv9ZHIqqXnnoTOjkogff444+nj+Mkotard+HHH39slyUANRejE5Bbt241L7/8cloMurkUFb2Gm7fRcfPNN9t16hH4+uuvm9GjR9uypKSYOnVqen9FYlDEJeKcOXPssiSkRN7ChQvNvHnz7GtlDmeW9FRZvSLXrFlj9/XNq+jko7YREo0qDxo0KC0R9Xrqfaj93TGTQsePUlS+jknEVLm1yi6punNT2+h/qL6luujrv0Rl+wTn6OuZqis1Sl0iqsdf9DasOPxk80az27f/zZbffnCNXX9uy1NsuctZbc2K2bPM7BGVVvBlHqcmGah9tPz7ww8zi66cam6ZMN7MuWyU+XjTwzXup3Or7NrFPDRvrl125/b++nVIxPyBRARIACQiFBK1H1+7IqUdJCIkSkMkouslqB6HvvUa6hsd2s7v50SZmxtQ0byDqotLKyfJJNRUr2UJsLhQc1n+8H1pieiGAmdLtjkRJR+1/2ltT7PlQ46sGp7oe73rFs62AlHiUe9bvQk1pFlzC2ofSUTXy09Pf858LcVJxPiDVeLv+abFN9plnW/m60vyOTErCRo/roZ511Ui6rV1DNdz0qV9x/a2Xu8xXl+XIBGLTuojQH6JS8Rt27bZZSfAfBJRYk3lTInohhC7XoRCwk7L6rHnJGL8YS3qFai6J5+s+s8EX5555hn71b1eJmPGqIPazvupF6PQ+TohqXN1xCWizk1Dk92+2v7yyy+322VKRElBdzxFPQl9EtHJVDdEWcOmVdackE4iVlZW2nUa3qzyRRddZMtJoONHKSpfZ0jEaFnzIdoHpiipuv8nJgxXR6mIorkTVd4Sff0XbVdqlLpE7HFO1e8ODTWWsPvFT35iy5J8Wi9x6OSdovV1kYgjYjLw1ZV/Tg+VVnS8sT171LrfyyuW2/Ny+7kgEfMKEhEgAZCIUEjUfnztipR2kIiQKA2RiBOuHW9/4HTu03mndRJjElfqrbjlr1u8ErHPsN62Lj50WD38VOeGM0vYZcq/eXfPNZ26dbIPO8lVIip6DTd82M3LGO8dKTGo19OwY81rqPUawuzW66EoqpNE1BBjLceHI0vKaSiy5oGsTSLe/8hKu5zZ01DXrX9lPztEWuv1EJr4evVUrKtElDzUMfoN71dtGw3BznaNagsSseikPgLkl7hEFOrRp7IiieiGE2tOP/HKK6/Ycn0komShk4iSbg43lPfzzz9Pi7nNmzdbcajekOvWrTN/+9vfbL2TmJm481cvPu2n3o/a78UXX7Tr1XtR6xW9hqSoiEtEDX3WPhqCrPfvzkW9KTMlooSfJKB6KrZr186u0/vQnItx3FyK6lkptL3KOk8nEUeNGmXXNSKJ+OvoJNISUUTLR6pOSVWp7ldR0nJRicoPRtk7tUnJUcoSUT0B44IwHg1d1jYb5t9i/jxrppWKbU843q6TSNR8hfFjDexUNeexk3oXnanOqFUy8Om7F9m5DDXXouZUdK/57NIlNe7nBOewSy6uJiKRiHkFiQiQAEjEZHnvvffsf1RrBAwgEcs1SERIlIZIRAkzDbuNdrc9+abdPM0+CEVPY3bDb6+56Wq7rU8iuqHLEnx6CIuG2br9nETUg01UloC7Z+0Su398GHU+JKLmAlS0LBGo42mY8oJl8+056bUk6NY+vdbMvbtqfiX1PpQQ1PvT+ahO56Ih2G6Y9sU9L7LDk91DTCRIa5OIKutpzHq94ROG2+viejrqQS9a73oM6oEp6o15UY+LbLkmiaiHqig6nkSkhKGGies96n1pqLaOUXn5cO/+tQWJWHRSHwHyS6ZEjM9dKIkoXK86CTAn/hoqERXNJ+jmYHSv4YRcly5d0kOQ9VASPehFy9kkouvFqHPU0GI3L+Kdd95pX9MJQTfXoZuDMS4RZ8+ebZc7duxon9qsuRFV1lDqFStW2GW9BwnB9u2r7k1JRe2rZV8vSTfHo2Ti+PHj08O1JSUbq0SsL1/vssvuUQ6I8h+pqpKllCWimwPx6IN/Zx6783abzQur/qNKee3+FfZhJloe37uXFXtaPvB//menY7khy3oIipv3UNE+0yuqHjh2wWmnmiXXXGXnRlRZx69pPw2h1vLVQwabif2q5jxW9PRoJGLeQCICJEApSMQ33ngjfe/fcMMNqdoq9LlJ9e7BcXFmzaqaWknRQ/gc8XmiNbXN7bffni676DOhPi9lUtdjanod9znTRSNh3H/sZuI+5+rheeWM3qOvXZHSDhIREqUhElHRQ1KcNItHwi4+XNaJsvhDVBTX89BFPQGdQNN69eLTUN74NurVpx57Wu8eenLfhnurHTczNUlESTsdQ3MsqqxzjL+exObNS+altz+1TdUwS0Xnqp6IEnIqP/DEGjsvooY6u23U01G9CLWvk4jxpyC7a+Pes46h83X7K5K0btj3hu0b0ues6BzcdXPHzMywcUPtthKeKksmOmHrot6W7mEw9Q0SMVH0sIjaHhiR+giQX9wHMicRhaSX6pzgmz59eroN6QnG+up6JjqJ+NBDD9lyNono5jbUsGH3YU1fN23aZLfVh1T3YVSRdNu4cWO6J6TkYDY0L6J7XUWyU3M36inLKuupz24ORpUlBt0waIlArXPzQSrazvU8VM9Fd2zNt6iejvEPqxKdvg+6+l9vJxxddB5CQ6JV1vGEni6t8sUXX2zLSZA6B0iGWu/fUpaIrtffjOEV1eo1P6LqZ1YOt09N1tOSVVZ+vddeXnH3+qqVVgS67SQm9VUy8G/r1prTjj02vU4PR5GUrG0/9YLUtiqr9+PBv6l6IrrmR7ysR1XPaiRiziARARKgFCSiezCdkvkfuk7U3X///amab3D/Sa3o85iQpHN1ij5/aR5qLeuzlj6/6bOnW68RIXHqesyrr77aLjdr1sxMmzbNnHuupluu+szmA4lYlbN7DjJj5i/1riPhBokIidJQiegi2bd4zSI7p9+6rQ95t8kWSTf1AJQ8861XHnpmrR32vOwvf/Kuz3d0TpovUT0JfWJNvffUM1JPNVZZ7189K+NPiFbvy9p6SGaLjvPnTcvte44PrY6vlziV+KzrHIZ6TxKQrqyepJKJ6o0Yr29IkIiJY3+5R8kmI1IfAYqD5vaTCMwHX331lXnttdes6MtEH/5eeOEF77ra0H4ffPBBqlR/9OFRQ5szhyYLHTf+4VJDZPQgl9rQdk899VTRh9Ko/VQ1I0iIGu/fUpaI9cmba1aZl5bf610Xj3oXfrjhL951H0T1GtqcORRaybafhlxr2LNvn3IIEhGgPCkFiehGZ7iRKPHPPnWRiBoRov8YFhs2bEjX6WtcIsbnrdaIFdUtXrw4VVNFXY/pRp/oYXlCPRNVp+P6Po/VJBH12VJiU9voWowYMcIeb8qUKfY/ld1raEodlSsqKmxZ70sjVbSf5sN2103/Yaz/XJfc1DUtpLjUe/S1K8lDrfvFvvt515Owg0SERMlVIpLGHSRi4kg+2F/iqWTKiNRHAID6o/ZT1YwgIWq8fxuLRCTJBIkIUJ6ELhEl0PSaGg0yYcIEu3zttdem1tZNIrqehZJo6iEo2acegqrzSURNYyP5pjqNHIlT12NeccUVdlnRqBANw9aIl2zUJBH1cECt01f3ED5Nn6Ppb7TsekS6qXhuuukmO8+2lnVe7mGF2lf/Qe7mzHYppkR08lD59r9/l16IJRokIiQKEpHkEiRiQUj/Mo/FyYjURwCA+qP2U9WMIEHi962LvX+RiCSXIBEBypPQJaITh+o15+agVm88R10kopsiZ9GiRbYnoGScE2txiag4madIwGk0R5y6HlOjZzLnRFTUi9BHTRJRr6X3rwf29erVy25XWVmZfiigIjl40kkn2XV6IKDmuNayptuR6HTrNPWPk4hDhgyxwrSQ6HXVjuLy0IVeiKUbJCIkChKR5JJj21fNQUWKF4CG4mtPpHC5/JiqpxgT0pAgEQHKk9AlouYQ1GtqCK4eBqdlxc1VWBeJqDm3JenU01BfNSe1TyJqnYYDSwhqHsa//vWvqSN9Q12P6ZCkU49BzbWodcpbb72VWvsNOobW+STiddddZ0Wh21+RRBS6Lio/+OCD9qvOXbhzyYzO20nE999/325bSDLPhxQ+vvs61yARIVGQiCSX0BOxIDwapdovmyj0RIScUfupakaQIFnvX3oiklyCRAQoT0KWiK7noS/u4XN1lYgaUuxEnIYo+yRifE7EbNT1mFqnORPjT2N28yzeeeedqZpvyCYR3ZOpdSw9CFA9C1V2ElGvq7J74N7cuXNtvZ4urbKGNmuuxC1bttghzu+8805aIjZk7u9c0euqHfl6Irp1JLkkdY2RiJAoSESSS5CIiaM/yt6P4n6ZV5tTLSL1EQCg/qj9VDUjSIga79+GSsT3/vKQefyuO+zTiX3r65p8Hae2vL9+XdYHppRDPt280V5LPcjFtz6pIBEBypOQJaJEmV5Pck8iTHHCT09SFk4iSoypF56L5gyMC7+rrrrKLisaopwPiVjTMceOHWuXJQcHDRpkhw67bTOf+CycRNSw4/j7WLZsma3XHI0SpU4ADh8+3O6nB6zEeym64dfuPDVP4/XXX59+KI0eKhiCRHTJlIkqx9eT/Cbz+ucrSERIFCQiySVIxMRxvZgy5aEj9REgbEaOHGl/SY4ePdqWH3vsMVtWPv30U1vnhpXcfvvt6Q96a9eutevqij4E6sl4+p/hutKjRw/7WvqwqCdENyZS3wNIjhrv34ZIxCsG9HffN5sj/vcAs+jKqXbdY3fenq4/s3nz9D7DLqkaWqUsmz6t1uPUJ/Mvr5obK57/+P73zbktTzFvPbDaijXVHfybfb37zx5R9Qfp9aNGetfXJS/eV/UHXbZI8vn2q0/+tm6tPVbr5n/Yad3918+26/r/scNO65IMEhGgPAlZIjrxtW3btlSNMV9++WVamqneN++gInE3a9Ysuyzh5x40ooeLiLjw02dBt09t1PWYknsSfW44tiJBeM8999htM3ESMTOSiG7IsqKnLOvrCSeckNrTmK5du9o6PXHZIUGopzTHjyuxKkKSiC5xmehbT/KTpK4vEhESpZwlYu+hVRPdnnz6STutq7x8uF13z9olO61z0XqlYnzFTuueevNJ86Mf/8iu7zOst62bfWvVL7HM7LHnHnabJ157fKfjlHqQiImiP8iyyUNH6iNA2Lh5YdwHLA3lUFnZuHGjrXMf6t5+++20dFyzZo1dV1eWL19u93NDamoj83+L6ystS53U+4ZkqPX+ra9E3DD/Fvs9+8mPdjcT+/WpJgdfWn6vefSObyail8hz+zVL/XGiLL32mlqPE3/N2nLLhKqJ7A/8n/8xXc5qazqdcYY9rupUlsDr3r69Gd+7l3f/mZVVv4slE33r65I316wyHU4/zWa/X/7SHk9SVOWOZ7Qyn23Z5N2vPnn3oaqfYS2bHbPTuqfvXmTf4x1TrthpXZJBIgKUJyFLxHLhlVdeMR988EGq1DA0j+Lf//73VKk67j/D1aMyE4nC7du32we9hIDO09euXCQT6Y2YXGq7/g0NEhESpVwloiSf5F30Fm02PLu+2vrhE6r+cFny4N3V6uNx+/7usN/ttO62+25Nr5esVJ2TiC3OaGF6DOphc06nc9LnMXLSiJ2OU+pBIhad1EeAsNHT6nSuiv7Hunfv3unyjBkz7FAPLWtoiHASUcNYJBf1P9+TJ0+2677++mtz9dVX22Ezmo9Gc9zof57VC9H9T67+B3rBggV2Hhs9RVDbqq579+7mo48+sscRTjpqnb5qvUNCUfPZaP9WrVrZc9D/iOu96IOn1un8unTpYs9D8+ponpxSQu85ChSJ+krEOZdVTWDfr8MF6boxPXvYXocSg04i7vbtf7Nfn126xHy0cUO1OknE2o7j6uoSJxElIl2dejuqTr0PP9m8MS30tE5SccSlXc0vfvITu1712tZJRB1PQlIStNXvj0tLzWuGDrHH0XaH7refWTF7Vvr14qnofIk93ozhFbasYcbab/CFnazUlASUVJwycIAVjhKe7U460ayZc0P6GNcOG2LX/XLPn5ke57Q3W++5eyeJODa6Xr8//DAzrldPs/HW+fY1rh4y2Pa8PPrg31mpeHGbM+3xzzu1pdl2zxK7n96/zlHvX+9TPUK1770zqnqI1idIRIDyBIlY2ugzo74n6nHoeyhLaOhcfe2KFCZJXX8kIiRKuUrEW+6pmuT2sKMOs1/HXHlZtfX1kYjKqkdXVVvXqVun9LpMiTjt5mnVtn3ombXm29/5tjnkyEOq1ZdDkIhFJ/URIHxOO61KFjz++ONWwOlDlj5gderUKT0JtYZ5CCcRlcMPPzy9/Mgjj5iHH64aHunEnZZ1nFdffTU9bEXScNGiRXYya5W1neax0fLEiRPta4iOHTvaOvf66pUoySnuvvtuW6c4yajof5fffffddDk+LKV58+Z231Ihdd5QJOorEdfdXNWeFfUuvLxvH7Nl4W3p9U4iSnTpq4Sc63Xo6iQRaztOfeIkYtd2Z1lR9sRdd5pLz66aPF7SLnM4811XTkm/tkSaW5YclMjTsoSn6z0pkScRObBT1b3qsnzmjJ3ORcmUiE7+uUjYrZ1b1RNagk/iVMuu56Ybnq1z+HVq2J7OPS4R546r6mEi0bhj7QPVhjP//eH1dlnRMXRcLfe94Hx7/IWTJ6XXuR6biq6jew91DRIRoDxBIpY21157rZk6dap58cUXUzVho/bja1ekMEnq+iMRIVHKVSKedUGVXJD801fJxPj6ukrEE089wX4dNm5out4NZVaPQ62rTSIqP9/75zaZ9aUeJGLRSX0ECB/1ONT5TptW1UtpzJgxViyqp+GoUVU9ox544AG7rZOIqhf9+1fN33bXXXeZ9evX27kVNQxay244suZWzBzOfMEFF9iy5lvU0GjNPaO5bIS21zonDp2QlFAUTiJqrhuhc1NZ5+skogSi5tnRk/XceezYscNuXwrofKNAkaivRFQ0/Nj1KnRpfsQRVtY5iaghxa4XnXrwqc4NWZZErO048deTcFPPPGXWiOHV1ilOImZGglDzCGZKRMlGlZ0EVL3KkogaeqzlOZeNtj0QT2hypC2vvuH6tERscfTRtodl/BziqUkiSv7pfB68aY6p7NrFPDRvrl1210EPgHGvqfetHosXnHaqvS6vrVpp650U1FfNxajX8ElEHfOVFX82bz+4xpb1/dC2F51ZNXfWX26ZZ+Woez0kIgA4kIhQSNR+fO2KFCZJXX8kIiRKOUrELS9ttjekmwvRyb77H1mZ3qauErFj1z/aHoQHHnpguv7WexfYdVdeP9V+rU0i3rjoRlvfufcl1erLIUjEopP6CBA+zz33nL0PXM9CyTzJQC03bdrUfnXzwziJ6ISeHpaisuaWefPNN+3ciirH45OIEofxOQ81JNlJRPVUdHU6D/UiVFk9I4WTiBo6LTSMWmUdz0lE9aZ0aPJs1T3xxBOpmvDR+UaBItEQiahoiLLk1/AundNSS/PxxSWi5JeGy+oBJ+rVpyHEWuckYk3Hib/W0IsvsvUu8XWKk4h6DQ3x1RBpd6xbJ12+k0R0vQ+drNQwapUlEV3vw8zcNHZMWiLW9vCXbBJR18Jt8/KK5VYMuuO7SCK688t8mnRmj0ZJQvdUa59EVI9Ht6/K6nWoZXd8N0+jrpnKSEQAcCARoZCo/fjaFSlMkrr+SERIlHKUiJNmVg0XcjLv2rnX2HL/yn7pbeoqETt06WBGTq4SGk5Caiizhievf/Yvtj5TIqrHoeZRVNzDV5Sl65ZWO345BIlYdFIfAUoDDUHWOSuvv/66Wbp0abocf4Jd5oNV4hLRzadYWVlpH8Lihhr7JKKGP69evdrMmzfPtGtXNcRS0lBC0PU8zIwkoeawcRJRcy6K1157zZb1evGeiG74s46rOr2vUkHnGwWKRH0l4tRBA6yMumH0qHSd62moIcRxiTht2FC7LNklERiXiLUdx9UpmxfeagWXctvkidXWKU4ixudE1HyDqpNUy5SITt69cG9VLz71llRZErHtCcfbZT2pWU+aXj//ZjvEWbLOScRVN1yXfh1fsklECUq3jXtNnfOrK/9sewmqLIl42rHH2mWJRm2r66JjvrVmta3X9XTnqeHa2sYnETUvons9lZ1E1NOdVXZzJJ598sm2jEQEAAcSEQqJ2o+vXZHCJKnrj0SERClHidjk2Cb2hhwwor8dhtx3eF9b3nufvdPb1Ecirn16rV0eOnZIeijz2R3amc0vbrL1mRLxuBOPM50u7ViVbp3MsPHDzIrNf97p+OUQJGLRSX0EKA00rFjnLPkmnJhTNIeMoyaJ6I4xffr0dL3yySefpOc2lJDcunWrFYAqSyqqB6KW9fAWPRjF7aeeg88884xNs2bNbN2SJUuqzYmonoruoS16+Ep8TkQ9WMUJSg11/uqrr+w5lwKp9wBFor4SUQIt2s1GDyRRLzY3FFcSKi4R3VyIinrvxSVibcfxvXa2+CSiejOq7pK2bXaSiBoWrbIejqJei1pWJBHdOgk4PbXZ9drTsOF8SkTJP9XpQSga1q1lRQ9h0ZBtLUsmXtaju11ucuCB6eNoTsS3Hlidvl6P3L6wXhLRPdRG4tIJSwWJCAAOJCIUErUfX7sihUlS1x+JCIlSbhJRvQWjt2W+/8Pvp+chVFRW/V3332m3q49E1HLT45qaA353QHoo8413zckqEX1zIpZrkIhFJ/URoDSQnNM5ay5EhxtuvG3btlSN2WmORE1QrbIkonoXuoeZqPefk3uaH1FyTw9VUVnizz3ERWVFkk+9FfXkZpXPPfdce3yHm6/xvPPOS0tESUe3v17rrbfeSktEvb47F33dsGFD6kilQep9QZGor0RU1EtPgira3UbDdCf06W3Xqfee6iQR4w/4UK+6kRnDmWs6Tn3iHkQSl4gaIq06PZgkUyK+sXqVFYjudd2cgJKImiNwyEUXpodDu3rt5ySi5kd0r+NLNomoJym7bSRY3WtIVLp5GXXeb65ZZYciq6xI/m26bUE1iahj6KnKKuv8nZSVRHRPw84mETVPpJ7WrDqJRDeEe8HEy9Pb1zVIRIDyBIkIhUTtx9euSGGS1PVHIkKilJtE7FNR1atg4fLbqtXfdt+ttl49A1Wur0Qcf01Vb4vmpzS3QvKJ1x5HIkZBIhad1EeAxoWGEL/00kt2WLIP9TTUkGTHe++9V+9hxk4iXnPNNfZY6jXpcBJRD11Rz8OXX345Pay5lNB7UCOC4tAQiegi2eUe7JFL8nWc+kTzAerhKBJzvvWSiU8tvmuneQnzGclNnYObmzAe1emaPH33IvNpdC6Z63PJ3VdfZXtAbv/TPXb4dKvfVz1RXr1IfdvXFCQiQHmCRIRCovbja1ekMEnq+iMRIVHKSSJqqLHreehbt8eee6QFoJOIXft1NSMnjaiWmxbfaPfReicRNzz7Ta+O8y8539YhEZGIAZD6CAD5Ji4RM4lLxFJG70GNCIpDLhKRlGbUEzT61tu4IdH7/fKXVpz6tq8pSESA8gSJCIVE7cfXrkhhktT1RyJCopSTRHS9DeMPUInn0n5Vw7k0FLny8iqJ6MtZF7S122tZT2d2+//h5N/bulvuudmW3VOg+wzrbctIRCgCqY8AkG80vHrMmDFm48aNqZpv0ENctO6OO+5I1ZQmaj9VzQiKARKxceaheXPtXIwa/qzh2pqL0bddbUEiApQnSEQoJGo/vnZFCpOkrj8SERKlnCQiKXyQiEUn9REAoP6o/VQ1IygGSESSS5CIAOUJEhEKidqPr12RwiSp649EhERBIpJcgkQsOqmPAAD1R+2nqhlBMUAiklyCRAQoT5CIUEjUfnztihQmSV1/JCIkChKR5BIkYtFJfQQAqD9qP1XNCIoBEpHkEiQiQHmCRIRCovbja1ekMEnq+iMRIVEm3tf32TXP3ecVRITUFLWbSff13Z5qSlAEfvaznz27evXq1McAgLqjdrPnnnty/xaR1R0vePatRXd6BREhNeWtxXea1R3PL/b9i0QESID6SsSDmxxtf6cD1Be1G7UfX7sihUl0y3vrcw0SERLlqlXDbrh9y+zPfZKIkJoiiTjh3p6PpZoSFIGDDjrohmHDhn2e+iwAUGf0wfGHP/wh928Reahb5xu2TZn0uU8SEVJTJBFXnt++2PcvEhEgAeorETv1HWJGjBiR+u0OUHfuX7XKHHhEU2+7IoVJdMt763MNEhESZeQ9F41gSDNpSK5cOeSdMUu7HJtqSlAcRkRJfRQAqDsHHHDAO//6r//K/VtE7m192giGNJOG5KFLL3lnZfu2xb5/kYgACVBfiXh2z0H2HgSoL0c0PcaMmb/U265IYaJ711efa5CIkDjT14xccOvGmR/4RBEhvty6cfo7164ecUuqCUERadq06YJBgwZ9kPo8AFAr/fv3f+fII4/k/g2ADX26L3h60uUf+EQRIb48PXH8O+t6dQvh/kUiAiRAfSWicmG/IWZIRWXqtzxA7QwdXmku6jfU255I4RLd8t76XINEhIIwcXnfrYhEUpfctmX2J5OW99mWajoQAHvsscdWRCLUhSFDhnzy05/+lPs3IFZ1PH8rIpHUJVuvmPTJ6j+eH8r9i0QESICGSERFc9tVDEckQu1IIDIXYhiJbnlvfa5BIkLBUI/EqSuH7Fj17L2f8bAVEo/aw+1brrdPY6YHYpioR+L++++/Y+XKlZ8xwTbEUXvQfElRMzH0QAwT9Uh8qOvFO9686/bPNN+dTyCRxhm1h21XXmGfxhxID0QHEhEgARoqERX1SNQQVf3e57MgxFF7GF5ZaX9e0wMxnOj74avPNUhEKCij77mk2fhl3R/VU5sljAhR9BTmK1cOmTX6T5doDj4Il2Y/+MEPHtVTm6Nl94cdaeTRU5h/+9vfztp11125fwPm3tanNVt5XrtH9dRmCSNCFD2FeV2Xi2ctb9MqtPsXiQiQALlIREVz3OlhGeppFh2OEBu1h459h9g5NH3thhQn+t746nMNEhEAAKBh8IsTACAZkIgACZCrRCTVE11Sbz0hISSp9olEBAAAaBj84gQASAYkIkACIBHzF/fkanrfkVCj9umrzzVIRAAAgIbBL04AgGRAIgIkABIxf4kuZzq+9YQUO0m1TSQiAABAw+AXJwBAMiARARIAiZifuF6ILvRGJCFGbdNXn2uQiAAAAA2DX5wAAMmARARIACRifhJdyp3i246QYiapdolEBAAAaBj84gQASAYkIkACIBFzT2YvRBd6I5LQonbpq881SEQAAICGwS9OAIBkQCICJAASMfdEl9F8+9+/m/75tPseP0sv+7YnpFhJqk0iEQEAABoGvzgBAJIBiQiQAEjE3OJ6Ibpeh1rW1zHzl1qZSG9EElJc+8x3kIgAAAANg1+cAADJgEQESAAkYm7JlITRJa1WlkyMlwkpZjLbZ76CRAQAAGgY/OIEAEgGJCJAAiAR85voknrrCQkhSbVPJCIAAEDD4BcnAEAyIBEBEgCJmN9El9RbT0gISap9IhEBAAAaBr84AQCSAYkIkABIxPwmuqTeekJCSFLtE4kIAADQMPjFCQCQDEhEgARAIuY30SX11hMSQpJqn0hEAACAhsEvTgCAZEAiAiQAEjG/iS6pt56QEJJU+0QiAgAANAx+cQIAJAMSESABkIj5TXRJvfWEhJCk2icSEQAAoGHwixMAIBmQiAAJgETMb6JL6q0nJIQk1T6RiAAAAA2DX5wAAMmARARIACRifhNdUm89ISEkqfaJRAQAAGgY/OIEAEgGJCJAAiAR85voknrrCQkhSbVPJCIAAEDD4BcnAEAyIBEBEgCJmN9El9RbT0gISap9IhEBAAAaBr84AQCSAYkIkABIxPwmuqTeekJCSFLtE4kIAAAgrmnznV2mtzhgl2tO/s9UTW3wixMAIBmQiAAJgETMb6JL6q0nJIQk1T6RiAAAUNrMaLlsl5ktTfR1Uapml11mnjLU1s1s+dgu1536X6nlnTO9ZSe7/YxTKqvVzzjluV1mntrOrssOvzgBAJIBiQiQAEjE/Ca6pN56QkJIUu0TiQgAAKXNtFN/lZZ/s1r+YpeZF///dpl5ykdVMvDUY3eZ3uInqfVf7jLjlHuqZeYpx0Rfj6haH+0z45RR0fI1qe1V97PUq/jgFycAQDIgEQESAImY30SX1FtPSAhJqn0iEQEAoPSZ2fKmlPi7aZcZp/zRLs84ZYNd5yTijFNetOVMZrbsllp/fapGPRMn7DKj5ZpdZp52ZKrGB784AQCSAYkIkABIxPwmuqTeekJCSFLtE4kIAAClz+yWP9pFPQ2reg++WyUFTz3YrqvWE7HlHenMbHm7XT+rRdPUeonEp6Kvo9P71gy/OAEAkgGJCJAASMT8Jrqk3npCQkhS7ROJCAAA5YF6D6ZlYMvlqdq4RNw5jqphzCkJmc5ju1Qe8y+pLXzwixMAIBmQiAAJgETMb6JL6q0nJIQk1T6RiAAAUB7o6cpOBOopy470cOaWr9onL7uo92KchW3+n11mtTwu2u7KKJ/ZfWa1OCe11ge/OAEAkgGJCJAASMT8Jrqk3npCQkhS7ROJCAAA5cPMUz6w8m/28d9P1dQ+J+KMU4ZVPVSlZfdUjY4zKLXPglSND35xAgAkAxIRIAGQiPlNdEm99YSEkKTaJxIRAADKh5okYtWciJsz0neXGaccn1ovaagnNo+321aVL0wdxQe/OAEAkgGJCJAASMT8Jrqk3npCQkhS7ROJCAAA5YOTiNNafC9Vs8su1536X2lJuFNOudFuo16IM1puTddr6POMlpfZddnhFycAQDIgEQESAImY30SX1FtPSAhJqn0iEQEAABwzT/nhLtNP+3mqVBv84gQASAYkIkACIBHzm+iSeusJCSFJtU8kIgAAQMPgFycAQDIgEQESAImY30SX1FtPSAhJqn0iEQEAABoGvzgBAJIBiQiQAEjE/Ca6pN56QkJIUu0TiQgAANAw+MUJAJAMSESABEAi5jfRJfXWExJCkmqfSEQAAICGwS9OAIBkQCICJAASMb+JLqm3npAQklT7RCICAAA0DH5xAgAkAxIRIAGQiPlNdEm99YSEkKTaJxIRAACgYfCLEwAgGZCIAAmARMxvokvqrSckhCTVPpGIAAAADYNfnAAAyYBEBEgAJGJ+E11Sbz0hISSp9olEBAAAqBuZf8Rm/uIckfoKAAC5gUQESAAkYm4ZM39ptXJ0SauVz+45qFqZkGIms33mK0hEAACAuiFJ+FIU98es+8Wpei0jEQEA8gMSESABkIi5RZJw9z1+lpaJ0SVN12sZiUhCimuf+Q4SEQAAoO7YX8hRJBPd8vuprwAAkB+QiAAJgETMPdFltJFMdMvf/vfv2q++7QkpVpJqk0hEAACAuuN6HWaGXogAAPkDiQiQAEjE3ON6HWaGXogktKhd+upzDRIRAACgflT70JgKAADkDyQiQAIgEfOT6FLuFN92hBQzSbVLJCIAAED9yOyNSC9EAID8gkQESAAkYn6S2RuRXogkxKht+upzDRIRAACg/sQ/PAIAQH5BIgIkABIxf4kuZzq+9YQUO0m1TSQiAABA/XG9EemFCACQf5CIAAmARMxfXG9EeiGSUKP26avPNUhEAACAhsEvTgCAZEAiAiQAEjG/iS6pt56QEJJU+0QiAgBAnRh1z8Ujr1k9/KZJ9/XdHi2bxp6OY1t66xtbJi3vu338su6PTv5z/5NTTQUAIFeQiAAJkKtEPKfXYNOx7xBzSJOj4/cnaeQ5OGoPBx3Z1IyZv9Tbbkhxou+Nrz7XIBEBAKBWrl094hYJozseud6seW65efqtpwixUXtQpq4csuPqVRXzUk0GACAXkIgACZCLROzUd4i9H0eMGGFWr15tABxqD8qRTY8xF/Yb4m0/pPDR/eqrzzVIRAAAqJFJy/tsu3XT9Hd8AomQeG7dOPODiff1fTbVdAAAGgoSESABGioR1dNs6PDKlDICyM6QikrbXnztiBQ20S3vrc81SEQAAMiKeiAu3DL7E58wIsQXiUR6JAJAjiARARKgIRJRPRARiFAfKqL2Qo/E4ie65b31uQaJCAAAXsYs7XLs1JWD3/aJIkJqioa+j1vWbWyqKQEA1BckIkAC1Fcijl/wJ3NE02NSagig7kTNjSdXFzn6Hvjqcw0SEQAAvIxb1n3Lmufu80oiQmrKHVuuN1feP3ROqikBANQXJCJAAtRXIh54RFPmP4QGobkz/9iH3ojFTHTLe+tzDRIRAAC86CnMSETSkKjd6KnNqaYEAFBfkIgACVBfiainMCMRoSGo3TA3YnET3fLe+lyDRAQAAC8akuoTRITUJWo/qaYEAFBfkIgACVBfiRjtklJCAPVH7cfXrkhhktT1RyICAIAXJCLJJUhEAMgBJCJAAiARoZCo/fjaFSlMkrr+SEQAAPCCRCS5BIkIADmARARIACQiFBK1H1+7IoVJUtcfiQgAAF6QiCSXIBEBIAeQiAAJgESEQqL242tXpDBJ6vojEQEAwAsSMb954rXHzZaXNpsnXn/Cu77cgkQEgBxAIgIkABIRConaj69dkcIkqeuPRAQAAC9JScSRk0bYX2p777O3FWuqW/vUg7buDyf/fqftG5q1T6+1xzzx1BO86wudHoN62POZMX+6d73LnzctNwNHDTQLl9/mXV8qQSICQA4gEQESAIkIhUTtx9euSGGS1PVHIgIAgJekJOKIiZX2l5oioai6B598wJaPO/G4nbZvaJyYbH5Kc+/6Qmfm/Bnm/IvPM3c/sNi73mX2rbPsefev7OddXypBIgJADiARARIAiQiFRO3H165IYZLU9UciAgCAl0JIxG9/59vm4ec2VJOIG7ZvMAceeqAVbtr+yTeesOXW7c+w5crLh5tDjjzEDBjR3/z2f39rDvjdAebGu+aY8y853/zoxz+yx1AvRCcRDzvqMHNqm5Z23QktTzAPPLHGHufxVx8z3fpfavbYcw8b7f/Yq4/aIcd6vc69LzHtO7b3is277r/THHnMEfb8dS7z7p5r63sN6WnLFeMrzFNvPmlannmKLd++YqEZe9VYe9z5f7rFbjtxxkTT5Ngm5vs//L49vyUP3m17Ieo96bx/vvfP7TaPvLzF9KnoY/bZdx9bd06nc8ymFzZWOx+XUVeMsj08tb+OM+fOG2z9HStut+eh3pB6P3q/nS7taB595ZGdjpGvIBEBIAeQiAAJgESEQqL242tXpDBJ6vojEQEAwEvSEvH0s063Xzv36VxNIq7b+pBdlvzT9ppDUOV999vXljt162TLisSgW5bQU7QsQeYkoiJRp2j5tLan2eP0HtrLliXUJOi0fNYFba2gc/spEn/u3JUNz65Pv45Eotvu3vXLrAR05WHjhtqvzY5vZveLD2e+b8O9dlkCVHJUy02Pa2pWPXq/fd8q65yumnOlGXf1OFvWsOxj/nC0Xe43fOdeilOvm2LXKTpnt7zsL3+yktWV9X7d8rSbp+10nHwFiQgAOYBEBEgAJCIUErUfX7sihUlS1x+JCAAAXpKWiBOnX27nQNTyrfcusF/rIxHVS0+9CZ0clMBbtOqu9HGcRNR69S7c/OImuywBqLkYnYBc+tA9ZuWWFWkx6OZSVPQabt5GlwnXjrfr1CNw9WOrTPeB3W1ZUlLrB40elN5fkRhUfVwijrnyMrssCSmRd8XsyWb8NePta2UOZ5b0VFm9Im9cdKPd1zevopOP2kZliUaVL+x+YVoi6vXU+1D7u2NmHidfQSICQA4gEQESAIkIhUTtx9euSGGS1PVHIgIAgJdCSMSl65baZSfAvBLxtcdtOVMiuiHErhehliXstKwee76HtahXoOoWr1lkv/pyz9ol9qt7vcz0HNxzp30U9WLUep1vukdkdK5uv7hE1LlpaLLbV9v3Hd7XbpcpESUF3fEU9ST0SUQnU90QZQ2bVllzQjqJ2LVfV7tOw5tVPvPcM6sdI59BIgJADiARARIAiQiFRO3H165IYZLU9UciAgCAl0JIRJXVo09lRRLRDSfWnH5af/8jK225PhJRstBJREk3rVPcUF7NfejE3MI/L7TiUL0hb7nnZvOXbetsvZOYmXHnr1582k+9H7Xf8o3L7Xr1XtR6Ra8hKar6uETU0GftoyHIev/uXNSbMlMiSvhJAqqn4smnn2TX6X1ozkV3ToqbS1E9K1XW9irbHowpidh9QLf0MVVGIgJAoCARARIgVIn43nvvmSeffNJ88sknqRooB9R+fO2KFCZJXX8kIgAAeCmURIzPXSiJqDrXq04CzIm/hkpERfMJujkY3Ws4Ideuw1npIch6KIke9KLlbBLR9WLUOWposZsX8crrp9rXdELQzXXo5mCMS8SRk0fa5TPObmWf2qy5EVXWUOrrFs62y3oPEoItzmhhy5KKbhiyr5ekm+NRMrHPsN7p4dqSkkhEACgxkIgACRCaRPziiy9Mhw4d4ve6adWqldm6datd/9JLL5kpU6aYTZs22XJSzJ07t9o5KPvvv79ZsWJFaouGMXbsWHustWvXpmq+YfHixXbd9OnTUzWFYfv27fZ1O3bsmKpJDr2Or13FM2b+Um89qTm6brVdu7pc/4YEiQgAAF6SkogjJ42wv9ScRFQkvVTnBN/wCcNtWdETjPXV9Ux0EvHmJfNsOatETM1tqGHDTkrq68Llt9lt1zy+2ko81SuSbrfdd2u6J6TkoLbzRfMiutdVJDs1d6Oesqyynvrs5mBUWWLQDYOWCNQ6Nx+kou1cz0P1XHTH1nyL6ukYf1CKRKfEYOY5ad5HJxxddB5apyHRKut4Kuvp0iq3Oa9NtWPkM0hEAMgBJCJAAoQmEa+++mr7Gs2aNTPTpk0z5557ri3vu+++dv3y5VUPrJs0aZItJ8VNN91kX+fwww833bp1M23btrVlZcmSJamt6s/IkVX/abxmzZpUzTfcdVfVPN7XXHNNqqYwbNu2zb7uBRdckKpJDr2Or10pZ/es+g98JGLDo+v328OOynoNa7r+uQSJCAAAXpKSiHWN5vaTCPStq2+efOMJs+rRVVb0Za6T0Fv+8H3edbVF+23YvsG7ri555OUtdmhz5tBkRcfVelde/+xf7INc4tv4ou3ufmCxlYq+9YUKEhEAcgCJCJAAoUnETp2q/mN46dKltqyeiaqTxHvmmWfMIYccYtfvs88+ZsGCBXab6667zkpG1Wv9qlWrbP2GDRtMkyZNrJg87bTTzLhx4+zxJPL22msvm969e5vPP//cbh/HScS4rLzzzqr/cNUxxf3332+Xd999d3PSSSfZ3osOndsJJ5xg15133nnm6aeftvVOIg4cONCes85h8uTJdp2TiHq/zZs3t+sGDBhgz1m8/vrrtlfmbrvtZo8ruemGe3/88ceme/fudh9dmy5dutjttV7nOGzYMLu9roNYtGiROeigg+y2Ohe9brEkopOHigRY5npS92Rey0yZ6Lv++QgSEQAAvBRbIpLSDhIRAHIAiQiQAKFJxCuuuCJ9n7dv397ccMMN5o033rDrXn31VXPcccfZdRpaLBF2xx13pLeXLHPLGqLrei26SOBJJGpZsk3H0HLnzp3t8eP4JKLOwx3rH//4h5V5WpbgdMvPPfecef755+2yejE6KSrJKJxEdOvd8iOPPJKWiIoEozvmnDlzzD//+c+0KNVXSUQta+i30HmqLInqrpHWffTRR3bZRdfob3/7W7qs6+CWCy0R48LLhV6IuSfzmsZlosqZ2+cjSEQAAPCCRCS5BIkIADmARARIgNAkouRc5pyIyogRI+z6zOHMTpi54cETJ1Y9zG7QoEHpbSXK1q1bZ9fvsUfVvNqaY/Hll19Oi7pPP/3Urnf4JOJXX31l6xQJzdGjR9t5DJ966inTtGlTW79y5Uor/bSs3oTqUblw4UIzb9488+WXX6Yl4qhRo+wx+/fvb8sSiE4itmnTxq577LHH0mXNoahlvd+vv/7anq879/fff9/ceuut9nw0Z6Sbz1HCMC4R1TtS5+DEq85F6FqpXCiJ6JOHLlpHcoukoe/aunrffZ1rkIgAAOAFiUhyCRIRAHIAiQiQAKFJRMeHH35o7r33XjsEV6+pvPXWWztJRNcjT/JRrF+/3pZbt26d3lbDdYUEmsq+SCjG8UlEiUPVSeSpZ2D83FwkEd9++207TNjVSfZdfvnl9hhOIroHtOghMSpLNDqJqOHXDre/Ox8n/oR6N6ru8ccft5LU9ax0iUtEDV12aKiz6pxYddesUBJRveJ23+NndjmeX+y7n1eKkfol87q6a+3W+e7rXINEBAAAL0hEkkuQiACQA0hEgAQITSJqCLN6C7qnMQv3UBPNSZgpEd0ciW579fhTWYLPbTtmzBi7Trjee5s3b7ZzLD788MNWpmXOi+iTiEOGDLF1lZWV6fkRW7ZsaYcwd+3a1ZYlEVXWMdXjT/MUutdUL0EnEV3PSZ9E1LGE5jRUWbJw2bJldlnXx+F6VWo7N9RZQ7zdg1LiElHi0zF+/Hhb5+aU1D4qF3o4s08mSnTF2xupX+LXNC4P3XqV49vnK0hEAADwgkQkuQSJCAA5gEQESIDQJOLYsWPta6iHoYbZOnGnSMKpB5+WJe8kDt0ch5KJkmNOrEkg+iRiu3btbJ16402dOtUuS8BpqHIcJxHVu0/iTj35VFbU80/ST8sXX3yxfVqzE4U6v9mzZ9vljh072t6Ubu7DHTt21EkiKn379k3P8ajz/OCDD9KvoZ6VeliLlnVs4Xo+SmK64eDZJKIe8qI6XWMJUXfNivVglbj4+n3r9jutJ3WPhix/+9+/a6+lT8j6rn8+gkQEAAAvpSIRu/W/1P6S7D6wuy3fdX/V/xYrW/5a9XTj9h3b2/KU664wvYb0tMvz7p5b7Ti15c+blpuBowaahctv86735dwLz7Gv9f0fft8+Idq3TbkGiQgAOYBEBEiA0CSinkQ8fPjwdM86RT3x7rnnHrv+3XffTQ/b1RyAevqwJJ/bVnFDfp1ElJh06OEokntuWwm0jRs3ptZ+g5OI8ehpy5qbUOh148OHW7RoYb9OmDDBPilZT1F26yTrXI9GzYWougceeMCWnciURHQ9Al3vSrf8zjvv2G0lKJ1IVCQO1etQuHkYFc3FqO0U9zAY1cWR/HTbu3N3D2lJEr2Or10pkoluSLNvPak5un66vjVdv5qufy5BIgIAgJdSkYhz76764Nfk2Ca2PPaqqv/VVm6771Zbt/c+e9vy2qceTEvHGxfdWO04tWX2rbPsfv0r+3nXZ+bxVx8z3/7Ot9PnUl9pWepBIgJADiARARIgNIkY55VXXrE98Hyo/rPPPkuVjHnvvffsA04k9+qCRN8LL7xg5zbMhb/+9a9WfPrQ+Wlosx6EUl80x6N7KnUczeuoY+raZB5X78m3TzY0d6PmmSwkaj++dkVyjySirz6epK4/EhEAALyUikR87NVH7S9J5YnXHjfnX3J+ulx5+XCz/tm/2OV999vXbu8kYqdunaxc3GPPPcyAEf3tuqfefNIMHTvE7LPvPuZHP/6RaXFGC3PLPTfbXoi//d/f2v1+vvfPzcQZE80jL28xfSr62G1Vd06nc8ymFzamz8tJR63TV6136yQUDzz0QLv/H07+vT2HC7tfaN/Lhu0b7DqdX7sOZ9nzOPHUE8yax1en9y+FIBEBIAeQiAAJELJEhPJD7cfXrkhhktT1RyICAICXUpGIynEnHmd/US5adZcVcBJzGkLcuv0Z5rqFVXPVdO7T2W7rJKJywO8OSC/fseJ2c+u9C+yyE3da1nFWPXq/Oeyow2xZ0vCqOVeacVdXzcuj7Y75w9F2ud/wb3opnnF21dAW9/rqlSjJqXXX3HS1rVOcZFQ01Hrd1ofSZb22Wz7ymCPSxy6FIBEBIAeQiAAJgESEQqL242tXpDBJ6vojEQEAwEspSUT1OIxO2VSMr7Bfew7uacWiehp2H9DN1t20uGr4cnoOxahe5Y5d/2jLV95wpZn/p1vs3IoaBq1lNxxZcytmDmc+re1ptqz5FjU0esyVl5kZ86fbddpe65w4dEJSQlHrnURsfkpzW9a5qazzdRJRAnHzi5vMQ8+sTZ/H2qfX2u1LIUhEAMgBJCJAAiARoZCo/fjaFSlMkrr+SEQAAPBSShLx3vXL7C9K17NQMk8yUMu/O+x39uujrzxit3US0Qk9PSxF5StmTzYPPLHGzq2ocjw+iShxGJ/zUEOSnURUT0VXp/NQL0KV1TNS651E1NBplTWMWmUdz0lE9abUOqXZ8c1s3aLVi9J1oQeJCAA5gEQESAAkIhQStR9fuyKFSVLXH4kIAABeSkkiKhqCHJ22zerHVplpN09LlyXh3HaZD1aJS0Q3n2LXfl3tQ1jcUGOfRNTw5xvvmmPGXzPenHz6SXadpKGEoOt5mBlJQs2l6CSi5lzUsVY9usqW9Xrxnohu+LOOqzq9L5VLIUhEAMgBJCJAAiARoZCo/fjaFSlMkrr+SEQAAPBSahJRw4qj07byTWUn5pRh44elt6tJIrpjDJ8wPF2vbHlpc3puQwnJpQ/dYwWgypKK6oGoZT28RQ9Gcfup5+A9a5fYHHLkIbbu2rnXVJsTUT0V3UNb9PCV+JyIerCKE5Qa6vzkG0+k30foQSICQA4gEQESAIkIhUTtx9euSGGS1PVHIgIAgJdSk4iSc9Fp27kQXZ0bbrx03dJ0XeYciYNGD7JlSUT1LnQPM1HvPyf3ND+i5J4eqqKyxJ97iIvKiiSfeivqyc0qtzzzlPRrKm6+xlPbtExLRElHt79e68EnH0hLRL2+Oxd9XbBsfrXjhR4kIgDkABIRIAGQiFBI1H587YoUJkldfyQiAAB4KTWJmK9oCPGfNy23w5J969XTUEOSXXn9s3+p9zBjJxGHjRtqj6Vek26dk4h66Ip6Hq7csiI9rLmUgkQEgBxAIgIkABIRConaj69dkcIkqeuPRAQAAC+NVSIWInGJmLkuLhEz15VSkIgAkANIRIAEQCJCIVH78bUrUpgkdf2RiAAA4AWJmFw0vLrn4J7mtvtu3WmdHuKidVOvm7LTulIKEhEAcgCJCJAASEQoJGo/vnZFCpOkrj8SEQAAvCARSS5BIgJADiARARIAiQiFRO3H165IYZLU9UciAgCAFyQiySVIRADIASQiQAIgEaGQqP342hUpTJK6/khEAADwgkQkuQSJCAA5gEQESAAkIhQStR9fuyKFSVLXH4kIAABeJt7X99k1z93nFUSE1BS1m0n39d2eakoAAPUFiQiQAPWViAc3OdqsXr06pYQA6o7ajdqPr12RwiS65b31uQaJCAAAXq5aNeyG27fM/twniQipKZKIE+7t+ViqKQEA1BckIkAC1Fciduo7xIwYMSKlhQDqzv2rVpkDj2jqbVekMIlueW99rkEiAgCAl5H3XDSCIc2kIbly5ZB3xiztcmyqKQEA1BckIkAC1Fcint1zkL0HAerLEU2PMWPmL/W2K1KY6N711ecaJCIAAGRl+pqRC27dOPMDnygixJdbN05/59rVI25JNSEAgIaARARIgPpKROXCfkPMkIrKlBoCqJ2hwyvNRf2GetsTKVyiW95bn2uQiAAAUCMTl/fdikgkdcltW2Z/Mml5n22ppgMA0FCQiAAJ0BCJqGhuu4rhiESoHQlE5kIMI9Et763PNUhEAACoFfVInLpyyI5Vz977GQ9bIfGoPdy+5Xr7NGZ6IAJAnkAiAiRAQyWioh6JGqKqB2bwsBWIo/YwvLLS/rymB2I40ffDV59rkIgAAFAnRt9zSbPxy7o/qqc2Sxg19hzb/nfe+sYWPYX5ypVDZo3+0yUjUk0FACBXgpWI/znwprH/O/7OOf894tbt+gOKEGXvygXbfzr05sd+0P/GoOcD1rnGJUB9oznu9LAM9TSLDkeIjdpDx75D7ByavnZDihN9b3z1uSb+cyR6DQAAAKgj/OIEAEiGICXi7yYsmqc/mv5463oz4cHnd/rDijTeqD0o+4+9852DJ94dbK/8XCUiqZ7oknrrCQkhSbVPJCIAAEDD4BcnAEAyBCcR9x4x/9lzbn7og8w/pgjJTPt5D72zV+WCIOcHRiLmL+7J1fS+I6FG7dNXn2uQiAAAAA2DX5wAAMkQlERUD0QEIqlPzpu/7pMQeyQiEfOX6HKm41tPSLGTVNtEIgIAADQMfnECACRDMBLxl5W3nrzf2Dt3ZP4RRUht0R/Y3+s/J6j5gpGI+YnrhehCb0QSYtQ2ffW5BokIAADQMPjFCQCQDMFIxD2Gznt0wtrndvojipDaorkzfzvmjtmpphQESMT8JLqUO8W3HSHFTFLtEokIAADQMPjFCQCQDMFIRD2FGYlIGhK1Gz21OdWUggCJmHsyeyG60BuRhBa1S199rkEiAgAANAx+cQIAJEMwEhHZQnJJaH9kx//4zzxXUrdEl9F8+9+/m/75tPseP0sv+7YnpFhJqk3Gf45ErwEAAAB1hF+cAADJgEQkZZHQ/siO//Gfea6k9rheiK7XoZb1dcz8pVYm0huRhBTXPvOd+M8R/VwBAACAusEvTgCAZEAikrJIaH9kx//4zzxXUnsyJWF0SauVJRPjZUKKmcz2ma/Ef47YHywAAABQJ/jFCQCQDEhEUhYJ7Y/s+B//medK6p/oknrrCQkhSbXP+M8R+4MFAAAA6gS/OAEAkgGJSMoiof2RHf/jP/NcSf0TXVJvPSEhJKn2Gf85Yn+wAAAAQJ3gFycAQDIgEUlZJLQ/suN//GeeK6l/okvqrSckhCTVPuM/R+wPFgAAAKgT/OIEAEgGJCIpi4T2R3b8j//McyX1T3RJvfWEhJCk2mf854j9wQIAAAB1gl+cAADJgEQkZZHQ/siO//Gfea6k/okuqbeekBCSVPuM/xyxP1gAAACgTvCLEwAgGZCIpCwS2h/Z8T/+M8+V1D/RJfXWExJCkmqf8Z8j9gcLAAAA1Al+cQIAJAMSkZRFQvsjO/7Hf+a5kvonuqTeekJCSFLtM/5zxP5gAQAAgDrBL04AgGRAIpKySGh/ZMf/+M88V1L/RJfUW09ICEmqfcZ/jtgfLAAAAFAn+MUJAJAMSMRGlsXPv28WPP6qd10pJ7Q/suN//GeeK6l/okvqrSckhCTVPuM/R+wPFgAAAKgT/OIEAEgGJGIqP/3v/7HX4NhW7arV95o0w9a37zW4Wr1y7fKH09fuqBat0vXtegxK14+au9jcuH5buuyy/xFHm65jplqpFz+m8l+/+O9q2+rc9Pq3PPJXu73qfnXgITvtl5l+V15vLq68PF2uuO629DHnbX6h2ralntD+yI7/8Z95rqT+iS6pt56QEJJU+4z/HLE/WAAAAKBO8IsTACAZkIhRrvzTuvg1MAufejO9zknEs3sOqraPcs3yDel9vvuD/0jXSxC6+hE33mXm/KVKIv7fb3/HtDj/Yisqtay6/lft/L6dRGze9jxzQrsO5j9/+nNbPumcTvWSiL/c/yC7rStLdKp8/oAR5vZn3qq2bamnDn9kj4iSr/atYylZif/xn3mupP6JLqm3npAQklT7jP8csT9YAAAAoE7wixMAIBmQiFHaXtrfvn8n7wZeOze9ri4S0QnB2Q88Ye569p1qdXGJuPdvDkjv22X0Fbbu1I5dqx1Tceex4LFXbPmqe9fbsnokZkrEmWseM4f94WQrMVWn89Q5nN+/Mn0Oh/z+RHNe34p0+XfHNDdzNz1vz+vw40+x9dpfgtMJVMlL7dd51GQrMW/e8qL57WFHmdM6XWrlpuq0/YTbl5tf/+5wW9a1cu+h0Knhj2zJPq171Jbyh72WUbwyMf7Hf+a5kvonuqTeekJCSFLtM/5zxP5gAQAAgDrBL04AgGRo9BJx8XPvmR/853/Z9z9q3t32a5OTT0+vr4tElMTT1wFX32im3PNgtTqfRLxr+7vmlPMvsXVndR+403EzJaKGJassWZcpEQ8+9gRb1le3X4/Lp5lLRkxMS8PjzjjbDmuWKFRZPSHnbXo+PYRbX92637dub4/rejG63PTw9vSy29bFXT+lWMOkPX9kO3movB8l3207fnylmkyM//Gfea6k/okuqbeekBCSVPuM/xyxP1gAAACgTvCLEwAgGRq9RLz8jhX2vUscLtr+t7R4cwKvLhJRvfYk8NSrsOtlU9Lb62tcIiqZAk49+TKP62SgzsWdj9J36nU7SUQNTVZvwVlrHjen/rGLXac5GbUuczizG2atoczjbrvPLqtOx7z96bfSrzX/0ZfT+7bp2tc+iEXXQ2WdmySo60mpXok69pEnnmrLVyx5IP16hUzsj+xMuafkuxeiI/N1FCsT43/8Z54rqX90bX31hISQpNpn/OeIfq4AAECROPSIpoaUTqJvmbeekFJN1U8igCBo9BJR4i96eXPg0b835/QZmp5/sPfkmXZ9XSXiH9qca3saqtefxNy5fYbZdZkSUb0JtV4PSrni7jU7HVNxElEiT9tr2HDlnDusvMuUiN3GXV1NNCp1kYjufcUfGKNhzqrTHJFuXwlFrXMSUcdQeejMBbbcccgYWz6xfUdbnrRoVfp4hcx32g60rx9KdD46LyRifqJr6qsnJIQk1T6RiAAAgaA/4re8M5GUSKJvmbeekFIMEhECo1FLREm5TAHnouHB2qauEvHSMVfaZR1PQ5R9EjE+J2JNcRLR9YaMJy4R3VOfNZx48uLVps8Vs2y5LhJx+A232+WjT22TXu+GJet83b7qnal1dZWIOg93vEIm9ke2ryeiW5dv1MMx83XoiZhAdG199YSEkKTaZ/zniH6uAABAkUAillaib5m3npBSDBIRAqNRS0Q3B6IeGHLt8odtrlr2l/T10MNHnERUD0WJRRf1YIxLRDcXolJx3W0FkYg3/GVr+rijb16SFn9unkVto7J6VWq/uETUsZ1AbX1JLztPopZdD8eGSsRsvSuTjueP7EyZaOVeHtG9orkWvceP//Gfea6k/okuqbeekBCSVPuM/xyxP1gAAKA4IBFLK9G3zFtPSCkGiQiB0aglohNfGhIcr9f8iKrvPv6atETMjCSbpKOWJRHv3LYjve7GDc+ac/tW2GVJRNdjUPvEXydb0hLx8Vd3Wpc5nFmvrbLi5iXU0Gyt6zBodHqdel3GJaLWj5q7uFpPTL3utBWb7LpsEvF/jzrWlofNutWWA5aIjrhMzCeuF6JXTsb/+M88V1L/RJfUW09ICEmqfcZ/jtgfLAAAUByQiKWV6FvmrSekFINEhMBo9HMilkP05ORbn3jNu+62J98wtzzyV+86RXJxxqpHzPUPPW0FpW+bUkgd/siW7MtXb0TdJzUeK/7Hf+a5kvonuqTeekJCSFLtM/5zxP5gAQCA4oBELK1E3zJvPSGlGCQiBAYSkZRFQvsjO/7Hf+a5kvonuqTeekJCSFLtM/5zxP5gAQCA4oBELK1E3zJvPSGlGCQiBAYSkZRFQvsjO/7Hf+a5kvonuqTeekJCSFLtM/5zxP5gAQCA4oBELK1E3zJvPSGlGCQiBAYSkZRFQvsjO/7Hf+a5kvonuqTeekJCSFLtM/5zxP5gAQCA4oBELK1E3zJvPSGlGCQiBAYSkZRFQvsjO/7Hf+a5kvonuqTeekJCSFLtM/5zxP5gAQCA4oBELK1E3zJvPSGlGCQiBAYSkZRFQvsjO/7Hf+a5kvonuqTeekJCSFLtM/5zxP5gAQCA4oBELK1E3zJvPSGlGCQiBAYSkZRFQvsjO/7Hf+a5kvonuqTeekJCSFLtM/5zxP5gAQCA4oBELK1E3zJvPSGlGCQiBAYSkZRFQvsjO/7Hf+a5kvonuqTeekJCSFLtM/5zxP5gAQCA4oBELK1E3zJvPSGlGCQiBAYSkZRFQvsjO/7Hf+a5kvonuqTeekJCSFLtM/5zxP5gAQCA4oBELK1E3zJvPSGlGCQiBAYSkZRFQvsjO/7Hf+a5kvonuqTeekJCSFLtM/5zxP5gAQCA4oBELK1E3zJvPSGlGCQiBAYSkZRFQvsjO/7Hf+a5kvonuqTeekJCSFLtM/5zxP5gAQCA4oBEDDuzFneuVo6+ZdXKlww4vlqZkFIKEhECA4lIyiKh/ZEd/+M/81xJ7Rkzf2m1cnRJq5XP7jmoWpmQYiazfeYr8Z8j9gcLAAAUByRi2JEk/K+ffi8tE6NvWbpey0hEUspBIkJgIBFJWSS0P7Ljf/xnniupPZKEu+/xs7RMjC5pul7LSEQSUlz7zHfiP0f0cwUAAIoEEjH8RN8mG8lEt7zbd/+v/erbnpBSCRIRAgOJSMoiof2RHf/jP/NcSd0SXUYbyUS3/O1//6796tuekGIlqTYZ/zkSvQYAABQLJGL4cb0OM0MvRFLqQSJCYAQjEfeuXLB9wtrndvojipDaonaz94hbn001pSBAIuYe1+swM/RCJKFF7dJXn2uQiAAAgYBELI1E36qd4tuOkFIKEhECIxiJeNCERTf98db1O/0RRUhtGffAs5/tMXTeo6mmFARIxPwkupQ7xbcdIcVMUu0SiQgAEAhIxNJIZm9EeiGScggSEQIjGIn4vf5zRiBcSEOy39g7d3y375yitV0fSMT8JLM3Ir0QSYhR2/TV5xokIgBAICARSyfRtysd33pCSi1IRAiMYCSiOHji3be0n/fQO5l/SBGSLefcvPaDQyctWZBqQsGARMxfosuZjm89IcVOUm0TiQgAEAhIxNKJ641IL0RSLkEiQmAEJRHFXpULtp03f90nmX9MEZIZCcS9hi/Ymmo6QYFEzF9cb0R6IZJQo/bpq881SEQAgEBAIpZWom+Zt56QUgwSEQIjOIko1CPxt2Nuf1sPzOBhKyQetYcL5q/7XH9Uh9gD0YFEzG+iS+qtJySEJNU+kYgAAIEQukRUr7vug9qYI5oe4P6oI8S2h0OP2tdcd3d3b7shpREkIgRGkBJR/KD/jcf+ZPDcLXpqs/6AKnS+03agt75Y+X+PPM1bX6wU6/roKcz/O+GuG77b9/oRqaYSJDrXuASob87pNdh07DvEHNLk6Pj9SRp5Do7aw0FHNjVj5i/1thtSnOh746vPNfGfI9FrAABAsQhZIvYYfJb9RTRixAizevVqA+BQe1COOvpQ02NQW2/7IeEHiQiBEaxEDIDQ7lXOp4TIRSJ26jvE3o98FoRM3GfBI5seYy7sN8Tbfkjho/vVV59rkIgAAIEQqkQ8vOn+ZtjwgamPCQDZqagcHLWXA7ztiIQdJCIEBhLRj3q56XqE1NstpJ8dIV6foGioRFRPs6HDK1O/7QGyM6Si0rYXXzsihU10y3vrcw0SEQAgEEKUiOqBOLxyaOpjAUDtSCTSI7H0gkSEwEAi+olfk1AI7VxCuz5B0RCJqB6ICESoDxVRe6FHYvET3fLe+lyDRAQACITQJOKsxV3sEFWA+hI1Z9N5wEnedkXCDBIRAgOJuDOul51LKL3tdC4hEOr1CYr6SsTxC/5kjmh6TOq3O0DdiZobT64ucvQ98NXnGiQiAEAghCYRDz3q18x5Aw1C8yV1H3Smt12RMINEhMBAIu5M/Hq4hEBI55EZyKC+EvHA6HcDnwWhIeiz4B/70BuxmIlueW99rkEiAgAEQmgSUU/d5YMjNAS1G7UfX7siYQaJCIGBRKxOZi87lxB62+k8ik3I1yco6isR9RRmPgtCQ1C7YW7E4ia65b31uQaJCAAQCKFJxOiUUh8DAOqP2o+vXZEwg0SEwEAiVkfX4P3UV+Wl2HKxCeUcQr0+QVFfiRjtkvqtDlB/1H587YoUJkldfyQiAEAgIBGhnFD78bUrEmaQiBAYSMRvcL3sXK86d6/qmkiWFbu3nTufYhH69QkKJCIUErUfX7sihUlS1x+JCAAQCEhEKCfUfnztioQZJCIEBhLxGzIlWOa9WuxrU+yfHaFfn6BAIkIhUfvxtStSmCR1/ZGIAACBgESEckLtx9euSJhBIkJgIBGzE9q9yvmUEEhEKCRqP752RQqTpK4/EhEAIBCQiFBOqP342hUJM0hECAwkYnZCu1c5nxICiQiFRO3H165IYZLU9UciAgAEQmOViG3btjUtWrRIlWrmoYceMlOmTDFvvvlmqqaKjz/+2J6v8umnn9q6Vq1a2fLIkSNt+fXXX7flffbZx5bFnXfemd5v+/btqVrIB7qmvnZFwgwSEQIDiZid0O5VzqeEQCJCIVH78bUrUpgkdf2RiAAAgdDYJOLs2bOtQNTrxMVeTQwZMsRu//DDD6dqvuG4446z69atW2fLu+++uy07Qbl48WJb7t27ty2L1q1b2zplzJgxqVrIB7qmvnZFwgwSEQIDiZid0O5VzqeEQCJCIVH78bUrUpgkdf2RiAAAgdDYJOIee+yRFn1xifjZZ5+ZCRMmmP3339/Wd+/e3Xz00Udm6dKlZq+99rLbN2nSxDzxxBOpPaqYOLHqnK+44gqzY8cOu6zstttudv3AgQNtWccR77//vi27Y2YTmevXrzfNmjUzo0ePtkJS282cOdPccMMNZt999zUHHXSQ2bx5s932iy++sD0fdUxFwvLzzz+361555RXTt29f+74PP/xwe76OBQsWmBNOOMFej/POO888/fTTtl49LPX+dSy9bpcuXWyPSqHz17bap02bNmbYsGH2urzzzjs1nkeh0DX1tSsSZpCIEBhIxOyEdq9yPiUEEhEKidqPr12RwiSp649EBAAIhMYmER16nbjAmzt3rq1zw5y1LOG2YsUKu53KJ510ktm6dWtqjyoeeeQRu069C++//3673LVrV/v1pZdesuJOy3//+9/t9u51xo4dawWelh9//HG7Ls6yZcvsOkUC0C3HyxKJYty4cbYscScJquXOnTvbde3atbPlXr16pddt2LDBPP/883ZZ59epUye7rPcnJk2aZMuHHHJIuqdlhw4d7DqJQZV1DhKlWlYkGWs6j0Kh1/S1KxJmkIgQGEjE7IR2r3I+JQQSEQqJ2o+vXZHCJKnrj0QEAAgEJGIVF1xwga3r1q2bWbNmjZkzZ44VeaKm4cxfffWVlWnK5MmT7XYa2qyvN998s/2qHoUOJw7Vo3H69Ol2uaKiIrX2G5xEdBLODcGeN2+e+fLLL9MCTzipKMH58ssvp9dpnka3PHXqVLN8+XK7/5YtW+z7U33z5s1tL8mFCxemj33rrbfaHpCSoE56qrehkCBUL0T10pQYdceXRKzpPAqFXs/XrkiYQSJCYCARsxPavarvVUjfH36W1QASEQqJ2o+vXZHCJKnrj0QEAAgEJGIVEodOeimSZXWRiMIJSPXqU+89DY1WWfJQXzVMWrz11lu2rIwaNcpcfPHFdlny7euvv7bbOJxEdHMm9unTx5Y3btxoyzo/lSX99NUXiTy9drxOMlAPc3n77bfTPSwVvffLL7/cHlsS1PUkjO/36quv2mXXY1FoWXV6rfj28WhdodDr+doVCTNIRAgMJGJ2QrtXkYglBBIRConaj69dkcIkqeuPRAQACAQkYhUalrx69WrbG88NAZaok9yrTSLOnz/frlc0lFloqLGrc3MXup6HvmQeu64SUTj5qdd55pln7LEkAj/88EM7dHnJkiXmqquusiJQ21100UXmueees9vccccddv5Ddwz1PtSci1petGiR2bZtm13Wvq4HpF5by7o2bn5J9UTMdh6FnBdRr+9rVyTMIBEhMJCI2QntXkUilhBIRCgkaj++dkUKk6SuPxIRACAQkIhVtG/f3tZpPkAn8NycgxpurPKgQYPMu+++a+vivPHGG3a9cv3119s6PYxEZYm1f/7zn7bOSTwNHZZkU9yDV/Twkzj1kYhOeuo1NWxZyxKB//jHP6zkUyRHr7nmGrtOcyDqKdVa7tixo7n33nvTczfq4TCuh+LKlSvtXIha1rkLN3+ihkG7fRRJxGznoSHfhUKv6WtXJMwgESEwkIjZCe1eRSKWEI1BIsZHdyj6/KOHzb333nupLbIzfvx4u4/m4c4Ht99+e7VzUfQZTdPaNAb0fn3tihQmSV1/JCIAQCAgEavQw02c5FP04c992NJQZ1f/wAMP2LpM3PBfzTcorrvuOls+99xzbdkN95XQc1JRaG5EVx8f0uwkoh7AIiQZVfZJRElMyUCVFQ2PdtvpCcyut6CiIdYvvPCCfQJzq1at0vXaRgJVuPkSFclCiVBFPRv1QJamTa34sV/dh+Y333yzxvMoFHpdX7siYQaJCIGBRMxOaPcqErGEaEwSUf/Zqulq3Oc0/cdqbbgH0+VL8uk/q3U8fTbVXN+nnXaaLSsacVLu6H362pXL2T0HmTHzl3rXkZqja6f41rnUdv0bGiQiAEAgNFaJmA39j7F61WWiXn1/+9vf7DDeUJEYlCCMS0qhc5aslATMRPM3amhz5pyMOpakYCbqaTlz5kx7PbReolCCMb5/tvMoBGo/vnZFwgwSEQIDiZid0O5VJGIJ0Zgk4gcffGDLTz75pC3rP6VVp/+o7tWrl12nERoqSziKTImo/wDWg/j0H7znnXeeefrpp239F198YXs3SlAqvXv39k4Z4ySiRrs43AP6Fi9ebGbMmGFfX/9prFEl+s9yffbVfy7rM51eV/Lxk08+Se1dWuh9+tqV5JfW/WLf/bzrSd2ia6hkk4nZrn+uQSICAAQCEhHqw7Bhw+z3SB8y9VXRh9hQ0Pn42hUJM0hECAwkYnZCu1eRiCVEY5SIEoEqS9ZpKhwtH3fccXad/pNVZTdtTlwiasSHliX33BQy7oF2bjsJRDcCpnPnznZdnEyJqP9EdnN1a8i0m+vbRdPXSHZqWV/dCBZNaVOK6Nzj7cnJQ+Xb//5deiHmmPj1VDJlouri5XwFiQgAEAhIRKgP6oGoD6D6n3BFD23J7MVYTNR+fO2KhBkkIgQGEjE7od2rSMQSojFJRDcFjJYVPXyvPhLRTSmj6WSWLl1qhaDmtdaoEo3+0LqtW7faaXLc63z66af2OA4nEZX4lDbaXiNunERs2bKlHd68du1aW9b56TOdjueO/f7776eOWjrovNWOMmWXQi/E/CTzuipOJmo5c/t8BIkIABAISEQoJ9R+fO2KhBkkIgQGEjE7od2roUnE0M4nKBqTRDzkkENs70MNB9aD6yT/MiWi6lT2ScS33347fSxFMu/yyy9P7+OLhGIcJxElEHUuLVq0sA/X++tf/2rXO4koSSluuukmW9Z/DjvU+1F1mjO81NB5k+LGd1/nGiQiAEAgIBGhnFD78bUrEmaQiBAYSMTshHavIhFLiMYkEd1w5jgfffSRXSfBKF555RVb9klEzVO9bt06c8cdd5ju3bunewSqx6Bb3rx5s3nmmWfMww8/bLfNnBfRNydiHCcR1QNRuIf5tW/f3paF6/Xomyc8dHTeake+nohuHckt6tGZeV3piQgA0EhAIhYGDQ/RE4x9E2BD/lD78bUrEmaQiBAYSMTshHavIhFLiMYuEYUbVqweiu7JzT6JOHv2bLvcsWNH25NRcyOqvGPHDtOuXTu7rCc+T5061S5rDkM9qCVOfSWiztkJSu2jh7loWa9diujc4+0pUyY62UUaFs0pqbkls11P1cXL+QoSEQAgEJCItaP//Z0yZYrZtGlTqqbu6IOdPui5D2eKhpbof5pzQU/o03EXLVqUqgGh6+trVyTMIBEhMJCI2QntXkUilhCNSSLqISY+pk+f7n6u2Ccv66vrmTh+/HhblkT8+OOP7VOS3baSj5MmTbLbvfHGG1YuunXqLbhx40a7Ls7tt99u1w8aNChVUx0nER966KFUjbHzXcc/q+r9bNu2LbW2tND5+9pVXCb61pO6xfVCzCZjk7q+SEQAgEBAItaOPtTpvNyHuPowc+ZMu68+mPXp08cKRFfO9kGzLrihMZrnBr5B18TXrkiYQSJCYCARsxPavYpELCEag0SsC3o4nXoU1oXPPvvM/oez7+F1Eo0vvPCCfUBLPtG8i3pNDbcO6aF59UXtx9euXCS/6I3YsKgXYm3Xrrbr39AgEQEAAgGJWDPqhaj/KdZ56X9lFyxYYOuvu+46O4RE9Vq/atUqWx9HH8bc/+pqzhpHp06dbJ2etqehJBKLc+fOtes0gbXK06ZNs+X169fbYSX6n2gJw3vuucfWt27d2h5Dxx88eLCt07ZOUupcr776avshUB82mzVrZiWmXlvDaDScRuek7VXWpNoODYPREBu9pl7HzYczY8YMu72eHKghLmvWrLH1IaH37mtXJMwgESEwkIjZCe1eRSKWEEhEKCRqP752RQqTpK4/EhEAIBCQiDXz6quv2qfp6bz2339/O3xYk12rrDhpp2zfvj21VxUSkG6dhKJDYk//e6yvd999t10/ZswYu05SUWXNSaP/sZbIU3r06GG/ShqqF6ITkaobO3ZsepJuJX5OEn6a68aVtb1bVtzE2co777xjxaKW9TrufUtI6nzd8BcXnzgtNjovX7siYQaJCIGBRMxOaPcqErGEQCJCIVH78bUrUpgkdf2RiAAAgYBErJ3M4cxOrrmeeBMnVp135twzTshJ6mWjJomouWi0rJ6C6rWoXoj6+tprr+00nFn7qzxq1Chb3rBhgy2rl6STiJKBkpluXh6JSOF6NW7ZssVcdNFFdvnmm2+2PRBPOukkW9a8OU4itmzZ0grSELHvw9OuSJhBIkJgIBGzE9q9ikQsIZCIUEjUfnztihQmSV1/JCIAQCAgEWsnUyK63nzqKSg0jFhlybg4mldG9erVF++J+Le//c08/fTTtudfpkR88MEHbdk9Uc9JPBcNbf7kk092kogdOnSw5dWrV9uyXs/t4ySi5Kdwrzl58mRb7ty5sy1rcm4nSDMzf/78tERcunSp3S9EdH6+dkXCDBIRAgOJmJ3Q7lUkYgmBRIRCovbja1ekMEnq+iMRAQACAYlYO5kS0c2RuHXrVltW70CVNc9gnM8//zw9J+LKlSttnYYwu6fuqaeiO7YEndCciypLIr799ttWUGr49MiRI9NDj9VLMFMiqhekyrNnz7blF1980ZbV+7CuElFPn27Xrp1d1hyJzzzzjO2dqPOU8HQSUb0lQ0Xn52tXJMwgESEwkIjZCe1eRSKWEEhEKCRqP752RQqTpK4/EhEAIBCQiLWzYsUKe14axitxOG7cOFuWTBw/fnxa7kkIZqL1Wqe0b98+/TCW5s2b2/Xx3op68InbVhJREk/LGg69ZMkSc/HFF9uypKV6I2pZQ501rNoNnVYvSZ2fHnyissRfXSXi5s2b00+T1oNYrr/+ent8lTWEGolI8h0kIgQGEjE7od2rSMQSAokIhUTtx9euSGGS1PVHIgIABAISsXbeffdd+1AVndvo0aOtwJMQVNlFPQV9fPHFF6aioqLatjqWBKH46quv7BBlt049C/XVza/Yv3//9DpFPQXd0GjXa1DCT7i5GV3U4/HDDz9MS0QnLiUkVfZJRD1ARecbfwCLHs4inETU/IihovPztSsSZpCIEBhIxOyEdq8iEUsIJCIUErUfX7sihUlS1x+JCAAQCEjEuiMZ99lnn6VKxrz33nvmqaeeslKxNjR/4pNPPmlefvllKw4z0bEl/Hz8/e9/t/tKSGbi5kd0fPrpp3a+RYnPXJBM1NOm3byPpYLaj69dlUMuGXC8jW9dqQaJCIGBRMxOaPcqErGEQCJCIVH78bUrUpgkdf2RiAAAgYBEhHJC7cfXrko5Eod6X+UmEBUkIgQGEjE7od2rSMQSAokIhUTtx9euSGGS1PVHIgIABAISEcoJtR9fuyrVSBz+rsneZtbizt71pR4kIgQGEjE7od2rSMQSAokIhUTtx9euSGGS1PVHIgIABAISEcoJtR9fuyq1lHPvw3iQiBAYSMTshHavIhFLCCQiFBK1H1+7IoVJUtcfiQgAEAhIRCgn1H587apU4noelrs8dEEiQmAgEbMT2r2KRCwhkIhQSNR+fO2KFCZJXX8kIgBAICARoZxQ+/G1q1JIY+l9GA8SEQIDiZid0O5VJGIJgUSEQqL242tXpDBJ6vojEQEAAiE0iXh40wPM6tWrUx8DAOqO2s0RUfvxtauQ0xjloQsSEQIDiZid0O5VJGIJUV+JeHCTo/ksCA1C7Ubtx9euSGES3fLe+lyDRAQACITQJGL3QWeaysqK1EcBgLqjD46HHfUbb7sKNRKHjWn4cmaQiBAYSMTshHavIhFLiPpKxE59h5gRI0akfrsD1J37V60yB0afLXztihQm0S3vrc81SEQAgEAITSK6XlkA9eWoow8zsxZ38bar0NKYex/Gg0SEwEAiZie0exWJWELUVyKe3XOQvQcB6ssRTY8xY+Yv9bYrUpjo3vXV5xokIgBAIIQmEZWeg9uZisrBqY8DALUzbPhA02PwWd72FFJmLe6ctefh5h3Vy40hSEQIDCRidkK7V5GIJUR9JaJyYb8hZkhFZeq3PEDtDB1eaS7qN9TbnkjhEt3y3vpcg0QEAAiEECWicnjT/RGJUCeGVw617cXXjkLKeV2PsR+smhz3G3NKmyPMQYf9yuyx54/Md3b7N/Otb/0fs+uuu9qvKqte609pc6TpOriFuWJeB7P8qQrvcUs5SEQIDCRidkK7V0ekEgpIxBpoiERUNLddxXBEItSOBCJzIYaR6Jb31ucaJCIAQCCEKhEV9Ug86uhDzapVK5hgG6qh9qD5kqImHHQPxOl3XmzO79Lc/OjHPzTf+ta3zCGHHmgGDupn5s6da9auXWtefPFF8+GHH5p//vOf9n3pq8qq13ptN3Bwf3P8icea733/u2afX+9pzouOp+P6Xq/UgkSEwEAiZie0exWJWEI0VCIq6pGoIar6vc9nQYij9jC8stL+vKYHYjjR98NXn2uQiAAAgRCyRFQ0/PPQo/a1T22OTpcQGz2FudugM4KcU/DO9QNMp54nmR//5D/MwYceYEaNrjSbNm1KS89mzZo1+A8hHWfUZZX2uDr+hT1Ptq/nO49SCBIRAgOJmJ3Q7lUkYgmRi0RUNMedHpahnmbR4QixUXvo2HeInUPT125IcaLvja8+1yARAQACIXSJSKon+pZ560nxM2dZN3PyGUfYHoN9+/UwTzzxREr9VScfMlHo+H2i19Hr6XX1+r7zCjlIRAgMJGJ2QrtXkYglRK4SkVRPdEm99YSEkKTaJxIRACAQkIillehb5q0nxYt6ArZsc5T5yU//01wxZWJ6aHJt5Esm6vUmX3G5fX2dRyn1TEQiQmAgEbMT2r2KRCwhkIj5i3tyNb3vSKhR+/TV5xokIgBAICARSyvRt8xbT4qTbkNOM//yL98yI0cPTym9+uNkor7mysjRFfZ8dF6+8w0tSEQIDCRidkK7V5GIJQQSMX+JLmc6vvWEFDtJtU0kIgBAICARSyvRt8xbTwqbW+7vZQ467Nfm9NYt7ENQ8kG+ZKLO5/TWJ9vz03n6zj+UIBEhMJCI2QntXkUilhBIxPzE9UJ0oTciCTFqm776XINEBAAIBCRiaSX6lnnrSeFSObW92XXXXc21065Kabv8oWHNGt6s73OuMvHaaVfb89T5+t5HCEEiQmAgEbMT2r2KRCwhkIj5SXQpd4pvO0KKmaTaJRIRACAQkIillehb5q0nhcmFvVqYX//ml/YpyUmSL5mo89T56rx976fYQSJCYCARsxPavYpELCGQiLknsxeiC70RSWhRu/TV5xokIgBAICARSyvRt8xbT5JP63ObmeYnNjMffvhhStElTz5kos5X563z972vYgaJCIGBRMxOaPcqErGEQCLmnugymm//+3fTP5923+Nn6WXf9oQUK0m1SSQiAEAgIBFLK9G3zFtPko2eety67akpLVd4nEzM5SnOZ0bnr/fhe3/FChIRAgOJmJ3Q7lUkYgmBRMwtrhei63WoZX0dM3+plYn0RiQhxbXPfAeJCAAQCEjE0kr0LfPWk+SiHnwScOWA3kdIPRKRiBAYSMTshHavIhFLCCRibsmUhNElrVaWTIyXCSlmMttnvoJEBAAIBCRiaSX6lnnrSTLRXIIaClxO6P2EMkciEhECA4mYndDuVSRiCYFEzG+iS+qtJySEJNU+kYgAAIGARCytRN8ybz3Jf/RUYz2UpJBzIBYCvR+9rxCe2oxEhMBAImYntHsViVhCIBHzm+iSeusJCSFJtU8kIgBAICARSyvRt8xbT/KbW+7vZXbdddfEn8JcLPS+9P70Pn3vv1BBIkJgIBGzE9q9ikQsIZCI+U10Sb31hISQpNonEhEAIBCQiKWV6FvmrSf5zUGH/dpcO+2qlHIrT66ddrV9n773X6ggESEwkIjZCe1eRSKWEEjE/Ca6pN56QkJIUu0TiQgAEAhIxNJK9C3z1pP8pduQ083prVukVFt5c3rrk6P3e5r3OhQiSEQIDCRidkK7V5GIJQQSMb+JLqm3npAQklT7RCICAAQCErG0En3LvPUkP7lz/QDzL//yLfPiiy+mNFt5o/ep96v37bseSQeJCIGBRMxOaPcqErGEQCLmN9El9dYTEkKSap9IRACAQEAillaib5m3nuQnLdscZUaOrkgptsaB3q/et+96JB0kIgQGEjE7od2rSMQSAomY30SX1FtPSAhJqn0iEQEAAgGJWFqJvmXeepJ75izrZn7y0/9MqbXGhd633r/vuiQZJCIEBhIxO6Hdq0jEEgKJmN9El9RbT0gISap9IhEBAAIBiVhaib5l3nqSe04+40hzxZSJKa3WuJh8xeXR+z/Ce12SDBIRAgOJmJ3Q7lUkYgmBRMxvokvqrSckhCTVPpGIAACBgEQsrUTfMm89yS2aE/B73/+u+ec//5nSao0LvW+9/0LPjYhEhMBAImYntHsViVhCIBHzm+iSeusJCSFJtU8kIgBAICARSyvRt8xbT3JLp54nmT79uqeUWnH56quvzCeffGK+/PLLVE1h6NOvh7mw58ne65NUkIgQGEjE7IR2ryIRSwgkYn4TXVJvPSEhJKn2iUQEAAgEJGJpJfqWeetJbvnxT/7DPPHEEymdVjO77bab/T7o69dff23rVq5caeuUioraH8wyfvx4u+2KFSvMF198YaZOnWoWLVpk1z344IN23aBBg2y5JuLHyRW9f10H3/VJKkhECAwkYnZCu1dDk4ihnU9QIBHzm+iSeusJCSFJtU8kIgBAICARSyvRt8xbTxqe6XdebA4+9ICUSqsdJxGV7du327rLLrssXTds2DBbVxPjxo2z2y5fvtx89NFHdrlFixZ23XPPPWd69epl7r77bluuifhx8oGug66H7zolESQiBAYSMTuh3atIxBICiZjfRJfUW09ICEmqfSIRAQACAYlYWom+Zd560vCc36W5GX3ZiJRGqx1JRCcS582bZ+tOOumkdJ0k4gcffGCaNGliZaDQEGWVO3XqZMtx+de6dWu7rP0HDx5sHnvsMbvt9OnT08cZOHCg6dKli9ljjz1M27ZtzRtvvLHTccTChQvNQQcdZHbffXd73Ndff93W15VRl1Wa86Lr4btOSQSJCIGBRMxOaPcqErGEQCLmN9El9dYTEkKSap9IRACAQEAillaib5m3njQ8+/x6T7Np06aURqsdyT7JvP3339907drVPpREdaeddpr9/kgivvvuu3b5uOOOs/toG5Ul+ERc/kksalnib+zYsdWGM7vjuPVuuXnz5jsdZ926dXZZ56LX1fI+++xTr4fF6DroeviuUxJBIkJgIBGzE9q9ikQsIZCI+U10Sb31hISQpNonEhEAIBCQiKWV6FvmrScNy/KnKuxTieuDk4jdunUz++67r3nqqafs92XChAn2a30lYuZwZp9ElED8+OOPzTvvvGNfX3U7duyodpyLLrrILt988822B6J6R6r80EMP2ePWFV0PXRff9cp3kIgQGEjE7IR2ryIRSwgkYn4TXVJvPSEhJKn2iUQEAAgEJGJpJfqWeetJw3LFvA7m+BOPTemzuuEk4ty5c+33Y9KkSfarRJ6++iSinrSsckMlYqtWrew60bJlS1unB6HEj+N6H2Zm/vz5qT3rhq6HrovveuU7SEQIDCRidkK7V5GIJQQSMb+JLqm3npAQklT7RCICAAQCErG0En3LvPWkYek6+GQzcFC/lD6rG04iPvPMM/b7obLmLXTyTxLRicFDDjnE7vPKK6/Yci49ESUixV577WXr1Nswfpx27drZ5Ztuusme25YtW+wQZ/VerA8DB/ePrksL7/XKd5CIEBhIxOyEdq8iEUsIJGJ+E11Sbz0hISSp9olEBAAIBCRiaSX6lnnrScNySpsjbI/C+uAkohuirAwYMKCaRBRuDkMNe3bizycRP/nkE7usbdasWeOViIoerOJEoYZR62Et8ePMnDnTLjdr1sxcf/316dd87bXX7GvWFV2PU9oc6b1e+Q4SEQIDiZid0O5VJGIJgUTMb6JL6q0nJIQk1T6RiAAAgYBELK1E3zJvPWlYDjrsV2bt2rUpfVY3nEQUJ5xwgv2e3HHHHfY4WnYSUU9XVllx27meiePHj7dlyT/h5KAEoDtOXCJKCDopqa8bNmyw+8WPI6lZUVGR3k6ZM2eO3a4+6PV1XXzXK99BIkJgIBGzE9q9qu+Nvl+hgESsASRifhNdUm89ISEkqfaJRAQACAQkYmkl+pZ560nDsseePzIvvvhiSp/ln3/84x/2ASh1QT0SNbQ5jpOIrVu3tj0PX3755fSw5mxIJm7fvt2+dkPQ9dB18V2vfAeJCIGBRMxOaPcqErGEQCLmN9El9dYTEkKSap9IRACAQEAillaib5m3njQs39nt38yHH36Y0mfhEZeIhULXQ9fFd73yHSQiBAYSMTuh3atIxBICiZjfRJfUW09ICEmqfSIRAQACAYlYWom+Zd560rB861v/x/bcC5VPP/3UjBkzxg6XLhS6HrouvuuV7yARITCQiNkJ7V5FIpYQSMT8Jrqk3npCQkhS7ROJCAAQCEjE0kr0LfPWk/pn846JZtddd02pM4ij66Lr47tu+QwSEQIDiZid0O5VJGIJgUTMb6JL6q0nJIQk1T6RiAAAgYBELK1E3zJvPWlYQu+JWAzoiQiNGCRidkK7V5GIJQQSMb+JLqm3npAQklT7RCICAAQCErG0En3LvPWkYQl9TsRiwJyI0IhBImYntHsViVhCIBHzm+iSeusJCSFJtU8kIgBAICARSyvRt8xbTxqW+j6ded9997Xfg/POOy9VU8VLL71kpkyZYjZt2uQtF4IFCxaYq6++OlVqODydGRoxSMTshHavIhFLCCRifhNdUm89ISEkqfaJRAQACAQkYmkl+pZ560nDctBhvzJr165N6bOaefzxx+31d/nkk09Sa4xZvny5rZs0aZK3XAgOOeQQ+5q5ouuh6+K7XvkOEhECA4mYndDuVSRiCYFEzG+iS+qtJySEJNU+kYgAAIGARCytRN8ybz1pWE5pc4SZO3duSp/VzLBhw+z132effexX98Rk9Tp0Ak/rrrrqqmpl9RD84osvzMiRI81ee+1l07t3b/P555+bjz/+2DRr1sz06dPHdOrUya7r1q2bWbdunWnSpIkt33TTTfZ1JPdUN2HCBNOqVSu7btCgQfY448aNM7vttpt9zZYtW9p5DdevX297TO6+++6mRYsW5p577rHHqQ1dD10X3/XKd5CIEBhIxOyEdq8iEUsIJGJ+E11Sbz0hISSp9olEBAAIBCRi2Jm1uHO1cvQtq1a+ZMDx1cqkfuk6uIUZOKhfSp9l56uvvjJ77LGHvf4rV660X9u0aWPXvfrqq+a4446zdfvvv7+57rrrqpUXLVpkJZ/KEn+q03Lnzp3NBx9UfdhSJPvcsuJeT3nnnXfM3XffnS47kamMHTvWXHPNNWmJeMEFF9hekjqe0qNHD/tV6z/66CN7zjWh63Hp4FO81yvfQSJCYCARsxPavYpELCGQiLllzPyl1crRJa1WPrvnoGplQoqZzPaZryARAQACAYkYdiQJ/+un30vLxOhblq7XMhIxt1wxr4M5/sRjU/osO+rVp+stcahefk7YSQKK2oYzOyG4detW8/LLL6f3f+utt+xXScEvv/zSTJ8+3ZbVK1G0bt3alrds2ZKWiKoTDzzwgC1rnkYRH868bds2uyxpOW/ePNsLUV9fe+01u74mdD10XXzXK99BIkJgIBGzE9q9ikQsIZCIuUWScPc9fpaWidElTddrGYlIQoprn/kOEhEAIBCQiOEn+jbZSCa65d2++3/tV9/2pO5Z/lSF+d73v5vSZ9nR8GNd7xNOOMGMHj3ayjmVJeZETRJRclDLvjz11FP2q3ouCicKJ0+ebMvqrajyxo0b0+vcw1O+/vprW5aQFJlzIp500km27KKhzfF5HLOh66Hr4rte+Q4SEQIDiZid0O5VJGIJgUTMPdFltJFMdMvf/vfv2q++7QkpVpJqk0hEAIBAQCKGH9frMDP0QsxP9vn1njU+RVkS0PUczIzmGhS19UR0+2/evNk888wz5uGHH7bzHu7YscPW1yYRdX5uXfv27e069SpUWb0YRVwivv3227b3pOZt1FyMrifkzTffbNdnQ6+j6+G7TkkEiQiBgUTMTmj3KhKxhEAi5h7X6zAz9EIkoUXt0lefa5CIAACBgEQsjUTfqp3i247UP+d3Od6MuqwypdF2xs2BqAegSAAqTzzxRPr7IBG4YsUKu6yHmmjIcma5Xbt2ttylSxczdepUu6xhyO+9955drk0iSj66dYp6Qzpp2L17d7vt4YcfbsvqHfn000/bZT2IZcmSJebiiy9Or6uJUaMro+vR3HudkggSEQIDiZid0O5VJGIJgUTMT6JLuVN82xFSzCTVLpGIAACBgEQsjWT2RqQXYv4y/c6LzcGHHpDSaDvjRJ4emBJH8yOq/vrrrzfvvvtu+oEpEnyZ5TfeeMN07NjRlhX1DNQQZfdglebNm9tjSvipXJNEPOigg+xXRSJR8yqKiRO/kc3qPdm/f/90WZHIVH1N6DroeviuUxJBIkJgIBGzE9q9ikQsIZCI+Ulmb0R6IZIQo7bpq881SEQAgEBAIpZOom9XOr71pOH58U/+w/YuzBVJwc8++yxV2rn88ccfmxdeeME+nKW+OImoJzHrmL6HpOj46t3o+Pvf/26efPJJ88UXX6RqsqP3r+vguz5JBYkIgYFEzE5o9yoSsYRAIuYv0eVMx7eekGInqbaJRAQACAQkYunE9UakF2L+06nnSaZPvx4pnRYmcYmYBH2j96/r4Ls+SQWJCIGBRMxOaPcqErGEQCLmL643Ir0QSahR+/TV5xokIgBAICARSyvRt8xbT3LLnesH2KcSN6SHYKHYtm2bGTNmjB0GnW/0vvX+dR181yepIBEhMJCI2QntXkUilhBIxPwmuqTeekJCSFLtE4kIABAIoUtE9brrPqiNOaLpAfaXEiHlED2kRVm9enVK4xWXK6ZMNCefcYT3HkwySEQIDCRidkK7V5GIJUSuEvGcXoNNx75DzCFNjo7fn6SR5+CoPRx0ZFMzZv5Sb7shxYm+N776XINEBAAIhJAlYo/BZ9lfRCNGjAhGtgDkA7VnRSJR7bvY/OSn/2nmLOvmvQ+TDBIRAgOJmJ3Q7lUkYgmRi0Ts1HeIvR/5LAiZuM9SRzY9xlzYb4i3/ZDCR/errz7XIBEBAAIhVIl4eNP9zbDhA1MfEwDKF/1hJJlYLEaOHm5atjnKex8mHSQiBAYSMTuh3atIxBKioRJRPc2GDq9M/bYCyM6QikrbXnztiBQ20S3vrc81SEQAgEAIUSKqB+LwyqGpjwUA5Y9EYjF6JL744ovmX/7lWwWfC9EFiQiBgUTMTmj3KhKxhGiIRFQPRAQi1IeKqL3QI7H4iW55b32uQSICAARCaBJx1uIu5qijD019HABoPES3Y8FF4umtW5huQ07z3ouFCBIRAgOJmJ3Q7lUkYglRX4k4fsGfzBFNj0n9pgKoO1Fz48nVRY6+B776XINEBAAIhNAk4qFH/Zo5b6BRUujeiNdOu8ocdNivvfdhoYJEhMBAImYntHsViVhC1FciHhj9buCzIDQEfY76Yx96IxYz0S3vrc81SEQAgEAITSLqKcx8cITGiNp9oeZG3LRpk9l1113NLff38t6HhQoSEQIDiZid0O5VJGIJUV+JqKcw81kQGoLaDXMjFjfRLe+tzzVIRACAQAhNIkanlPoYAND4KET7//DDD82vf/NLUzm1vfceLGSQiBAYSMTshHavIhFLiPpKxGiX1G8sgPqj9uNrV6QwSer6IxEBAAIBiQgQDoVo/81PbGYu7NXCe/8VOkhECAwkYnZCu1eRiCUEEhEKidqPr12RwiSp649EBAAIBCQiQDgk3f5btz3VtD63mffeK0aQiBAYSMTshHavIhFLCCQiFBK1H1+7IoVJUtcfiQgAEAhIRIBwSLL9n9n2VNOyzVHe+65YQSJCYCARsxPavYpELCGQiFBI1H587YoUJkldfyQiAEAgIBHrxyeffGK2bt1q3nnnnVQNFJKvvvrKfg++/PLLVE15kUT71xyIGsIcUg9EFyQiBAYSMTsh3qshnRMSsQaQiFBI1H587YoUJkldfyQiJIr+KCEkl6SaUqNA79f3x32xEp1S6iNAeFx11VX2/FyaNGlili5datc9+OCDtm7cuHG2XK48//zz9n02bdo0VZMsX3zxhZk6dapZtGiRLbvrPGjQIFsuN/Te8omewqyHqIQyB2JmGtvPWwgeJGJ2QrxXQzonJGINIBGhkKj9+NoVKUySuv5IREiU0KQIKa0gEYub6JRSHwHC4pFHHrHntscee5gpU6aYyspKW1Zef/11s3r1ars8atSo1B7liZOIEqiF4KOPPrKv16JFC1t+7rnnTK9evczdd99ty+WG3mu+uHbaVWbXXXcN4inM2YJEhMBAImYnxHs1pHNCItYAEhEKidqPr12RwiSp649EhERBIpJcgkQsbqJTSn0ECIt58+bZcxs4cGCqxpgJEyaYtm3bWsHoJOIFF1xgmjVrZnbffXdz0UUX2aG34v7777fiTfUnnXSSmTt3rq3fsGGDrb/66qvNaaedZnsyqvfdyJEjzV577WXTu3dv8/nnn9vtHe+9957dT/s4BgwYYOsk+iQ2W7VqZXbbbTf7mt26dUufyzXXXGO3e/zxx235pptusuX169d7zydObRKxptcVM2fONPvvv7/ZZ5997Pt64YUXbH2269O6dWv7ejre4MGDzWOPPWa3mz59ul1f0+vNmTPHfi8kfbXPQQcdZGbNmmXXhUo+2v+LL75oTm/dwhx02K/NLff38t5noQSJCIGBRMxOiPdqSOeERKwBJCIUErUfX7sihUlS1x+JCImCRCS5BIlY3ESnlPoIEBYaFqpzU4477jhzxRVXmCeffDK11qQloiJJ5pY1BPof//iHlVwqSzq6ZfWqW758eXpbRfJQ4k7LEojuWJ07d0690jcccsghdt327dvtHIE6rnpKannfffe16/RVck3LHTp0sPv16dPHlteuXWvLY8aMseVly5Z5zydOTRLxn//8Z42ve/vtt9uyztNtp/dQ0/Xp1KmTXdaxxo4dW204c22vp3NX2a13y++++65dHyI6v1wYObrC/Mu/fMt0G3K69/4KLUhECAwkYnZCvFdDOickYg0gEaGQqP342hUpTJK6/khESBQkIsklSMTiJjql1EeA8FCPNie4XE444QQr7ZxEVM83cc8999iyht6+8cYbZvTo0Wbx4sXmqaeesvMJat3KlSvT0k7CcN26dXZfiUDV6QEuL7/8cvo1P/30U7veobkCVT9t2jTbg1DL6ikpOahlyc6vv/7a7ueO8f7779dJIsbPJ05NErG211UPQy0//PDDdn3Hjh3t9VPPuWzXJ3M4c1wi1vZ6TiI6Eap9VJbMDBWdX32RTL1iykTzk5/+p3368p3rB3jvrRCDRITAQCJmJ8R7NaRzQiLWABIRConaj69dkcIkqeuPRIREQSKSXIJELG6iU0p9BAgTDTXWsF/Nfeh6vml+PicRKyoq7HabN2+25a5du1rJo2G2KscTl4humLSEZOZ2LhKKcVRWvQSb670oQafhyVqO9yJ0Ak9DmDMl4mWXXWbLcYkYH7YdpyaJWNvrSkxqWT0P49R0fWqSiLW9npOIOo7QEG2Vb775ZlsOEZ1fXXniiSdMn37dzfe+/11z8hlHmjnLunnvqZCDRITAQCJmJ8R7NaRzQiLWABIRConaj69dkcIkqeuPRIREQSKSXIJELG6iU0p9BAgLzSOoHoJurj4xY8YMe749evTY6cEqcYl455132uWWLVvaIbqqUzkuEdUb0OF60+kYzzzzjBWD6hWYOS+ikMzTthoWrPNTjzzJQNW1b98+tdU3vRs1h+CQIUPssl5baKi0ynGJGD+fODVJxNpeV3MXavnNN9+063T9JPoWLlxo633XpyaJWNvrOYm4Zs0au64cJKKG1Y++bIQ5+NADzI9/8h+mU8+TSqrnYWaQiBAYSMTshHivhnROSMQaQCIWj6+++srOFa3/pG4sqP342hUpTJK6/khESBQkIsklSMTiJjql1EeAsHBDZxXN03f55ZenZZ8kWE0S0Umyiy++2CxZsiS934oVK7zSrl27drauS5cu6SHLmtNPHwQzkdzUekViTXzwwQfp11CPwvPOO88uH3744Xa9HjiisuZbdHMOKvWRiDq+xF48koM1ve4NN9hf+lYmjh8/3i5r6HJN10cffLWsXoySgXGJWNv7LFWJ+OGHH9oh3mpzktYDB/Uzx594rO1xuM+v9zTnd2lupt95sff+KbUgESEwkIjZCfFeDemc1FbUfsBDaBJR//mr19CIkvhnK/cZR59NfLjPHPqq/7QV+g9P1SluNIoeHufqFH2G02cSPRQvE/1HqNtOU7qIjz/+OF3nPtPUhBthohEKmcQ/NwlNI6OyXqO+ZLtuoaFz9LUrUpgkdf2RiJAoSESSS5CIxU10SqmPAOGh4bOa81DnqOhpv5MnT7brJKpUp7n9xJYtW2xZElEiLP6wFQk3fdXTnZ2000NDHJpDUfMFuu3Vu27jxo2ptdV57bXX0tupl5pDAs592FX0gXbbtm123TvvvFPtfNx7ikvE+PnEcR+wfZH8qul13ROl3Tq9Lw07run6CCdVdZ5O5roPwzW9noSu6h544AFbdsJ1/vz5thwiOr/v7PZvZo89f2QOOuxX5pQ2R5iug082V8zrYJY/VeG9Z0o5SEQIDCRidkK8V0M6JyRiDYQkETUtTfxzg5vaRdQ02kLE99ND7YSbEkYZNmyYrXMSUf9Rq/8gddO56D+HM3GfcRT9Z6tw4k+pi0TU/NvaVp+pMtEID63X1DuiefPmdtv6SsSarlto6Px87crl7J6DzJj5S73rSO6p7fo3NEhESBQkIsklSMTiJjql1EeAcJEMk7yrL3/961/th7C6og94L7zwgp0zMBsa7qsPdfrA6v5X3KGhK/rw+Morr+y0TuzYsWOn+QnzQU2vq7KundZn/i92TddHolHv1Udt77OUUPv33RflGiQiBAYSMTsh3qshnRMSsQZCkojuP0ud6OvevXtqTd0kohNp8+bNs3Wai9nVZUpEjZgQTz75pC2rR2ImTiLqGJKOYuLEieljOon42Wefmb59+9r/gNU6TQHz0ksv2XVOImq6Gv0Ht17HCcnHHnvMvp/p06fbclwi6jOXekhKciq9e/f2Tp0jarpuEop6Df3nr0ab6Fj6z14dS9dA6zRiRBJV59+2bVv7H+ZJofPztSvJQ637xb77edeT/CTb9c81SERIlPpIkRuWXWou7POHaln3yljvtnXJX14da7oMOsF0Hni8zbQ76j7k7K71A9L7KYs3DvRuR5INErG4iU4p9REAakPzJOp6Ke7DIZQ2+l767otyDRIRAgOJmJ0Q79WQzgmJWAMhSUQ30kMjGfRVQs7NF1gXiSgJptETGmmi/+RV3WmnnWb3yyYRFyxYkPW4TiLqGJJvQiLOHdNJREk7lTWU2I3e0PYSdU4iKvGRHfoP1szhzHGJ6B7Kp+O4/TRPto+arpt6OapOce9d0aiWd999N112DyRUdB5JoePH25OTh8q3//279EJMOJnXP19BIkKi1EeKNPn9/6R/qLhMuP4877Z1yf3Pjqh2rA49jvVu58vkuR2q7Xvl/I7e7UiyQSIWN9EppT4CQG3ow+HgwYPN0qVL0x/koLRR+/fdF+UaJCIEBhIxOyHeqyGdExKxBkKRiJ9++qk9thNg6hGnssSYqKtE7Natm+3tpzkMtb164OlrpkTU9oqWFd90Kk4iurmi3377bbuPO6YkokaNuGNoVIZGXbipXzQVjZOI1157rT2mm75F5Zokot6Llrdu3Wpefvnl9LnqOsWp7bo5idi6dWtb1jQyKusaOYkogajX1JQ67nU0IiYJdGy1o7g8dKEXYvJx1z/fQSJCotRVivz56eHVfqi4NDvpN97t6xIkYukHiVjcRKeU+ggA0PhQ+/fdF+UaJCIEBhIxOyHeqyGdExKxBkKRiIsWLbLHVs87zWHthJobRlxXiaiHnmm7SZMm2a9uqG+mRDzkkEPssSQd7733Xu9/+DqJeP/999uvmmtbX90D+yQR3XnFH/iiB/ypTsLQScRHHnnErnMP99NDW7JJRPWS1FdfJBTj1HbdnETUA+yEJKfKul5OIqp3pUNDsVXnexBMPtCxSXHju69zDRIREqWuUmTg+FY7NXiXVc+O9O5TW5CIpR8kYnETnVLqIwBA40Pt33dflGuQiBAYSMTshHivhnROSMQaCEUiuh50mZHs0pyDdZWIzzzzTHo/betEXbbhzDXhJKLmhdbxFJXff/99+1USUQ+u07LWubmfJfBUt3DhwrRE1LLQV5U1t2JNPRHda0k66j09/PDDdqqczHkRa7tuTiJKWgr30D9dh3hPRCdRJSNV9/rrr9tyvtGx1Y58PRHdOlJ6QSJCotRVivzmwJ/u9EPFpWLKmd594tn01gQ7j6Fk35LNg2xdXSXi+tfGmZtX9jRX33ZhWljWJBE11+JDL4+xefiN8el6zZs4/c6d513UvI7zV/WyQ7Pn/rmH3T9zm8yoZ+b1S7ua0dPONpNvusDMXV77fjqXhQ/2NVNu/qPdT+eyZMtg77alEiRicROdUuojQHb0AUoP0dAHrlCH8erpzC+++GKqBLWh76MenlLTQ2QaA2r/vvuiXINEhMBAImYnxHs1pHNCItZACBIx3vNOPeAkzZRmzZrZuiVLlqQlouSYhgvHo88oqpdE1GcVd6wBAwbkRSKq95+bB1EPR9HnIi27ORGd/JPQ01Q2WlY0JNhJRIm6ysrK9DBlfRatSSK619YDT6ZOnWqXNQQ5/uC7uly3+JyI6qmoHpha1jyO8TkR9TruNTNfJ5/o+PH2lCkTVY6vJ6URJCIkSl2kiORftGk6Rxz7q2rlAw//hXc/Fwmzf/vOv1bb5yd7/sBKuHhdpkSUdDun89HVtlE0N+Ooa6t+qLrEJeKee/9Hul77Xz7nfPPLfX9sy/rqtpM8PLfLzsdXDmn632b5UxXpbV0kPs/84xHeffQeL+rX3Gx8c8JO+029paN9z779ftdkbzNvRc+d9imFIBGLm+iUUh8BdkbycPbs2en/OVW0XIiHipxwwgn29fShqzbch9DrrrsuVfMNehqdO3f35LxccQ9YqaioSNXUDf2PsTsXzesj9P5cnfvgmg9uv/329HFd9EFSQ4DEZZddZus0t0+h6NCh6j9uNLdkHPf904dgh/54UJ0+oAvf+9G6Cy64wPYeEG4S8lWrVtlyXdD2vvuiXINEhMBAImYnxHs1pHNCItZACBLRPdzk3HPPTdVUMW3aNFt/3nnnpX//+6LegE4iCve58I477rBPJ9ZypkTUPrXhPotJIrp5ESXfMiXiCy+8YOWi6hSdiwSe0FOVVafhzm69eipK0rlzcxIx/nlWn0ndZxVF723jxo12O0ddrpuTiPHz02eot956Ky0R1ftQn5O0rK8bNmxIHSn/6DV87SouE33rSdhBIkKi1EWK6AnK0abpXHVrJysO43VLHxni3feSAcdX266mxCWiRJxEnm87X7JJRCcP42Vt8+CLo6tt58uP/uu7VqC6465/fVyNPTJdzrqwSXofRefm2y4eCcj4a5VKkIjFTXRKqY8AOzNjxox0+7r44ovTT5VT3BCOpIj/z21tOCH23nvvpWq+wU12rRx33HGp2txwEtF9eK0r7n+DFSc03f9YK/mUiG5ojZ7+p7mB3P+2Ky+99JKdK0j/k+5kZiHQB1+9fjaJqA/DDicR9aFduPejbfR+1B7d//yrLJyk1DxHdUXb++6Lcg0SEQIDiZidEO/VkM4JiVgDIUjEckFDhbdt25Z1JI56Dvo+f9aEPttKUjZ0NIiTiPqMq+HNOkeHk4h66IqkpmRp0qOI9Hq+duUimUhvxNILEhESpTYpsnnH5Tv1oNPw4v7jTq9W12vEKTvte/cm/9wK2RKXiOq96NsmW7JJxMw4idih57E7rfMJQh3LHXf4ldXnuFAPws4Dj/c+tVrDnbWPrt/3f/iddL1koSTjBd2bVatX2mXIx1IIErG4iU4p9RGgOvpQ4nogxkXTnXfeaUWO/hdWaLu+fftaoaPtNXmzJJVj/fr1dv4aHUf/U6xJoN38Mk8//bQVe/of0pEjR9oPPBJtIlMiSiLpdbWttnPzuuhY+t9Wt18mEnM6jm8+GEknTTytybJ1bvofZc1PI/TBTOet//nVVw0Duemmm+y6TImoJ9+pR5zOTeco+erDSURdJzc5tubPcdc5/r/fkn46nupGjBhhvvjiC/u/2zoXPUFQ5633pP/pzpxLRzjpNnDgwFTNN3PsLF682L4XHUvfH00MrmEykrF6XR1Xw4X0dELRo0cP+z/pU6ZMsdfppJNOshOQC52XvnfaR1G7cOejD9a6xnofOq77nuYiEXUtHHpKoepcD0YkYu1BIkJgIBGzE+K9GtI5IRFrAIlY3sQlYiZxiVgo9Hq+dkVKO0hESJTapMhN93W3P1xcTml3sK3XvIbx+r1+9aOd9m113mHVtvnDqfubtX+9zPbomzjn/GrrFCcRN729s7jsPfIU2ztx9faRVtzF1ym1SUQNWx55TTsze0kXc9+TFdXW6bXc3IRrnh9ljmr+62rrNd+h1p3c5ptu50p8uPPYWedUW6f5FVV/zyNDqtVrKLTbR/NExs9V5+HWlUqQiMVNdEqpjwDV2bp1q11XW+84DQHRdhJF6vWmZckkiSTNo6iy4kSiMmfOHLuvxJzK7quifUVcIjppJ6Ek6ahlySz9D65b5xuWKxmndTqWxJuWr7322tRakz5fReevr3oNDY/t06dPep3OyS0/9NBDO0lEd656j+44Go6SiZOITtQJyUDXS9Bda80FpLK+uiE6umbxOXBcvTJ27Fi7X5xMiaghPpJ0qpN8iw9ndk8kVOLvdenSpXbf+HAd97pO+LneqdrPXc/OnTvbdf3797dlXVN3XZRcJKLam+a+VK8AyU3V0ROx7kEiQmAgEbMT4r0a0jkhEWsAiVje6DPQmDFjdhoKLT799FO7TsO+C4Xaj69dkdIOEhESpTYpkjkn4RXzOqTXZQ4Vvu3BPtX2zRSBknfx9T2GV/2x7eIk4r1PDKtW75Nrmb3/apKIk268oNq+1y68qNr6vpedWm39jLsuqbZe10D1mRJRryOhqe1XPzfKvj8X95CVzPkklRNa/a8VmoseHmilqNtnxdbKaudRCkEiFjfRKaU+AlTH9fKK/09mXPap95d6qrnyRx99ZHsFOgEmOaUPMVoeNWqU3V/zsbh9nWCUQBNOzPkk4kUXVd1vN998s+1JqJ5wKkvoadJoiSb1iMvEiUP1JnzyySftclyKOun1+OOPW+npjrto0aK0RHT/y6uJq1VWT7u4RNTDZrSsY+nc3HXT+WfiJKKbg+ftt9+25+7O052b1uucJcvc5N2auNtJRPc9eeCBB2xZ35dMnHRT4gJPr6dhNz6JqHPW91R1Kjs55ySi5Jy+x/r+qay5fdyQYklnDZnR8VXWh1gJR5X1v+J6TdUruUjEzKi9uN6qSMTag0SEwEAiZifEezWkc0Ii1gASEQqJ2o+vXZHSDhIREqUmKaIHm2Q+EEUPI3HrLx16YrV1F/b9Q3qdeg3G1/lE4MK1/apt4yTiDcsurVbfpuORO+07ZFLratvUJBE3vP7NE5qVQRNaVVuv6H3GE1+nnonab/DEM6rVZ+awZvuYMTPb256U7rV0DTOHLcejdRrarB6Lbp9SChKxuIlOKfURoDoawqx16l3n6Nq1q+05p3qJKyd/JJkcGhqsOsk3J3Xc0Fc3abXiJo7WcF7hnrznk4iu92FmbrzxRiuZ1OPNh5Oemj9PItPt54ZbO4nouOKKK2xZAs9JRA31FZs2bbLlNm3aVJOIbgLtzLj3EcdJREkufZ08ebL96iSek4h6QIyTcS5xiagh4UJCT2Un2uI46SaBqO+h5K6+J5KewicR9RpC71llyVvhJKLEoHBtwH3/fXHCWMOgHW5y8UyJ6ERsXIY66ajzF+79qC2ojamHpZOjGmIvkIi1B4kIgYFEzE6I92pI54RErAEkIhQStR9fuyKlHSQiJEpNUuTq2y60P1ji0byBLplyTA8icQItszehhjJnHl+99+LbOIk4bva51eoHX37GTvtmPqwkm0T0DbPW68T3rS3u6dMSo6e1r+rFU1MkEzVk272ehlDXJBJd4u+hVIJELG6iU0p9BKiO6wmmbNmyJVX7jcyR8NEQWS1LYrl5DjXXn+q0nebr07Ke8CzUs05l9VB74okn7LKbG1BDM1T2SUQn3zSP3zPPPGPPRyJPQ3xV70RfHNfz0JdJkybZbZxE1DGFejWqrHN3EnHWrFl23a233mrL6p0Xl4ia11HL6kWn46is9b5zcu9D0kzXzIlCDZ/WV0lE9zRp9fCTuFTvS5XjElFPFhSaSFtlXc9M3PcpPidiHJ9EdD1Gs0lE19vTSUT3PrS8efNm+/41p6Tev+ZDVH1cpjqpmykRnUBW1KNVqJepyk5CuvcTnxNRMlV17gmISMTag0SEwEAiZifEezWkc0Ii1gASEQqJ2o+vXZHSDhIREqUmKdKi7e/sD5b65IY/XWr3feCFquGDLj6Zd/3SrtW2cRJRT3+O17vhxPFk9oLMJhH18JP4foqGL8f3PbPDEebi/s2zZtgVZ1bbf/6qXqb9JU2tNI0fJ57uFSdX20fXQw9m8T2ExUU9INe+dFm1/UIPErG4iU4p9RFgZyTbtF7RQzkkr1zZ9Rpzsk/rBw8enF6/Y8eOtGxTjzHNnSdJpvKQIUOsdHRDYfXUXrfsk4gzZ860y3r4x/XXX2+3UVnbxHuvxZF00zaSaJJbihNRkofCSUQdRw8S0bLy6quvpiWiXktDmV2vN80xE5eIGv7r1l111VVWMmpZ8/Vl4iSihv26eRAlH10PTV0fJwZVLxnmhg4PHz682pyIOie3TvMEZlIoiejekwTs1KlT7bK+J3oioFt37rnnpp/MrGRKROF6m0pKOhGtOGnok4jueqiHrHASUddFPS9d3BycPrS9774o1yARITCQiNkJ8V4N6ZyQiDWARIRCovbja1ektINEhETJJkX0AJRodb2jJw+7Y2T2vrv/2RHVXiPzASlOImbOI+gTkOodGN+mPhIxU1Kqx2XmNhoC7aIHoKgX4uVzzk/nlvt72e30gJkRV5+10/moN6LW3/pAn2r7aa5EDQmfdXcXO4w5c+i0hnLHzyP0IBGLm+iUUh8BdkZyy80F6CL5Jbnk5J0eXiLh5dZLAi1ZssSuExquHN9fAko9GMXy5cvTQtBJJterzg19lURUT7WKioq0rFMk7PRVTwz24Y6rHo4OvR/Xc071TiLGH/riek06iRhfJ7kVf5iLe7CKet+5+RQVyU7Nd5iJk7CSiG5eRAnAuEQUGn7tjqX5D/VV18NJs/j1ljB766237H5xbr/9drve9dLLxM1XKYm4Zs0au6zvtXjsscdsWech9H5U1nkKJxH1PtRzsmPHb3p1Swa7ib4lI933TNfdXUufRNR8kk6Kuuh66enfwr2fuETUk6VV59qik4iZyXYNhNb77otyDRIRAgOJmJ0Q79WQzgmJWANIRCgkaj++dkVKO0hESJRsUiTzacMHHPpzO5dgZroN/eaPb0VSzM1BePQJ3zzIQTm/WzOzeUfVcOe7Nw3aqSefk4jaP1OuTbn5j+lz8w2zro9E1GvH99UDYiRN3Xq9r/h6yU7NbRiv02vE5z7MHJqt66V69UiM17unNrtIJMbX33hvt2rrQw8SsbiJTin1ESA7euiIhun+/e9/T9XsjHrQScw50RRHc+lpfz1gw/HOO++Y6dOn2/ns1GvNCSH1XsuGBN727dtt7798EJ8TURJLQ7gdTiLqoSuan+9vf/tbak123nzzTSvV8oHEYOb1dhJRcxtKrumah4Jkr4Syvkdx1B4kDX0PvvGhod1qK04eJo2up+++KNcgESEwkIjZCfFeDemckIg1gESEQqL242tXpLSDRIREySZF9DCRaHU6mfIrnsynMDuhN29Fz2r1isShBFtmveIkopI55FiR7Mt8IrRLfSSicvo5h1bbX9Ly2Ba/rbavy+0P9bP7ZPY21LyQXYecaKPXia+7ZMDxdp9ZiztXq1fUW7P3qJamXfQ1U5Y+9PKYaucZepCIxU10SqmPAIVF4tD1TIv3MHQPySgEcYmYSVwihkJcIkJ+0PX03RflGiQiBAYSMTsh3qshnRMSsQaQiFBI1H587YqUdpCIkCg+KbLimeH2B0o88Z56menY6/fVtj25zUHpdRJm8XXxZA53jkvE9a+NM/+z/0+qrY8nU77VVyJqjsKa5jR0ic+HqKHJvm0yo/f156eHp/fT9fBtlxmJU7dPqQSJWNxEp5T6CFB41LtP0lDz9mnYsxsGWyg0dNk9ZCWTFStW2CG/vqHCxUI9PXVOhb5O5Yzav+++KNcgESEwkIjZCfFeDemckIg1gESEQqL242tXpLSDRIRE8UmRyqva2h8oLs1PO2CnbeK56b7u1bZX3JBmDV9Wr7vM9RJ4izcOrCYDO/T8RiIqmjvQ93CXI479lR32G6/TPIduv7hEPKTpf1c7ZjwPvjjaisv4cVzUu1LvK3MfzVmYrTekomul9xXfR++j65ATdxKfLpKOQye3Tg/1LqUgEYub6JRSHwEAGh9q/777olyDRITAQCJmJ8R7NaRzQiLWABIRConaj69dkdIOEhESpVBSRCJNAk4PF9GchPURZnogi+ZBVG/DFVsrvdvkEsnEuct7mNHTzjbXLrzILHtsaK3nd88jQ8zkuR3sE5c1f6SeNH3vE8O827royct6IIv2k6jV+1HvxvWvj/NuXwpBIhY30SmlPgIAND7U/n33RbkGiQiBgUTMToj3akjnhESsASQiFBK1H1+7IqUdJCIkSmhShJRWkIjFTXRKqY8AAI0PtX/ffVGuQSJCYCARsxPivRrSOSERawCJCIVE7cfXrkhpB4kIiYJEJLkEiVjcHN70ALN69erUxwCAxoPa/RFR+/fdF+UaJCIEBhIxOyHeq/p+hfI9QiLWQH0l4sFNjuazIDQItRu1H1+7IqUdJCIkChKR5BIkYnHTfdCZprKyIvVRAKDxoA++hx31G+99Ua5BIkJgIBGzE+K9ikQsEeorETv1HWJGjBiR+u0IUHfuX7XKHBh9tvC1K1LaQSJCoiARSS5BIhY3lww43v7xBtDYOOrow8ysxV2890W5BokIgYFEzE6I9yoSsUSor0Q8u+cgew8C1Jcjmh5jxsxf6m1XpLSDRIREQSKSXIJELH56Dm5nKioHpz4OAJQ/w4YPND0Gn+W9H8o5SEQIDCRidkK8V5GIJUJ9JaJyYb8hZkhFZeq3JEDtDB1eaS7qN9TbnkjpB4kIiYJEJLkEiRhGDm+6PyIRGgXDK4fa9u67D8o9SEQIDCRidkK8V5GIJUJDJKKiue0qhiMSoXYkEJkLsbyDRIREQSKSXIJEDCfqkXjU0YeaVatWMME2lBVqz5rvKboFG2UPRBckIgQGEjE7Id6rSMQSoaESUVGPRA1R1e9NPgtCHLWH4ZWV9uc1PRDLP0hESBQkIsklSMSwMmtxZ3PoUfvapzZHp0tIWURPYe426Aw7B6iv3TeWIBEhMJCI2QnxXkUilgi5SERFc9zpYRnqaRYdjhAbtYeOfYfYOTR97YaUV5CIkChIRJJLkIikMSdqEt56QpIIEhECA4mYnRDvVSRiiZCrRCSEECQiJApShOQSJCJpzImahLeekCSCRITAQCJmJ8R7FYlYIiARCSG5BokIiYIUIbkEiUgac6Im4a0nJIkgESEwkIjZCfFeRSKWCEhEQkiuQSJCoiBFSC5BIpLGnKhJeOsJSSJIRAgMJGJ2QrxXkYglAhKREJJrkIiQKEgRkkuQiKQxJ2oS3npCkggSEQIDiZidEO9VJGKJgEQkhOQaJCIkClKE5BIkImnMiZqEt56QJIJEhMBAImYnxHsViVgiIBEJIbkGiQiJghQhuQSJSBpzoibhrSckiSARITCQiNkJ8V5FIpYISERCSK5BIkKiIEVILkEiksacqEl46wlJIkhECAwkYnZCvFeRiCUCEpEQkmuQiJAoSBGSS5CIpDEnahLeekKSCBIRAgOJmJ0Q71UkYomARCSE5BokIiQKUoTkEiQiacyJmoS3npAkgkSEwEAiZifEexWJWCIgEQkhuQaJCImCFCG5BIlIGnOiJuGtJySJIBEhMJCI2QnxXkUilghIREJIrkEiQqIgRUguQSKSxpyoSXjrCUkiSEQIDCRidkK8V5GIJQISkRCSa5CIkChIEZJLkIikMSdqEt56QpIIEhECA4mYnRDvVSRiiYBEJITkGiQiJApShOQSJCJpzImahLeekCSCRITAQCJmJ8R7FYlYIiARCSG5BokIiYIUIbkEiUgac6Im4a0nJIkgESEwkIjZCfFeRSKWCEhEQkiuQSJCotQmRda9Mtbcsa6/uf/ZEd71Dcnaly4zG9+c4F1XKln/+jh7bXzrksrmHZcHd92QiKQxJ2oS3npCkggSEQIDiZidEO9VJGKJgEQkhOQaJCIkSjYpsvq5Uab5aQfEPxyaI479lbnvyQrv9nXNGecfbo+18MG+5vs//I6ZvaSLd7tcs/SRIWbC9efZ5Wl3XGxfK3ObhqZiahvzb9/5VzN0cmvv+nwm83386L++u9M2xQwSkTTmRE3CW09IEkEiQmAgEbMT4r0akkQU/DzLAhKREJJrkIiQKD4poh5vBx7+C3PAoT83SzYPsnV3rR9gy/sdvOdO29c1D78x3n7QvGHZpbZ8473dzJrnR+20XT4y5eY/mp/s+QO7LCGq18rcpqH5XZO9TfeKk73r8p34+0AiFh8kIoknahLeekKSCBIRAgOJmJ0Q71UkYomARCSE5BokIiSKT4rMuruL/UAocRivX7i2n2l3YRPz0MtjzKa3Jpgug0+wUku9/M7pfLT5y6tjzfrXxpnfHPhT21tvr1/9yAqwiiln2v2PbfFbe9z/2f8nZvHGgabZSb8xC9b0NvNX9TK/P2U/07Oyhfnlvj82c5f3MEefsK+5ZMDx9vjaTz0WJTH1Wl2HnJg+p8lzO1jhqfqT2xxk7n1imFmyZbB9Xb2WjjtvRU97DG3fkPOOp9vQk+xxtX7inPNN5VVtzYV9/2BOa3+I7WVZ2/H7jTnVvke9l2sXXmROaPW/djt91Xbx18p8H65H5R97HWePr+uo9+a2H3H1WfbY2ueifs0LMvQZiUgac6Im4a0nJIkgESEwkIjZCfFeRSKWCEhEQkiuQSJCovikyOCJZ1hZlVkfz7ArzrRDegeOb2UFn6TWhX3+YOcJjA5r9tz7P6wkO/2cQ21ZEk09ELU8bva5dju9hva97p6u6X0k7iTLVJY401BebaeyBJyi5WWPDzMbXh9v1+kcJNMOa7aPaX9JU3tsyT6tu+X+XtWGMzfkvOPve9HDA61k7Njr93Zod9chJ9rtNNR75qLOtR5f++o9qTejyq3OO8yKUC3rusRfy/c+tJ2E6NRbOppDmv63PY62verWTnZd/3Gnp3ssdh54fLXjJREkImnMiZqEt56QJIJEhMBAImYnxHsViVgixP/4J4SQhgaJCInhkyISV5JpmfXxqFed5JgrS/5JXDlZJqGmej1EReU7/9LfPoxEy26ItORYXCKqd6LqnSzTsVRWLz/13NPyprcvt+u03+rtI21vQNWv3DbCnHVhk/R2mcOAnURsyHm7bV3U83HUte3ssiSijq3zUrm240+/82Jbr/1V1uuorJ6X6sHo9nPJfB/aRz1BVZY4lLDUsvaX+HT7Db+yba3fw3wEiUgac6Im4a0nJIkgESEwkIjZCfFeRSKWCO6Pf0IIyTVIREgEnxQZO+sc+4FQki5e/+CLo02vEafYeskr9aBz6yTHtI+TZU4IKipr2HJNEtHJMCUu/RTJQfUwdGVtO+OuS+zxJOxU1nEl62qTiA05b1d2yZSIJ7Y+ML2ursdXb0T1SnTb/eHU/e3wbVd2yfY+lOuXVslXLUsYajme+DVNKkhE0pgTNQlvPSFJBIkIgYFEzE6I9yoSsURwvYgIISQfSf1oAcgfPikicRatMpNuvKBa/chr2lmhpV53GkarIbtu3eDLz7BDep0s03x+bp3K9ZWIEoKuLImouQVdWdtKIur8dLybV/a0cxEOmtCqVonYkPN2ZZeaJGJdj99QiRi/LnGJqAfedOhxrH0dRXND6rq4bZMKEpE05kRNwltPSBJBIkJgIBGzE+K9ikQEAACA3MkmRSS1JK/0kBPNC+hEn+Yk1Hp91dBdCUHNTSix1veyUwsqEXuPamlFnB4gsmJrpX3QiHt69JXzO9rja11cIjbkvF3ZpSaJWNfj11UiZr6PbBJRPTLVG/HuTYPstdBDa/SwFrdtUkEiksacqEl46wlJIkhECAwkYnZCvFdHpBIK/DyDfMLPHwCAQpFNiqx4ZridZy/aJJ12Fx2VfoLwn58ebp8E7NZJnEleZZNxtz7Qx0q1+DonESXD6isRNXehHmwi0amy0qHnsfb4Qye3tut0fIm1uERsyHm7sovE4OhpZ9vlS4eeaJ8K7dbV9fg+ieh7EErm+8gmEdc8P8o+aCX+un96dGh626SCRCSNOVGT8NYTkkSQiBAYSMTshHivIhGhnKE9AQAUitqkyKpnR5qFa/tZCZa5TkOINcefZNXmHVUPFil09Lo6B/XUU/mBF0anRafq3INL4kn6vPN9/GzvIzN6rXseGWLuWj+gYN8PJCJpzImahLeekCSCRITAQCJmJ8R7FYkI5YratdpTSO0bAKB8QYqQXIJEJI05UZPw1hOSRJCIEBhIxOyEeK8iEaFcif8cAgCApEGKkFyCRCSNOVGT8NYTkkSQiBAYSMTshHivIhGhHNHPnfjPIXojAgAkDVKE5BIkImnMiZqEt56QJIJEhMBAImYnxHsViQjlyEtR4j+HaFcAAElTmxTRXIh3rOtv7n92hHd9qUZPivbN89iQaP5BNydjYwsSkTTmRE3CW09IEkEiQmAgEbMT4r2KRIRyI7MXogu9EQEAkiSbFFn93CjT/LQDqv1QPuLYX9mnBfu2r0sm3XiBuXvTIO+6QqZiahv7NGc9xdm3vi5Z+sgQ+4RlLWc+NbkucU9r1gNYfOtLJUhE0pgTNQlvPSFJBIkIgYFEzE6I9yoSEcqNzF6IKrs6AABICp8UUc+6Aw//hTng0J+bJZurpJ+e+KvyfgfvudP2dc0v9/1xWrwVM79rsrfpXnGyd11dM+XmP5qf7PkDu9wQibjp7cvN7CVd8tYbslhBIpLGnKhJeOsJSSJIRAgMJGJ2QrxXkYhQTrheiK5Nu/akeonEkNo6AEB54ZMis+7uoh/EVhzG6xeu7WfaXdjEPPTyGDNwfCvTZfAJ6XUDxp2eFnPqcShRp95+Ldr+zjz44mhzYZ8/2GNKtkm6bXprgt1f5e//8DvmnM5Hm7+8Otasf22c+c2BPzX9xpxqpaPE5bULLzIntPpfu52+aju9zp+fHm57S6r+sGb7mPmretl6ff39KfuZnpUt7DHcOSrdhp5kz0MCcOKc87Oeh+p1HpVXtTV7/epHZtHD3/QYXLJlsN1fx9Hr6P1o3z/2Os4e53/2/4mZt6JnevsRV59lz0P7XNSvuR36rOHUErXLHh9W4/mGHiQiacyJmoS3npAkgkSEwEAiZifEexWJCOVE5s+bzPbEzyMAgKTwSZHBE8+wUiyzPp4OPY41p59zaLVym45H2rkTo8PaHoeSa5JivUe1tEJSEq3zwOPtNsOuONNKRslI9ciTfJNodMN8Je50DMlIlVudd5iZPLeDXR43+1zbW1KST/JQr9Oh57F23ZrnR5nr7ulql/fc+z9MxZQzq523ZKCO3bHX7+3Q7GznIdGnY2idzvmBF0anj6FzlIzUNbrl/l729bXtsS1+a6be0tEc0vS/7Xlr26tu7WTX9R93ut1Ox9fx3PvU+dR0vqEHiUgac6Im4a0nJIkgESEwkIjZCfFeRSJCOaOfR/wMAgAoBD4pIkEmoZVZH082ifinR4faD5Pqmbj2r5fZsuvRKKHohjNLAErWuf0lzyTYnFybfufFtn7Ute1see1Ll9ny0Sfsa3sO3ryyp62/55Ehtl5SUVLv8jnnp6VctvkG1QNQx9VytvNwElG9CN26eDKHM2tb9dBUWeJQ8lHLOt/4dRp+ZVt7bX0SsRTnR0QiksacqEl46wlJIkhECAwkYnZCvFeRiFDOIBEBAAqFT4qMnXWO/UC4evvIavUaltxrxCm2PlMiahiwJKKWe488xX2gNEc1/3V6KHBcIkqyqWeh21/SUNs7ueaEmrZXz0G33R9O3d9cMuB4W+9eIx71opSUcxLPl7hEzHYeTiLqydRuXTyZEjHec/P6pVVSUMsShu7cXPSamRKxpvMNOUhE0pgTNQlvPSFJBIkIgYFEzE6I9yoSEcoZJCIAQKHwSZEFa3rbD4Sa2zBeP/Kadlac6aEgkogt2x2cXtfspN9Yibjq2ZFWAGrOv5mLOlthd2LrA+02cYmo4b4aQuz2H3z5Gfbpz06uad5B1WeTiJonUduteGa43UfRPIQrt42ol0TMdh5OIt75l7pJRPVedOviElEPotG1cud47xPDbC9K9z6RiKUFEpHEEzUJbz0hSQSJCIGBRMxOiPcqEhHKGSQiAEChyCZFJOskyeYu72EfduJElx54ovWDJrSy6yX7NC9gdCgrEbWs7dxTnfUgEfVG1LIeODJkUmu7rONoKLG22/D6eCv2+l52alqu1SYR3dyL6hmp/a+c39GW9fCX+kjEbOdRm0TU66n3obarSSJqqLR6I969aZBZsbXSylY9HAaJWJogEUk8UZPw1hOSRJCIEBhIxOyEeK8iEaGcQSICABSKbFJEPfw0n1+0STrtLjoq/WRkzXUocaZ6fZV8c8OZJfpUL8kmgXbDskttvZ5erHqJQT1ZWT0T3bEl8iTZ6iIR9WASLesBK25/RXM5ql4SrzaJOHra2XY523k4iZj5hGoXPZTFvb+aJKIe9KIHrcSPr2vn3qd6bdZ2viEHiUgaU2Yt7lytHDWJamX9B0e8TEg+g0SEwEAiZifEexWJCOUMEhEAoFDUJkU0PFm9+yS9MtdpWLOG5+qhJpnrlj4yJD0XYjyaT3HTWxPssr5Kokmq+Y5Rl+hhJgsf7GtWPzfKu74uaeh5SDS6B77UFB1TD4CRkGzo+ww1SETSmCJJ+F8//V5aJkZNIl2vZSQiSTJIRAgMJGJ2QrxXkYhQziARAQAKBVKE5BIkImlsiZqBjWSiW97tu//XfvVtT0i+gkSEwEAiZifEexWJCOUMEhEAoFAgRUguQSKSxhbX6zAz9EIkSQeJCIGBRMxOiPcqEhHKGSQiAEChQIqQXIJEJI0xUVPYKb7tCMlnkIgQGEjE7IR4ryIRoZxBIgIAFAqkCMklSETSGJPZG5FeiKQQQSJCYCARsxPivYpEhHIGiQgAUChylSJ6uIoeMOJbl62elE+QiKSxJmoO6fjWE5LvIBEhMJCI2QnxXkUiQjmDRAQAKBS5SpHBE88wx7b4rXfdv33nX82CNb2960h5BIlIGmtcb0R6IZJCBYkIgYFEzE6I9yoSEcoZJCIAQKFAIpJcgkQkjTlRk/DWE5JEkIgQGEjE7IR4ryIRoZxBIgIAFIpsUmTy3A7mwMN/Yb7/w++Yk9scZO59Ypit1/Bl9bzZc+//MIc128e0bHdwWiIufLCvOaTpf9t1F/Vrbj9USiLOX9XL/P6U/UzPyhbml/v+2G47d3mP9PFbtP2dWfXsSFu/+rlRpt1FR9n6vX71IzPl5j/WWE+KGyRiWNG92X1QG3NE0wPs/UdIOUTt+dCj9jXX3d3d2+4bS5CIEBhIxOyEeK8iEaGcQSICABQKnxTZ8Pp4K+sGjm9l5q3oaWVh+0uqths76xzbw7DP6Jame8XJ9oOjk4g/2fMH5ohjf2UmXH+eOeDQn9t1kojX3dPVLksuVkw506x4Zrgtt7uwiZm9pIs5qvmvrVDUMXqNOMUe4+aVPU3XISfa7da/Pi5rvTtnUpwgEcNJj8Fn2ftixIgRZvXq1QagXFB7Vo46+lDTY1Bbb/tvDEEiQmAgEbMT4r2KRIRyBokIAFAofFJk9faRZuKc8+3yym0jzFkXNrFSUGX1Gjy3y9HpbSUQlUUPD7QfIu9/doStV+9DleMScfHGgXZd38tONT/6r++azTsut+W71g+w6//89HDTpuOR5n/2/4nt1aj11y/tata9MjZrvTsPUpwgEcPI4U33N8OGD0wpF4DypaJycNTeD/DeB+UeJCIEBhIxOyHeq0hEKGeQiAAAhcInRdTD78I+f7A9DqNNrPBzElF1E244L72teghKIlZMbWN7Grr6TW9NsPs6iaj93DpJSa3LjAThsseHpXsxqmfjgHGn232y1ZPiBolY/KgH4vDKoSnFAlD+SCQ2xh6JSEQIDCRidkK8V5GIUM6E1r4BAMoXnxSZdOMF9gOhhg5LBg6a0CotEfW135hT09u2Ou8wKxFn3HWJ3WfjmxNs/dJHhtiyTyJKUP7mwJ/anoTKAy+MNjf86VI7jFoi8aGXx5g/PTrU9B93uj3GHev6Z613xyTFCRKxuJm1uIsd4gnQ2IhuR9N5wEne+6Jcg0SEwEAiZifEexWJCOUMEhEAoFD4pEjvUS3tw0skBFdsrbTDiPc7eE+7TnMhqqyhyQvX9rNzJ0oiSgBKFKqHoMRghx7H2g+VPol47cKL7DrNh/iXV8eazgOPt8fR6zU76Tfmwr5/MA+/Md4Oq9Z2GhqdrV6yUsOj9fru+KRwQSIWN4ce9WvmP4RGieb+7D7oTO99Ua5BIkJgIBGzE+K9ikSEcgaJCABQKHxS5L4nK+yQYYk/pUPPKiE4dHJrs/ypCisYVVb0UBQ9eVn7uR6Cinosat9bH+hj5y+MS0RF8yq6bSUQ1ZNR9TMXdbZ17rVPP+fQGuun33mxrVdvRndsUrggEYsbPbUWiQiNEbV7tX/ffVGuQSJCYCARsxPivYpEhHIGiQgAUCiySRE9vES9Dd3wZEk69RrUsur0MJS1L11WbR9FD1a5e9Og9ENTaooe2qJhyutfq/6U5QdfHG3lo4Yv16WeFC9IxOImOqWUUgFofKj9++6Lcg0SEQIDiZidEO9VJCKUM0hEAIBCEZoUIaUVJGJxE51SSqcAND7U/n33RbkGiQiBgUTMToj3qr4/+p6FAj/PIJ8gEQEACgUSkeQSJGJxE51SSqcAND7U/n33RbkGiQiBgUTMToj3KhIRyhkkIgBAoUAiklyCRCxuolNK6RSAxofav+++KNcgESEwkIjZCfFeRSJCOYNEBAAoFEhEkkuQiMVNdEopnRIWn3zyidmxY0eqlD++/PJL89FHH5mvvvrKvobK0HhR+/fdF+UaJCIEBhIxOyHeq0hEKGeQiAAAhQKJSHIJErG4iU4ppVPCYPv27ea4446z56XsvvvuZvz48ebrr79ObdFwpkyZYo+5xx57mM2bN9vlioqK1Nr88MILL6TPPTNvvvmm/Xr44Yents7OggULzNVXX50qVWfWrFn2OPvuu29agr799tu2rlWrVracDyRxdcy2bdumasoPvT/ffVGuQSJCYCARsxPivYpEhHIGiQgAUCiQiCSXIBGLm+iUUjql+KhnoASfzqlFixamc+fOZrfddrPlcePGpbZqOHvttZc91ty5c80rr7xi+vbta5YtW5Zamx+ef/55+xo67/+PvX8Bsqo68P3xSk2q/nXrxntr5t5yfpMwM7e4Fe6EmWEyRAwGUIYJEkLQIJEQRgKBQAABechT3iigPCMoD0HCI0AQBMVACAgoEt4IikBAQHzFt6CIb9f/fBd7HXefXqe7T/fp02uf/nyqvtV7rf04a++zd2N/XGuv7t27l8j58+ftuopIxEaNGtltfcyfP9+uUyQUxWuvvWbLN954oy3nAycm27dvH9UUHzo/33NRrEEiQmAgEbMT4rOKRIRiBokIAFAokIikKkEi1mxSTYp0Ss2jnndqT6tWraKaL3v2SS6KV155xfa2k6RTL8W+ffta+SgWL15smjdvbnscNmnSxDRs2DAt2bp27WqPo3Tu3Nn2eGzZsqUVctpf248aNcoeTyJu9+7d9lgTJ060QrNevXp22wcffND2ANSx1ZsxEycRtW8m6k2pdU4iXrx40fTr18/KTR2/d+/e9vwkTJ08bdu2rfnss8/s9o64RNR2Fy5cKCERJSt1PgMGDLDba+i2yhKZYt68ebZ906dPt7JS7dm+fbsZOHCgvc46hnohOomonqG6Zlp388032x6V4pNPPjHjx4+37Ve0/8cff+y9nqGi8/M9F8UaJCIEBhIxOyE+q6FJRLWFewbyBRIRAKBQIBFJVYJErNmkmhTplJpHkkvtkQSMI4nmIoGnbfRTElHLEoRCQktlt94tv/XWW2bQoEF2WdJNcs0NZx4yZIh9R6LbVpEAUw9FV3a9IzPLEomZOImobe699950nnrqqVIScdq0abYskeeGcOtc5syZk5aIXbp0ySoRnRjVkOy4RNT5alnHFNpfZdfeYcOG2bISPzd9pvvcoUOHpiWiomvtrrfaJCQ7VZZAbNCggV1W71Hf9QwVtc/3XBRrkIgQGEjE7IT4rCIRoZhBIgIAFAokIqlKkIg1m1STIp1S86hnoNrz+OOPRzUl2blzp10vOSYhd+nSpbT0evfdd9MSUT/F8OHDbfmhhx6yZS1LdolsElHvItR7Bp1ElBQTei+gysuWLbPr3edm4iRiZiTuMiXiqlWrbE/Hs2fP2iHWWueEW0WGM69YscL2ytTy3r177c9cJKLOVb0JnRxUO44cOZI+jpOIWq/eheo5qWWdu66BE5DHjx83586dS18T9y5FxV3PUFEbfc9FsQaJCIGBRMxOiM8qEhGKGSQiAEChQCKSqgSJWLNJNSnSKTWP61mX2RPxxIkT5tixY2bJkiV2vZOEonXr1rZO8stJxK1bt9p1bnj08uXLbVnLZUnEeM9CJxHvuusuW3Y9Gfft22fL7v2KmTiJqM/RkGiXF154oZRE3LVrV7oHn0uuElHXRsuuJ6NPIkriqZwpESVlhWuDeOmll+yyhnD7JmvR8GrVPfvss/anL/qu9NPXUzM01E7fc1GsQSJCYCARsxPis4pEhGIGiQgAUCiQiKQqQSLWbFJNinRKzTNjxgzbHskv13vt4MGDtk7vSXRir1OnTnadcL3h9C5BJxF37Nhh1+UqEZ10E1WViBV5J6Ibcr1u3bq0DMxVIgq9V1FlRRLRnY+OITSJjMq5SETJQicRda4Od95696HreahrKXGo3pASo2+//batj1/PUFE7fc9FsQaJCIGBRMxOiM8qEhGKGSQiAEChQCKSqgSJWLNJNSnSKTWPJgRxYkqySu/e07IiORVfLxGmyT607KRc0iSiJlNRWT0nXS9MJxG1jcoaPq394mRKxPi7CyURhRuirIlNXFsrKxEVDed2bXSf0bFjR1vWhDCzZs2yyxKjmuhFy0jE8IJEhMBAImYnxGcViQjFDBIRAKBQIBFJVYJErNmkmhTplDA4fPhwiUlRlPjw5S1btqRFoiIRp158YsKECbbuiSeesGVNUKKyk21adiLN9XDUBCJOIuqdjA4nESdNmmTLgwcPtuV8SkTNJq2yos/WeSmScFOnXv5ulMx3CmrGadW78xJTpkyxdU7wzZ07N72/enHqp+uZ6CSiJnsR2SSie7ehrrGTkvq5f/9+u+2rr75qunXrZusV9QrV9fFdz1BRO33PRbEGiQiBgUTMTojPKhIRihkkIgBAoUAikqoEiVizSTUp0ilhIUGl9xxKSGUiqXbq1Ck7TDezl17S0GQlOlcfWvfOO+9Epdz56KOPrAjMB59//rl5+eWXS80ULdTO06dPe9eFju5/33NRrEEiQmAgEbMT4rOKRIRiBokIAFAokIikKkEi1mxSTYp0CkDtQ/e/77ko1iARITCQiNkJ8VlFIkIxE9r9DQBQvCARSVWCRKzZpJoU6RSA2ofuf99zUaxBIkJgIBGzE+KzikSEYgaJCABQKJCIpCpBItZsUk2KdApA7UP3v++5KNYgESEwkIjZCfFZRSJCMYNEBAAoFEhEUpUgEWs2qSZFOgWg9qH73/dcFGuQiBAYSMTshPisIhGhmEEiAgAUCiQiqUqQiDWbVJMinVIzaGKUv/zlL+bjjz+OavLHhx9+aC5dumQnYvnggw/s5CAh4dqV64Qkld0PSqP73/dcFGuQiBAYSMTshPisIhGhmEEiAgAUCiQiqUqQiDWbVJMinVJYJPRmzZplrrjiCvfHo2nSpImddTkf3HjjjfaYPXv2NDNnzrTLW7Zsidbmh1WrVqXb7nLllVeaQYMG2ZmRy+POO++0+2zcuNHs2rXLLo8ePTpaWxIdt06dOnY5vl++OHbsWPoczpw5E9UaU79+fVtXrOjcfM9FsQaJCIGBRMxOiM8qEhGKGSQiAEChQCKSqgSJWLNJNSnSKYVl/vz59rMlESXdJBBd+cKFC9FWlePFF1+0x2rQoIF58sknzY4dO8zgwYPNiRMnoi3yw8qVK+3nNG7c2PTt29d0797dyj7VLV++PNoqO5s2bTIDBgwwR48eTUvEUaNGRWtLouMqIr5fvnjuuefs5yudOnWKao2pV6+erStWdG6+56JYg0SEwEAiZifEZxWJCMUMEhEAoFAgEUlVgkSs2aSaFOmUwqHhuK4HouSZQxJOdcuWLbPl3bt3p+WiZNbs2bPt8Gft37x5cyvSevfubXvode3a1fage/XVV9P7qH7q1KlmzZo1pmXLlvZ4e/bsset1LPVWnDx5spk3b5493vTp002jRo2sFNy+fbsZOHCgPYa2e+ONN2yb4jiJOG3atKjGmIULF9q6cePGmfPnz9vPUjuFel+qrPMUS5YssWW1K1Miqmeg2qzPHzJkiL1eTiLG9zt06JBtu3onqp1169Y1Q4cOTfeElBxs0aKF3Xf8+PGmffv2pmPHjnZdnLhEVHSdRFwiXrx40fTr189+hup17V955RVbrzZIBuvctF5SVeekdqqsNjtWr15tGjZsaNuk9ugYNYXOzfdcFGuQiBAYSMTshPisIhGhmEEiAgAUCiQiqUqQiDWbVJMinVI4zp496/5gtELQIUGo9/zpp+tNqEhEueXFixfb9ye6spNrWpY8e/31102bNm1sWaJLPR7dcOYNGzaYzZs3p/dVJNaGDRuWLkvauWUd28lOHTsTJxHVPok+iTO3/4EDB8xbb71llyXxhM5NZQk04RvO7CSielGq7M7NLYv4fpKdbr1knVt+7LHH7LZuOLL76bbLxEnEdu3a2XPWOel7iEtEyVItS7TqnLQseStZqmUl3l4lfj3ffPPN9HnqM9wx9Bk19X5Hfb7vuSjWIBEhMJCI2QnxWUUiQjGDRAQAKBRIRFKVIBFrNqkmRTqlcDiRJFGVjbvuustuM2HCBFtWzziVJbCcRJSIeu2119ISSzJKSOCpLLEnfBJRIk3tEE4iSgp+8sknaREm2XnkyBG7rF5+mTiJmBm1Sz0EKysR1ZtSy+qJqPZovcplSURtq96HblsJTSdiXdvdZ5QlEfUOSfXS1LJ6cMYlot4BOXHiRHtdli5dauv1Hcavv6Tw3Llzbdn1uFRvQ5UPHjxoevToYZc13Fs9EFu3bm3LTz31lN220Nh2eZ6LYg0SEQIDiZidEJ9VJCIUM0hEAIBCgUQkVQkSsWaTalKkUwqHJk/R50q2xXsivv3221ZmqceaerhpG0kyoe1UVpxEjEtIldXrTVREIkocOpxE3Llzpy27XoDipZdessvq3ZiJk4iSeu+9955tvxN8EneZEtGdQ3kS0U3YMmXKFLudO9+yJOLYsWPtOslLlSXrXPs0pFs4iVmeRJSM1DaK60ko1EZ3bVziEtGd5yOPPGLLGh4uevXqZcv79u1L9z7MzIoVK+y2hUaf7XsuijVIRAgMJGJ2QnxWkYhQzCARAQAKBRKRVCVIxJpNqkmRTikckmISiPrsrVu32joNndVQWtVJVg0fPtwuP/DAA3a93neosnq7Oamm9/A5VM5FIqqno6MiErFt27a2HMdJuvg7EV1PQInC999/3y6r96RwPQPLk4huWfJN6H2MKpclEV2PzbhEfOaZZ+yy6xGoiWVULk8iCvVCVNlFuCHR69atSx8rF4m4f/9++z5GLesdiXrvo3on6nwljmsCtcX3XBRrkIgQGEjE7IT4rCIRoZhBIgIAFAokIqlKkIg1m1STIp1SWNTLTp+taDZgJ6g0LFc4kSZxpslPNNmJyiNHjgxOImp7ncPNN9+clqOjR4+227ih0RpeLHmn5fIkonoMuuOobRJ1Ws5VIkrMup6EnTt3Ti9XRCJqX3fNFeGGNkv8up6iuUhEfS9uVm59d4sWLUpfk5dfftluW2j02b7noliDRITAQCJmJ8RnFYkIxQwSEQCgUCARSVWCRKzZpJoU6ZTConf9SbTp810k49Q7zaFhuPH16ql44cIFu6/K2SSierep7CZDmTVrli1rshEnESdNmmTXCScR3Xv5KioR3bDjeCT6JAw/+OADu417P6DSqlUr+9P1THTvfcyUiEI99dx+ko46rpOI8f127Nhhl/WuQnH48GFbdjJQ5+tEnUSifrp3R8bRdY/vJ1ybFKFJbVxZsleiU3HXyAngRx991JZ9ElGCVN+7k6uKjltT6PN9z0WxBokIgYFEzE6IzyoSEYoZJCIAQKHQHyWEVCXRrVQr0Pn6/rivqaSaFOmUmkHv33v22WfNuXPnzOeffx7VfsmlS5dsLzm9XzCp6Bw1JDlXNBxaw7jVK7AyaIiwJObatWvttd29e7f9vjWkuLJcvHjRTvxSVSQTT548aa9NTaLr4XsuijW17fctBA8SMTshPqtIRChmkIgAAAAQHkhEKBQSh/Gh0PqpSCrCZXQ9fM9FsQaJCIGBRMxOiM8qEhGKGSQiAAAAhAcSEQqJZoyWNNSQbQ0P1wzJ8CW6/33PRbEGiQiBgUTMTqjPakjtQiJCPkEiAgAAQHggEQHCQfe/77ko1iARITCQiNkJ9VkNqV1IRMg3oT53AAAAUFtBIgKEg+5/33NRrEEiQmAgEbMT6rMaUruQiJBvQn3uAAAAoLaCRAQIB93/vueiWINEhMBAImYn1Gc1pHYhESHfhPrcAQAAQG0lNInYuNm/me3bt0dKBaD2oPv+mtT973suijVIRAgMJGJ2Qn1WQ2oXEhHyTajPHQAAANRWQpOI/Yb/xIwdOzrSKgC1B0nE7zb9Z+9zUaxBIkJgIBGzE+qzGlK7kIiQb0J97gAAAKC2EppE/NXQ6+0fbwC1jabXftcsWN/b+1wUa5CIEBhIxOyE+qyG1C4kIuSbUJ87AAAAqK2EJhGV20Z0NKPHjojUCkDxM2rMMNN/xE+9z0MxB4kIgYFEzE6oz2pI7UIiQr4J9bkDAACA2kqIElFp3KwBIhFqBWPG3mHvd99zUOxBIkJgIBGzE+qzGlK7kIiQb0J97gAAAKC2EqpEVNQjsem1V5tt27Yw2QoUFbqfx40bZ0VFbeyB6IJEhMBAImYn1Gc1pHYhESHfhPrcAQAAQG0lZImoLFjfy1zdtL6dtTnVXEKKIpqFue/wm+w7QH33fW0JEhECA4mYnVCf1ZDahUTMwv8YN8WQ3PP/a/59bz0pP9Gtl0h850MIqd5Ejx8AVITQJSIpbFK3hLeekOoIEhECA4mYnVCf1ZDahUTMgv5AW//Sq4QUJEkXAjwvhBQ2SESAHEEiknhSt4S3npDqCBIRAgOJmJ1Qn9WQ2oVEzAJShBQySERCSC5BIgLkCBKRxJO6Jbz1hFRHkIgQGEjE7IT6rIbULiRiFpAipJBBIhJCcgkSESBHkIgkntQt4a0npDqCRITAQCJmJ9RnNaR2IRGzgBQhhQwSkRCSS5CIADmCRCTxpG4Jbz0h1REkIgQGEjE7oT6rIbULiZgFpAgpZJCIhJBcgkQEyBEkIokndUt46wmpjiARITCQiNkJ9VkNqV1IxCwgRUghg0QkhOQSJCJAjiARSTypW8JbT0h1BIkIgYFEzE6oz2pI7UIiZgEpQgoZJCIhJJcgEQFyBIlI4kndEt56QqojSEQIDCRidkJ9VkNqFxIxC0gRUsggEQkhuQSJCJAjSEQST+qW8NYTUh1BIkJgIBGzE+qzGlK7kIhZSJIUWfXn5826cy9715FkBIlICMklSESAHEEiknhSt4S3npDqCBIRAgOJmJ1Qn9WQ2oVEzEK+pcjPBt9uOvQf4M9tA03PO+8yY5YuN8uPHvfuH8/ig0+bdr36mG83u9b8z//9v9PP///91381193U3tzx4BLvfsrcnX/ytyGK2jlg1r1m8sOPmN+dPO09Bsl/kIiEkFyCRATIESQiiSd1S3jrCamOIBEhMJCI2Qn1WQ2pXeOiQAb5liKpQ1Yo/+1rXzPdx4739ixUXZ+7p9ptfPvGc80P25gHDzxd6hhjlv3Wu70vEpR9p04vdQyS/yARCSG5BIkIkCNIRBJP6pbw1hNSHUEiQmAgEbMT6rMaUruQiFmoKYnoop6JmceQXPRtmy1fr1vXrH7+bIlj5CIRXTrdPqTEMUj+g0QsTH6eupcbNmlqGjVtWuo+J7Un+v6/k7oPpq5Z571PkhAkIkCOIBFJPKlbwltPSHUEiQiBgUTMTqjPakjtQiJmobolYqOWLdP523/4x1LrlSVPP5Pe/96t20qtV0/BjoMGm2ELFppekybbY2Vuo6HS8XZkSkSJRteOf7+uuflff/d3Jda7TN3w+xLHIfkNErF60/X2ofY+HjlmjNm+fbsN1F7cPXDtddfZ+6JLAv9HCRIRIEeQiCSe1C3hrSekOoJEhMBAImYn1Gc1pHYhEbNQESmidwbO2PRHM2TufDP1sY1m9akz3u2U1CHTkajLXH/fjp2lhilPWLk6vV7vO4yv+5drvmeWHn62xDEU9WCMb6eojW59pkTsPm5Cif2VRfsOmm/+27dLbHftj9uV2o7kL0jE6ot6nA0bPTrSRwAlkUxseu11puew4d77J9QgEQFyBIlI4kndEt56QqojSEQIDCRidkJ9VkNqFxIxC2VJEcnDG3v8Kv7cpdOgSVM78UnmPvFtfBJR+VG37iW2+9Vdk2y93m0Yr1ck+jL3d2nS9oYS297U59b0uopIRGX5s8dKbKcs2n/Iuy2pepCI1RMJxFFjxka6CCA7d4wZY3oMHea9j0IMEhEgR5CIJJ7ULeGtJ6Q6gkSEwEAiZifUZzWkdiERs5BNiqw4/mc7BDi1SdZIEqpnYXy/zPXxdS4dBw4usd3PR9xh60f9ZmmJ+tY/71pq33jU8zC+vYYqu3UVlYhKkx+1LbFtWbM+k6oFiZj/aAhzk2uvjRQRQPkMHz3a/GLIUO/9FFqQiAA5gkQk8aRuCW89IdURJCIEBhIxO6E+qyG1C4mYhWxSpP2tfePPm03m0F9FojG+X3ydTyKuPfuirY9vN/DXs+06vfcwXj94zv2l9o9n3YuvlNg+/nm5SMRbhg4vsa3eu+jbjlQ9SMT8J9Us3n0IOaP7xnc/hRYkIkCOIBFJPKlbwltPSHUEiQiBgUTMTqjPakjtQiJmwSdFMocVa0KU+X/aY9f99rkT5qr//H6J9fHJSOL1evdhjwl3pvODzj8v9T5EZf6u3XbfzOHJkx9enz5utmT2ltQQbNXnIhFvvWdaiW1/0q+/dztS9SAR85vpa9eZZtddF2khgIozYvQY03lw+BOtIBEBcgSJSOJJ3RLeekKqI0hECAwkYnZCfVZDahcSMQs+KTLutyvjz5rpPnZ8ifUTVq0usf6GHj3T6+L1FYmEpNu3efuflFg3fePm9LpsyZyIxb1DMReJKMEZ37ZTQob5JTFIxPymYZOm9EKESqH7pmGTJt77KqQgEQFyBIlI4kndEt56QqojSEQIDCRidkJ9VkNqFxIxCz4poolOUqtKRD0I44mvi4vAeH15+Xaza82yZ55L7yt5F18/8sHfpNdlS2ZbNFxa9blIRPWQjG/bf8ZM73ak6kEi5jeNmiIRoXLovtH947uvQgoSESBHkIgkntQt4a0npDqCRITAQCJmJ9RnVd9ZKN8TEjELPimiWY5Tqyqc+ld/N71v5rpvNWqUjmZ0Vm/Dnw4YZCatXVfiM5Wh8xaU2PcXY8aW2iae5UePl9he72x063KRiP+v4XdKbKuemL7tSNWDRMxvUk2KlBBA7uj+8d1XIQWJCJAjSEQST+qW8NYTUh1BIkJgIBGzE+qzikRMAD4pouHLqVXpqKeeZlTOlj53T03vG98v2+zM2TLrj4+X2F/vYlx79px3W6XrqNElto/P5lxRiajZpePbKUuefsa7Lal6kIj5TapJkQ6CfPLpp5+aixcvRqXc+PDDD22SgO4f330VUpCIADmCRCTxpG4Jbz0h1REkIgQGEjE7oT6rSMQE4JMiY5Yujz9rVshlbrPmzLl0Hn7hpXR9fL9cJeLqU2dKDU/uNmacd1u9+zBz2wGz7k2vr4hE1Of9n299q8R2TX7UttR2JH9BIuY3qSZFOig/vPpqyWdYadGihZk/f7754osvzJNPPmnrJk+eHO1Rcc6ePWtmzpxp9u/fH9WEyejRl//nRP369aOaivH555+bZs3sfzubgQMHRrWX+eSTT8ysWbPMunXrbLkq1zGfqA2++yqkIBEBcgSJSOJJ3RLeekKqI0hECAwkYnZCfVaRiAnAJ0XmPfWn+LNmRduqE6fS6zPfmfizwben18Xrc5WISuaQZkUTtzywZ79dv+rPz5tRv1laSiBqKLN7H6KSKRHVm/LO1WtstK79rX1LzeysjF/xu/QxSP6DRMxvUk2KdFB+eOWVV+wxr7jiCtO3b1/TuXNnu6y6VatW2ffoaXnChAnRHhVn8+bNdt9p06ZFNeEhUarzVR566KGotmIcPXrUnl+TJk3M7t27o9rLvP/++3ZdmzZtbLkq1zGfqA2++yqkIBEBcgSJSOJJ3RLeekKqI0hECAwkYnZCfVaRiAkgmxT5fsefxZ83K+0a/6C1V7zN3rYjvV+8vjISUdHnxI/jkikO44m3QcmUiBXJ93/ascQxSP6DRMxvUk2KdFB+cBKxYcOGUY0xc+fOtXXqXefkV5cuXUzz5s3NlVdeaXr06GE++OADu632b9eunZVwWicRqXXqhdioUSO7b7169czKlSvt9gsXLrQ9/lSv9du2bbP1cc6fP2/F3LBhw0zv3r1NnTp1TIcOHWyvSTFv3jy7fvHixaZx48Zmx44dWdvhyPa5N998s63Tft27d7d1cSpyfnVTvyPnzJkT7XGZ9u3bp487YsSIcq/j4cOHTcuWLe32Wr9z505bn2/UBt99FVKQiAA5gkQk8aRuCW89IdURJCIEBhIxO6E+q0jEBJBNiqw4dsJKwNQmZSb+PkQlvq6yEnHxwadtz8L4scrKwF/PLnWMXCWiJnz53cnTpY5D8hskYn6TalKkg/JDpkTUuwH79etn68aMGZOWX0qDBg3Sy/fee6/57LPP0mJOPyXGtNy1a1fz0ksv2WHRbj8N612zZk16f0lAt3zy5En72Y633norvc4dU5FkEyNHjkzXKVu3bs3aDlHW5/bp08cuS95JWsYp7/xat778Pz+0TkIzjoSk1mmfSZMmlXkd3333Xfv5Kusc3bpTp05FR8sfOq7vvgopSESAHEEiknhSt4S3npDqCBIRAgOJmJ1Qn1UkYgIoS4qsOP7nrDM1a9KTex59rNQ+mdtkrq9oNDS5x8S7ShwvM1f95/fNgt17vftrhmXfPvGofU3a3sBszAUMEjG/STUp0kH5wUlEJS7slF27dqXll3rHiQ0bNtjygAEDbG85LUsWaljwpUuX0jJMYixzOLOTiuo5KKZOvfy3zvDhw23Z4SSi2qPJTt588830cd944420RGzbtq3tEVheO8r6XIlCLUsuZlLecd36cePGRXt8SbbhzL7ruHz55XfSSt7q+5g4caItV8f7E3Vc330VUpCIADmCRCTxpG4Jbz0h1REkIgQGEjE7oT6rSMQEUBEpIpk4dcPvbY8/CbeFew+YdS++4t0235FMnLvzT3aylz5T7jGD75trpv1+k/ntcye825Owg0TMb1JNinRQfohLRIk0CbPx48ebAwcO2PVOfmnyEaF6ldWDb8mSJXZZ2ztc77wjR46UkohOUn700Ue2rPcIqqyhv3GcRNQwYoeEoeqeeeaZtER87LHH7Lry2lHW55YlEcs7bmUkou863nWX/3+e9OrVy26bT3Rc330VUpCIADmCRCTxpG4Jbz0h1REkIgQGEjE7oT6rSMQEEJoUIcUdJGJ+k2pSpIPyQ+Zw5kyc/HITgsTl18aNG+1yp06d7Dqh9xeqTsfNlIjuHYLHjx+35WXLltmy3jMYJ94TUcOrhd476I7rJKIkniivHWV9blkSsbzjVkYi+q6jZsLWstpz7NgxKyjVC/TMmTN223yiz/HdVyEFiQiQI0hEEk/qlvDWE1IdQSJCYCARsxPqs4pETABIRFLIIBHzm1STIh2UH6oiETUBihveq/cJamZnLWuyE7FlyxZbVi9CCTwNz1VZUm/KlClpISfZGCf+TkRNrNKxY0e7rHcPfv7556UkYnntKOtzy5KI5R23LImoCVO0TvJTw6jLuo7PPvusXZY01bsV3XsR165da7fNJzqu774KKUhEgBxBIpJ4UreEt56Q6ggSEQIDiZidUJ9VJGICQCKSQgaJmN+kmhTpoPygGY91TAk2HxJgWq/39ImDBw/asuSXkCh0ok3RTMwnTpyw6yQD3SQi2l9iTb363LZKfKiww0lECTg3FFk/9+zZY9c7ifjUU0/ZsiirHWV9blkSUZR13LIkonDyU+9BLO866r2I8QlXXC/JfKNj++6rkIJEBMgRJCKJJ3VLeOsJqY4gESEwkIjZCfVZRSImACQiKWSQiPlNqkmRDgoHDTnWTMIvvviinYAkE/Xo+/DDD6OSMe+88445evSolXs+nETUOwvV8/DcuXPpYc1lUV47yvvcbJR33LLQZ2loc0U5ffq0vV7Vha6r774KKUhEgBxBIpJ4UreEt56Q6ggSEQIDiZidUJ9VJGICQCKSQgaJmN+kmhTpoOIlLhEhv+i6+u6rkIJEBMgRJCKJJ3VLeOsJqY4gESEwkIjZCfVZRSImACQiKWSQiPlNqkmRDipeLl26ZGcsXrNmTVQD+UL3j+++CilIRIAcQSKSeFK3hLeekOoIEhECA4mYnVCfVSRiAkAikkIGiZjfpJoU6SCA3NH947uvQgoSESBHkIgkntQt4a0npDqCRITAQCJmJ9RnFYmYAJCIpJBBIuY3qSZFOqj60DsA9S6/6pjYo6bQuxV1ThV5t2Ixo/vHd1+FFCQiQI4gEUk8qVvCW09IdQSJCIGBRMxOqM8qEjEBIBFJIYNEzG9STYp0UMXQrMZ16tSJSn40WYiO27hxY1u+8847bXnjxo22nAQ++eQTM2vWLLNu3Tpv+cknn7TnNHz4cFtOOidPnrTn061bt6imYmgf330VUpCIADmCRCTxpG4Jbz0h1REkIgQGEjE7oT6rSMQEgEQkhQwSMb9JNSnSQRVDElEpi0yJuGnTJjNgwAA7k3FS0AzIOoc2bdp4y5pdWef0yCOP2HLSOXHihD2/Ll26RDUVQ/v47quQgkQEyBEkYu3OgvW9SpRTt0SJ8q+GXl+iTEg+g0SEwEAiZifUZxWJmACQiKSQQSLmN6kmRTrIz7Fjx0zLli1t78MhQ4aYK664Ii0R1Ttv/Pjxpm7dujYDBw40H3/8cSmJuGTJEtOkSROze/du0717d7ssCSdWr15tyytXrsx6PA0b1jajRo0yffv2NTfeeKPp3LmzrXvppZfscbS/yg8//LAtx1m7dq1p0KCBPYd58+bZ7aZNm2bXHT582J6fzqt58+Zm586dtl4zOescVD9ixIhSZe2n48ydO9cOada+koq9e/e2n9O1a1dz5swZeywNfXbn1bBhQ3Pvvffafbdu3WrXx9E10rnpGktYbtiwwdbrms6ePTt9Hp06dTK7du0y7733nmnWrJlp3bq13UaofTq+vrts5yfUq1LtqVevnhk2bJg9PyQiACARa3kkCb/+93+dlompWyJdr2UkIqnOIBEhMJCI2Qn1WUUiJgAkIilkkIj5TapJkQ7yI2mlbSS19NMti8mTJ9uy5JjbrlevXmUOZ544caJdlnwT7dq1s2UJr2zHc70AXSTIJMq0/OCDD9rjSCyq/Pzzz9uy4/XXX0/vV79+/fRynz59zLvvvmvlmsoSbW6dBKdkp5Z1rpMmTSpVjg9nluh0++p47loNHTrUtkGyzq2TAHTbSqDG+eijj+y+Sv/+/e1P7aPz37t3r91H+3fo0MEua72QHFT52WeftULTteHNN9/Men5vv/12uqzr7ZaRiACARCTpfxQkE93yFf/zv9mfvu0JyVeQiBAYSMTshPqsIhETABKRFDJIxPwm1aRIB5Xm1Vcvr5eAUi9BSUCVnbxyQuz48ePm3LlzaWGlnoP66ZOI2lbLkodOvkkYimzHe+ONN+xPRT0OJcoOHjxoyzfffHP6OOpVl4m217qZM2fashOVkojLly+3y/369TOvvPJKWnBqm/KGM/skotr72muvmfPnz9uyevgJiVCVDxw4YCeXUa9BlTMlohtSLKm3bNky2wtRP19++WXbQ1Ht27dvn1121+bSpUvmgQcesMvqqehk46BBg8o8vzVr1thl9ZAUOg+VkYgAgEQk6V6HmaEXIqnuIBEhMJCI2Qn1WUUiJgAkIilkkIj5TapJkQ4qzapVq+z6KVOm2LKTZZKIEnla9uWFF16wP7NNrOJ6GT7++OP259SpU8s8nnop6mdcEqq3o+tBt23bNvvTDVGOo+HFWrdnzx5bloBTWRLxrrvussuZifd+zEUiqoekQ2VJUeHa6YYb33PPPbacKRGFE4wuGtosKfuXv/zFtGrVqsQ6RRLRSVa1Tb0ktazzLev83HXRkGjhrgsSEQCQiMQmdSuUim87QvIZJCIEBhIxO6E+q0jEBIBEJIUMEjG/STUp0kGlkWDSekkn4WSV64noesOph51En3rBaR8Ny1V9NokoaaiypJt+uncHZjueG3rbokULu51jzJgxJY5z+vTpaM2X3H///XadevSJhQsX2rIk4vz58+2y3rOozzty5Ij9PLWnMhJRw4odKjuJqN6SKrvzvOWWW2w5UyJq6LVknnoJqoeg65mpHoV6P6SWx44da7dTL0eVJRGFk48SrdpPwrKs85MY1jr11BRuyDUSEQCQiMQmszcivRBJIYJEhMBAImYn1GcViZgAkIikkEEi5jepJkU6qDQaeuvEnibecLLOScSOHTvasnq1zZo1yy7rvYPaT8vZJKIklsrxbUS24124cMEuZ0pESTF3nEaNGkW1JXGfpfOQIHPbSyLqHYJa1vksXrw4/d5ATcTihmSrF+GOHTtKlXORiBKYKkv8uXdAKpkS0fW41HV+9NFHTc+ePW1Z+0sEalnvktTQbHcMtUu4z1BGjx5t68o6v+eeey69TmLSCUskIgAgEUk6qdshHd96QvIdJCIEBhIxO6E+q0jEBIBEJIUMEjG/STUp0kF+NLOytlHUy03SyUlEvTOxW7du6fUSUXpnX+bEKm5YrZOIQutUd99990U12Y/negFKgmXieuTNmDEjqinN3XffbSWi2u1mWdZ7AoV6+bnh1YpknSSocFLTycF4WbMca1kSUe+LjG8nVHYS8eLFi3a2ZtWpvZKhWlaPw0w0A7bWuegzNdT70KFDtv2qk8iUNNWyei4KTRLj9pFcdZR1fk5SKuphqZ9qZy5oH999FVKQiAA5gkQkLq43Ir0QSaGCRITAQCJmJ9RnFYmYAJCIpJBBIuY3qSZFOig7knjq0efe6ZeJJJmGEjs5VVVyOZ7rXafJR3xIqKn3nmSbjufeR6ihvnH0eZoQJRP19NP5OzLLFUHyVG3QuyI1/NiJTPUG9PHee+/ZXoSSk3EkE8+ePZv1eyiLbOenodGaDKay6Dx891VIQSIC5AgSkcSTuiW89YRUR5CIEBhIxOyE+qwiERMAEpEUMkjE/CbVpEgHJQsNIXZDrTt06BDVlkaCzG3nevKpfOrUqWiL6mfz5s32c91n66d6B+ZLutYkOhfffRVSkIgAORK6RFSvuH7DbzbXNPu39C9XQpIe3c9XN61vFj7Sz3vf15YgESEwkIjZCfVZRSImACQiKWSQiPlNqkmRDkoW6pU3dOhQ+y7Ad955J6r1o154Dz74oN1eE62cO3cuWlM4NCxb7zLU8Ge9n9C9yzDp6P7x3VchBYkIkCMhS8T+I35qf/GMGzfObN++PfpVBJB8dD8rTa+92vQf3sF7/9eGIBEhMJCI2Qn1WUUiJgAkIilkkIj5TapJ0X+9AuSO7h/ffRVSkIgAORKqRGzcrIEZNWZY9OsHoHgZPXZE6n7/N+9zUOxBIkJgIBGzE+qzikRMAEhEUsggEfObVJOi/2IFyB3dP777KqQgEQFyJESJqB6IY8beEf3qASh+JBJrY49EJCIEBhIxO6E+qyGJOyRiFpCIpJBBIuY3qSZF/7VafWjosYbvVuYdgJqI5KOPPopKEBq6f3z3VUhBIgLkSGgSccH63naIJ0BtI/U4ml5DW3ufi2INEhECA4mYnVCfVSRiAqgOKbL27IveelIy6158pVqvlY697tzL3nU1FSRifpNqUvRfqtXHnXfeaT9HsxRrxuFZs2aZdevW2XVPPvmkXTd58mRbjiP5qHWNGjWKairOypUrzezZs+2yPlPHadWqlS1Xlf79+9vjaaKWzz//PKo15vnnn7f1zZo1i2pK4iZV0U83w/LWrVttnTJ69GhbV69evXSdUr9+fTN+/Hjvux/dZDEuOnbPnj3TM0hr1ur4erdNu3btzCuvvGK3qQo6nu++CilIRIAcCU0iXt30W7z/EGolevdnv+E/8T4XxRokIgQGEjE7oT6rSMQE4JMiD7/wUvxZs/lvX/uaadSypZm/a7fdpuPAwabFzR1K7ato21mbt3rXVSTjV/zO/M///b+963LJ5IfXp49TVnuVFcdO2PNcfvR4ifrfnTxt6+fu/FOJ+srmgd37zJC58+2yzvN//d3fldomX/lWo0Zm4K9ne9dlS7x91REkYn6TalL0X6rVx6ZNm8yAAQPM0aNHrdzSZ7Zp08au09+FKk+YMMGW40jQab9p06ZFNRVH4tGdm2Zy1nLz5s1tuSpISDoZqOzcuTNa86VEbNKkSVRTkvh+J0+etHVOsCqjRo2ydU4idu/e3QrBunXr2nLv3r3t+jhOIvbt29f06tXLzvqscsOGDa2ofOmly7+LtZ3bRutU16NHj+golUfH8d1XIQWJCJAjoUlEzVqLRITaiO573f++56JYg0SEwEAiZifUZxWJmADKkohD5y0wS55+xmbO9ifM3/7DP5oGTZrabeb/aU+q7slS+ypVlYgSeXc/ssG7LpdMWrvOtkXLZbVXSUvEZ4+VqFdPvrvWPGxlYry+srnjwSX2Omo5RIkYb191BImY36SaFP2Xau5MnDjRCrNDhw6Zt99+2y7ffPPNdt3atWttef369WbJkiV2effu3aZ9+/b2MyXURowYkZaIXbp0sZJPsktyyw1/1n6SaUKzGmsbzXKsesmwBQsW2HVx1KvRCbu2bdvaIdFalljs1q2b/YyWLVuaM2fO2O0lBtXTT7JOGThwoBWPPjZv3myP5URfv379ojUVk4iuXZpVWrRu3TpdlykRz58/b8vPPvusLatHYiZOIjrUe9OJxMcffzwtEZ20FSdOXP5dla2duaDj+O6rkIJEBMiR0CRiqknRrxyA2ofuf99zUaxBIkJgIBGzE+qzikRMAGVJxAkrV5eo/9ng29PSq+/U6ea/hg6zy/du3Wbl4tdTf8D/dMAgu6+TiFM3/N7Uv/q7tkdg8/Y/Mcueec7W95s+03S4baD5/k87muv/6xZb5zLt95tM4x+0tssSij/q1t3u//ffrGclV3xbFwlPfb62a/OLbmb182dLSMR4e3+95XEr2LSu2Q032l6GcYkocXhjj1+Za3/czqz68ynb/kX7DtpzadL2hvR1+L//+q9p2alr1un2IbYN372+lf2szsNHptunSGRK0Olzrvlhm3SPy5/07Zc+ns7dbd9/xkzzf771LbuPrqtv6PMvRo+xvSz1mTqWeluuOP5nu07n2PrnXc2/XPM9u67tL3vYdmrdyAd/Y6+nroH21fllti/bdu6zKxMkYn6TalL0X6m588ADD9j9NWx4x44ddlmR/FIPOi1LgMWHM0sIalnya9KkSWmJqDj5pdx7772lhjNL9Ln1Empu+a233rLrHXPmzEmLOclJJxEVfW6dOnXs8o033mi3l3RUWQLRtUE99nxIQmr9li1b7E99jtopKiIR9dn6jD59+lhJqjq1Q/tlk4gamp3tuJkSUajHoep0DZ1E1OcOGTLEClLXE1HXqaroOL77KqQgEQFyBIkIEA66/33PRbEGiQiBgUTMTqjPKhIxAZQlEYfNf8AsPXLULD38rBVyEmQ/6NzFbiOpJSmoZYmnf7+uuR0GK3GlfSURf/P0EbssqafefFf95/etkNM+kmxap/0m/u6h9Gcr8eHMXUeNtttM3/iH9D4PnX6hxPaSmKrvMeFOM2bZb2071QMvLhFdeyUXdWzJS63XEO3vd/xZWiJKct7Qo6eVegv3HkgPZ77/yV22XVqW4NSyztWdj+SmPkvXQDJR20lCxtupY90ybIT9/OkbN5c43qjFS6yIlfDTtmOWLrfrdE7aTu2RvIwfT/lB55/b7XreeZfdTt9F93ET7Dr3XfSZco/51V2T7LK+h9nbLgsjScV7Hn3Mfi/adtWfny/Rvmzb6V2Ome2oaJCI+U2qSdF/pebOqVOn7P6dO3e2wkrLit5zKMknwaUhtXGJmG04sxtqvGHDBlvWMOZsElE/xfDhw235oYcesuU4vuHMino46t2CWnY9+5xUPH78uDl37lxaQEo+xnEy0onDDh062LKEoqioRJTk02dreLe2v/vuu+3PTImo7V1blBUrVtj1cXwS8Z577rF106dPT0tEX5YvXx7tUXl0HN99FVKQiAA5gkQECAfd/77noliDRITAQCJmJ9RnFYmYAMqSiL7Me+ryuwGdlJNcU71ko+pnbPqjLUsidh873sovJ53u27HTrlt86LAVgpJVvok/JMOcRFRPOvXQkyjUcfSew8yhxe1vTf1RH8k8Rfv3nTbDKxGdnHPHUO877e8koqSc9nHn6ZOIq06csuskLN3xtd8vxoy1y4qEW6ZEVDKHM9vj/fl5W1bb3PGc3HT76XwkR13ZRZ8ryerKg++bmxaREn46b7dO1/HWe6bZno//r+F30vUa5q12PLBnf4n2lbWdq8s1SMT8JtWk6L9SK4ekmHrwde3a1cpESS2931DHde/cq4hEdJOKHDhwwJbVUy+bRNRkJEI9IFX2yTCfRGzcuLEtC5XVbvcZvkgoxtFkMKrXfhrKrSHRKrvh1hWViEuXLrXb6V2P+umGSGdKRJ2DjiXpqPdKuh6PcXwSUb0oVSeZ6ySi2vree+/Z3o3u85wMrQo6ju++CilIRIAcQSIChIPuf99zUaxBIkJgIBGzE+qzGpK40/2iewgyKEsiaoiweiHqnYgaZivBJWmlbZyU0zDhuNxy+0oitun6C/e8lsi9W7dZieiTbEpcImr4rOtRJ7nVY+JdpbbXEGN9Vma9TyL2nny3V8Y5iejihhVnSkTXLmXKukftOi2rftRvlqbXZTu/TIkYP54EqTue2uja4uLOJR59Hxp67coaXq1t9T3oumlItFunno7qsajrpd6Wrn71qTN2H/X2jLevrO1cXa5BIuY3qSZF/5VaOST7dAwJKQ2P1ay/rvfcmjVr7DYVkYhuYpWKSEQNnRa5SsT4xCoqSwYK11599rFjx8zevXvNrl27Sr0X0fU8zIz2//DDDyssEfUZbj9t62aozjacuSwyJaJmXHbnc/HiRe87Ed944w1bp/hmfM4FHcN3X4UUJCJAjiARje22rl+WtQH9Y/vqq6/a2czyiYYiXLhwwf5UV/6PPvooWgO5oPvf91wUa5CIEBhIxOyE+qwiERNAWRIx852IN/W51YopLTspN2HVarute1+fZvdVWRKxQ/8B5pv/9m0r4hSJuskPP2LWnDlXYYko4aieeur9pqG9OrYmeYlvr2G+el+fK099bKMZ/sAir0TU0Ol4ex888LQ9rpOIEmRql3rt6TpkSkT1rHSfE5eIEm8aMuzWSWpWRCLGjxeXiOoBqOvtrt2i/Ye88k4SMd5jUT0N3bXTdxWfWMVJxE5DhqbfeajoHZH6XA0Tj7evrO1cXa5BIuY3qSZF/5VaOR5++GF7DEUTp7j3CyruXYVxiai/y7QsgScZWF0SUb0OtU4TmOjvFi1nk4gdO3a0Zc1+PGvWLLus4cbxv6ck9FSvPPPMM1YEKjqm6h599NG0RJTEk7SLR+ftJKLeheiONXTo0LxIxE6dOpUQuHoXpHASUdtpG52rO368Z2Zl0XF891VIQSIC5EhtloiaOr9Fixb2MxX98pwyZYoVYVVBL7fVP1ohoX9k3AuMXfSPh/5vX1XZufPy0CFF3fr1Mx//6OSCZmPT52p2t0zi34dmV9N2rVq1suXQUNt8z0WxBokIgYFEzE6ozyoSMQHkIhH1rj1N9KFlJ+UkBCXq1ENQskviS/tKIo777eUJBfQePvVik+yT4JLAq6hElBzUBCxrz56zk57oeBoyHd/e9ZKUoNQ7DSUA1QPPJxFde3tNmmzbKwlnJyOJJKI+Q70ftdxr0pQKS0S9Y1HCVMOjJfv0Gb7zU29Fdw3KkogSsOqNqGHV6gmq66BJYNy2Lmq/PkvyVkJU4lDnqXXZJKLed3j5eq239RrOreHTWo63r6ztKhskYn6TalL0X6mVQ6JQx1AkytyEI/G/Fe666y5bJ4konLSTgHMTsmh4sDh48PKz45OIbpj0E088Ycvq+aiy712BU6de/rtTce8yzCYR1QHDTZiiSPTt27fPrnO4yU1uueWWqOYy999/v63XUG4nEX1RZwwnEYX+VlG9emu6v7UyJaL2KQ8nEV10ToMHD7Z/E4mXX365xHpF7dCs1WpvVdHxfPdVSEEiAuRIbZWI+kdMv6T1efq/P3o3hPs/M/o/ZFUh3j0+FNw/xprta9CgQfYfEJX1/ouq4t6roX/Y1C1+2LBh9uXJhWTRokW2DZKJmZQ3XCEk1Dbfc1GsQSJCYCARsxPqs4pETABlSsRVJSWihJTqF+zea6Wc5JvqXQ9BReJK4mnWHx+36zTU1q2TnHLHvGXocHPdTe3Tx44nLhFdz0EdU4n3unPRexVb3PzT9OdIdGkCFckv7adk9QUAAMd9SURBVKNt4u3tc/eXgkLiTxOIpCXi0eN2G82srH0X7tlv6zWDc1kScfHBp63QU1lt13VQm9y2LhJ9Wi9BWJZE/O1zJ6z0U1lRO33vItRnxoc+S6DqM7Qum0TUuyUlJLW9zlHt0czT2ibevrK2q2yQiPlNqknRf6UWFv2tlo/ODmWhv1tyGa6r7U+fPm17CkLF0P3ju69CChIRIEdqq0R03dvjPdL0j4LqJBfVc0/voNDMX0Ld1VV2L8bVey00U5aknP5vUL9+/ew/dBKQTkbq/+DoHxm9e8J1H9f/DdLLb/UPo5g3b54VWpodS7JL/1dO3fY1vb7aoSn93VDrw4cPW+mn42gf/V8psWfPHts2nZO2z5Sghw4dsu3Rfu5z9X/unEg8c+aMrVu4cKHtmq86tWXbtm22Xvvr8zTUQMfXfupar67/M2fOTJ+v2qb/m+WkrND5qW2Sezq3P/zhD/ZYEpm6ljqWrofeK6LtVI73Jly9erVp2LChvW7t27e311Lo+1B7tL3aqmOpDZkSMfP7cP+nUfvo/yjquGq3uwb6v3IaCqHjKvoeMt93Up2obb7noliDRITAQCJmJ9RnFYmYAPIlRTSxinrNSTyVWnf4WTssWWIvc11FsuL4n62UdBOQZIt6IUq++dZlRj0MJf586yoT9YK89/Ht6aG+EpaaWTpzO0W9/FYeP+ldF4+upYStJqTxXVdFElE9BNXTM9cJTyQMdWw3tNsls33ZtqtMkIj5TapJ0X+lAuSO7h/ffRVSkIgAOVJbJaKTTpJgcST9FNf1XsOdXb3KElrCzZqlF+hKmmlZ3eLVbd5JKw0XloByYk4/XZdyzVAm1GtPZcX1jFR0DHccCbt33323hKxz2506dSo9g5aLJFgcvetD9ZJocSTi3P9JU1d5t79knlvWkG/3LhJFYs0tP/bYY1Y8unPSezTU3V/Lkqti5MiR6e2VDRsuv4xbcfu5xM//zTfftGJRyzpvN+xcwlZtjh8n3qZMiZj5fTiJqOjz3WdKjgr3nhYdU+egZSdEC4E+z/dcFGuQiBAYSMTshPqsIhETQGhSJKnRrMjqVfiL0WPsUGT13JNU9G2bzziJ6FsXYpCI+U2qSdF/pQLkju4f330VUpCIADlSWyWiE3GPP/54VFOS8iSihJTK6kWnd3VIXrn3eMSHz7p3WOg4btIRJ7UkBp1E1Hs01AvOibWzZ8+aI0eO2GUJLr0QWMvq8ajeeHoviMqSXk4iSnxJvGXixNi4ceOimtI4SedeROzeEzJ8+PC0RNQ1U+9DnafKOnchOamyGw6g5UyJqG10Tu6lw5KB6g05d+5cW3Y9PNXbUGW976RHjx52Weeuc27durUtP/XUU/Y6aNn1lnTXvKLDmRX1ylSbtSzBK5xUPH78uH2/o/uu9L0VAn2W77ko1iARITCQiNkJ9VlFIiYAJGJ+oiHVoxYvMTf27GXf96hJSHzb5Ttjli63Q75960IMEjG/adS0qf1bACBXdN/o/vHdVyEFiQiQI7VVIqonoD4rsyfiiRMn7ExamRLRvbjXSUTJNieYFAk8n0TU0Fwtx3sHOhkmSegkohua7Hq/ifiU++6Fw5lRLzknEXUsHxJrWp/ZE1HHf+6556xMc/LSzaqs2dNUltRzEnHs2LF2nRseLcknKiIR1WtROInorusjjzxiyxrOLdz7FfWyYic2M6OXI7veh/pehIaWq1xRiRh/mbPKOp77jn2RUCwE+izfc1GsQSJCYCARsxPqs4pETABIRFLIIBHzm+80QSJC5dB90zB1//juq5CCRATIkdoqEWfMmGE/S6LKiSg325fek6j3G2pZAkq8+OKLtuwkokSafjFqqLCbtEQiSr0N49LK9drTUF+H6+2m3nUVkYiSdPPnz7fL6v0nySkBqV6Hepefk4gSjT7277/8wm7FiT4nDiVCNbOXa7N64Ak3BFqf5ySiZjwTlZGI7vwqKhHVZnddJWJ1zvp+dM4a6uxmLNM1Enp3ocoVlYjxiVVU1ncnnBg+cOCA/cy9e/fazyzUexH12b7noliDRITAQCJmJ9RnFYmYACorRdwEJNmiyVkU3zryZcq7jsUWJGJ+03nwEDNqzJjov1QBKk6z664zd6952HtfhRQkIkCO1FaJKJnlhJEEkhuerLghwa53nkSa6/nmJKKkoMrTpk1Li0K3Tr3cVJaIi7/LUMJQ0/tr2fWEq6hEfPbZZ+2y2iRR5oZjr127tlyJKJx0U1s0dNi1yU3C4oY8S7hNmTIlLTp17JqQiJJ4TpxK+Gn2ZfcdaPIWt07X0V1DxScR49+HelpqOZtEdOKyd+/eZtasWXZZQ531/shCoM/zPRfFGiQiBAYSMTuhPqtIxASQqxSR9HIzMGeuG/7AIju5ipY1G7JvJuVcotmA47MLV1fufmSDnRhFyx0HDk7P4lydKes6tv3l5VfGuOg6NG//E7Pk6WdKbZuZ+KzXOn7/GTNLbVOTQSLmP6lmRf+lClAx3N+PvvsptCARAXKktkpEodmO3aQnLvFhx+59fYqTcK5nonoCxicg0XEk3IR7n6CiXo5btmxJSztF7wPUsGnhBJje8yeySUShdwO69Yrkpt7V6CTipEmT7HY+NMOz3q3o9lU0VPm9996z69Uz0YlRF3ctNHRbZb2HUei6qdyzZ09bdseNS0QnVJ1EdOfnJKIkqHj00Udt2ScRdW6jR49Oy1zFScK33347LQcVN0TcJxHj34ebWCWbRNTEMJq12W0vmaqh1YVCn+l7Loo1SEQIDCRidkJ9VpGICSBXKXLXmoftM6jZgDPX/Z9vfcsMmTvfLudLIg6Yda93XT6j9xi2/nlXuzz/T3vMnO1Pltom3ynrOv6oW3fT8D9aWGm4aP8h0+fuqfba/u0//GN69uds0fsYr/1xO7s8Y9Mf8zoDdT6CRMx/utw+xAxP/Tc5QEVpet11puvtQ733U2hBIgLkSG2WiA6JI0lBDWHORD3XJOCyIXGmYcmZXLx4MS3VhGSiZlLWsGgNea4Kp0+ftjKuMmg/ScBs56Q2Hz161ErFUJBM1CzR7n2NDl1HTdbi+94yyfw+ykPb6zrrswuJ7n/fc1GsQSJCYCARsxPqs4pETADZpMjIB39j/v6b9WxPue9e38os2nfQPHjgaVuX2s1Krvj2mpFY9ZqhePyK31mJeNV/ft80aXuDlYHaftkzz9ltFx86nK7/drNrreyKH8ulLInoa5/q15590fYm1L5a32PiXel9bhk2wtZ9vW5dc0OPnna4tXpP6hjKz0fcYfpOnW5FnLb/7XMnbA9ArZPAk8xT/dQNv7ft/9ng2+35/t9//Vfbm9F9Tjy5XkdFErHxD1qXqFv+7DG7veuZqTbUv/q79jzVRndt4xJRYnTUb5ba7yHeo1PLbptsx+k3fabpcNtA8/2fdjT/cXMH881/+3aJ76lN11+Y7uMmpMsVDRKxeqJ3I97BsGaoACNT90nPYcO991GIQSIC5AgSESAcdP/7notiDRIRAgOJmJ1Qn1UkYgLwSZHZ2y6PctCw2nsefcxKKA2NVa85iSMJsUxpdt+OnVa0SawtPXLUSkQd4yf9+puh8xZY2dZpyFCz7sVXrJCSPJRsbH9rX7udhF38eEo2iZitfTp278l32/ZJnkmWaTv1LtRsyTreiEWLbS9ALUsgqqeehKAE39ydf7LtlkzT50i0SThKBA6ec7891rjfrrTt1rJEn5b12RJxFW1nWddR8UlERfvqev3m6SP2uG1+0c2ei47rPj8uEbW9ZKA+X9fbHedfrvme/Z7KO47W/ft1ze3sz/+v4XesnNW6VSdO2XUTVq1OH7OiQSJWXyQSm157nR2qCuBjxOjRiRKIChIRIEeQiADhoPvf91wUa5CIEBhIxOyE+qwiEROAT4r8pG8/K41cWcN7U5uaB/bst0JJAi6+vUvmcGZJLLfupj63Wrk1feMf7LEW7N5r6yX+dLxh8x9Ib+uSTSKW1T4JSgkyt67XpClWkM3Z/oSZsu5R2/vwgd377HYdB12WYvHhzE4irjj+Z3tMSUN3LLX/+v+6JS0RJdNUP2bZb60QdNu5VPY6ZpOIqpMQ7D52vJWyunaql8DVcdXD0ycRdd5ar/cwOnGofco7jtq37tzLdp16dKr3pJZHLHzQnq96faqcS5CI1ZtfDBlqv0NNmiGZiFCs3bh7QL0PdV8kZQhzPEhEgBxBIgKEg+5/QggJNCGCREwAPiminnka7uvK6jmX2tQKwFwkYnyCEk34IQmm9TpWZiT73LYu2SRiWe2T3HJtiGfh3gNWDmo7baOUJRHvffzyxANueK9b16hlSysR49fASTpXdqnsdcwmESXxJAU1lFjHycy9W7d5JaJEoGTh4Pvm2rKGX2t9RY+jaBi21qm3Zoubf2r3detyCRKxMJm6Zp1p2KSJadS0aYnvltSu6Ptv2KSpuSX2P1aSFiQiQI4gEQHCQfe/77ko1tATEQKDnojJA4mYAHxSRMOOr/lhm3RZQ4FTm9pJPXKRiPGJVZxEVM8+HUs94n538rTNtN9vMksPP5ve1iWbRCyrfRqOG39X37AFC+3x1YNPvQLVC1H1TX7UtkyJqHbpmLP++Hj6WNpH702URJSUc/XZJGJlr6NPIqod2nf6xs32/ZPqSemu34pjJ+zs0mvOnPNKRC2rV6TqNWTZvSeyosdx0fG6jhptBax6d8bXVTRIREJILkEiAuQIEhEqyueff24nXNEkMVA96P73PRfFGiQiBAYSMXkgEROAT4pIVEkUTX54vS3rPXzqgaflsuSXerjpnYRaziYR9b7E1MdaGSVZpXcXqqyef25bF31Op9uHWIHmMu+pP5XZvm5jxtl2aLi06014/5O7rDxzvefc/po4RGUNtVavQS07iahlvSdR5yC5pp542ke9CCsqESt7HSURGzRpaocXaxi23smobdVGDT12IlYiT70bNXxb6zW8OJtE1KQo2kfRxC6qq+hxXHpNmmy31zYaFh5fV9EgEQkhuQSJCJAjSMTk8Pzzz9vr06xZs6imevnkk0/MrFmzzLp162z5yScvv2dn+PDhtgz5R9fX91wUa5CIEBhIxOSBREwAPikiUdXshhvtsyYJJmmkWXy17s7Va0oItHjU2037qDeiTyK6Xnm33z8v/izbWZPddvHoc+PbKZogpKz2LXn6GSsR3Tr1tlO9hJnKiiaAcUN5Z23emhaZqlO73TBs9crT9lqn6HwkzyoqESt7HdVr0n2movaqbtWfn09vc2OPX6XX67hukhNd5+tuam+XJRH7z7gsERVNEqOJUlxZqchxXCQftZ1kaLw+lyARCSG5BIkIkCNIxOTgJGKTJk2imurl/ffft5/Xpk0bWz516pQZMGCAeeSRR2wZ8o+ut++5KNYgESEwkIjJA4mYAMqSIpJG6g2XywQay589VqFeahJi927dZif78K2vSMpqn3oOqqdjvE7DiDVTs5tIREOoXVs1kYrWx7dXVj9/1vZojL8bMddU5jpWJGq/rqHa6Ftf0VT0OLoGqVvG9uz0ra9IkIiEkFyCRATIESRicihPIr7yyiumXbt25oorrjBXXnml6du3rx1+7Jg/f75p0KCBqVevnhk4cKA5ffq0rX/88cftMbVP69atzdKlS219+/bt7efpeCNGjDCHDx+2282dO9euL+vzFi9ebJo3b25mzpxp92nYsKFZsGCBXQfZ0fX2PRfFGiQiBAYSMXkgERMAUoRUJHq3ZMP/aGGHePvWVzRIREJILkEiAuQIEjE5lCURP/vsM1O/fn27Xj8l9bTctWtXu/6hhx6yZQk/t12jRo3MRx99ZOtU7tChQ3pZvQ67d+9ul3WsSZMmlRjOXN7njR8/3pbderf81ltv2fXgR9fI91wUa5CIEBhIxOSBREwASBFSkYxYtNj0nTrdrDx+0ru+okEiEkJyCRIRIEeQiMmhLIm4c+dOu65Fixbmiy++MJcuXUoLwXfffdf2MNTy3r177fpu3bqZVq1amTNnzpiJEyea9evXm6NHj9r3LWq7rVu3lhrOHJeI5X2ek4j6KbSPypKZkB1dI99zUaxBIkJgIBGTBxIxASBFSCGDRCSE5BIkIkCOIBGTQ1kSccmSJXadk3bCicMjR46YunXr2mX1PIyjHoUahqx18ZQnEcv7PCcRdRwxe/ZsW16+fLktgx9dI99zUaxBIkJgIBGTBxIxASBFSCGDRCSE5BIkIkCOIBGTQ1kScePGjXZdp06dohpj6tSpY+vcuwu1/Je//MWumzdvnhV9q1evtvVt27a1Q5j79Oljy+VJxPI+z0nEHTt22HVIxIqha+R7Loo1SEQIDCRi8kAiJgCkCClkkIiEkFyCRATIESRicnASUcOGJfbikRx0w4mHDRtmOnfubJcbN25s933wwQdtWTJxyhT7i9IOXXYSsWfPnubRRx9NH2PLli12khQtqxejZGBcIp4/f77Mz0MiVg5dI99zUaxBIkJgIBGTR0jiDomYBaQIKWSQiISQXIJEBMgRJGJycBLRlwsXLljx58SeolmYT5w4Yfd95513bA9Gt069BjXsWKJQMza7eglJ/bz77rvtfh07drRlzbTs3oMoiSjK+rwJEybYuieeeMKW58yZY8srVqywZfCja+R7Loo1SEQIDCRi8kAiJgCkCClkkIiEkFyCRATIESRicfHpp5/aYckvvviinfAkjsovv/yyXf/5559HtZd54YUXzCeffBKVSiLRqKHNPsr6PMgd3f++56JYg0SEwEAiJg8kYgJAipBCBolICMklSESAHEEiAoSD7n/fc1GsQSJCYCARkwcSMQEgRUghg0QkhOQSJCJAjiARAcJB97/vuSjWIBEhMJCIyQOJmACQIqSQQSISQnIJEhEgR5CIAOGg+9/3XBRrkIgQGEjE5IFETABIEVLIIBEJIbkEiQiQI0hEgHDQ/e97Loo1SEQIDCRi8kAiJgCkCClkkIiEkFyCRATIESQiQDjo/vc9F8UaJCIEBhIxeSAREwBShBQySERCSC5BIgLkSGgSsXGzfzPbt2+PlApA7UH3/TWp+9/3XBRrkIgQGEjE5IFETABIEVLIIBEJIbkEiQiQI6FJxH7Df2LGjh0daRWA2oMk4neb/rP3uSjWIBEhMJCIyQOJmACQIqSQQSISQnIJEhEgR0KTiL8aer394w2gttH02u+aBet7e5+LYg0SEQIDiZg8kIgJAClCChkkIiEklyARAXIkNImo3Daioxk9dkSkVgCKn1Fjhpn+I37qfR6KOUhECAwkYvJAIiYApAgpZJCIhJBcgkQEyJEQJaLSuFkDRCLUCsaMvcPe777noNiDRITAQCImDyRiAkCKkEIGiUgIySVIRIAcCVUiKuqR2PTaq822bVuYbAWKCt3P48aNs6KiNvZAdEEiQmAgEZMHEjEBIEVIIYNEJITkEiQiQI6ELBGVBet7maub1rezNqeaS0hRRLMw9x1+k30HqO++ry1BIkJgIBGTBxIxAegPNEIKmejWSyS+8yGEVG+ixw8AKkLoEpEQUrxBIkJgIBGTBxIRAAAAAKBQIBEJITUVJCIEBhIxeSARAQAAAAAKBRKREFJTQSJCYCARkwcSEQAAAACgUCARCSE1FSQiBAYSMXkgEQEAAAAACgUSkRBSU0EiQmAgEZMHEhEAAAAAoFAgEQkhNRUkIgQGEjF5IBEBAAAAAAoFEpEQUlNBIkJgIBGTR2jijt9pAAAAAFC8IBEJITUVJCIEBhIxeSARAQAAAAAKBRKREFJTQSJCYCARkwcSEQAAAACgUCARCSE1FSQiBAYSMXkgEQEAAAAACgUSkRBSU0EiQmAgEZMHEhEAAAAAoFAgEQkhNRUkIgQGEjF5IBEBAAAAAAoFEpEQUlNBIkJgIBGTBxIRAAAAAKBQIBEJITUVJCIEBhIxeSARAQAAAAAKBRKREFJTQSJCYCARkwcSEQAAAACgUCARCSE1FSQiBAYSMZmE9HuE32kAAAAAULwgEQkhNRUkIgQGEjGZhPR7hN9pAAAAAFC8IBEJITUVJCIEBhIxmYT0e4TfaQAAAABQvCARCSE1FSQiBAYSMZmE9HuE32kAAAAAULwgEQkhNRUkIgQGEjGZhPR7hN9pAAAAAFC8IBEJITUVJCIEBhIxmYT0e4TfaQAAAABQvCARCSE1FSQiBAYSMZmE9HuE32kAAAAAULwgEQkhNRUkIgQGEjGZhPR7hN9pAAAAAFC86I94Qiqbb/z9P3rrCalool9FACGAREwmIf0e4XcaAAAAAABAFviDCQCKBSRiMgnp3yH+TQQAAAAAAMgCfzABQLGAREwmIf07xL+JAAAAAAAAWeAPJgAoFpCIySSkf4f4NxEAAAAAACAL/MEEAMUCEjGZhPTvEP8mAgAAAAAAZIE/mACgWEAiJpOQ/h3i30QAAAAAAIAs8AcTABQLSMRkEtK/Q/ybCAAAAAAAkAX+YAKAYgGJmExC+neIfxMBAAAAAACywB9MAFAsIBGTSUj/DvFvIgAAAAAAQBb4gwkAigUkYjIJ6d8h/k0EAAAAAADIAn8wAUCxgERMJiH9O8S/iQAAAAAAAFngDyYAKBaQiMkkpH+H+DcRAAAAAAAgC/zBBADFAhIxmYT07xD/JgIAAAAAAGSBP5gAoFhAIiaTkP4d4t9EAAAAAACALPAHEwAUC0jEZBLSv0P8mwgAAAAAAJAF/mACgGIBiZhMQvp3iH8TAQAAAAAAssAfTABQLCARk0lI/w7xbyIAAAAAAEAW+IMJAIoFJGIyCenfIf5NBAAAAAAAyAJ/MAFAsYBETCYh/TvEv4kAAAAAAABZ4A8mACgWkIjJJKR/h/g3EQAAAAAAIAv8wQQAxQISMZmE9O8Q/yYCAAAAAABkgT+YAKBYQCImk5D+HeLfRAAAAAAAgCzwBxMAFAtIxGQS0r9D/JsIAAAAAACQBf5gAoBiAYmYTPS9hfJd8W8iAAAAAABAFviDCQCKBSRiMkEiAgAAAAAAJAD+YAKAYgGJmEyQiAAAAAAAAAmAP5gAoFhAIiYTJCIAAAAAAEAC4A8mACgWkIjJBIkIAAAAAACQAPiDCQCKBSRiMkEiAgAAAAAAJAD+YAKAYgGJmExCkoghtQUAAAAAACAokIgAUCwgEZMJEhEAAAAAACABIBEBoFhAIiYTJCIAAAAAAEACQCICQLGAREwmSEQAAAAAAIAEgEQEgGIBiZhMkIgAAAAAAAAJAIkIAMUCEjGZIBEBAAAAAAASABIRAIoFJGIyQSICAAAAAAAkACQiABQLSMRkgkQEAAAAAABIAEhEACgWkIjJBIkIAAAAAACQAJCIAFAsIBGTCRIRAAAAAAAgASARAaBYQCImEyQiAAAAAABAAkAiAkCxgERMJkhEAAAAAACABIBEBIBiAYmYTJCIAAAAAAAACQCJCADFAhIxmSARAQAAAAAAEgASEQCKBSRiMkEiAgAAAAAAJAAkIgAUC0jEZIJEBAAAAAAASABIRAAoFpCIyQSJCAAAAAAAkACQiABQLCARkwkSEQAAAAAAIAEgEQGgWEAiJhMkIgAAAAAAQAJAIgJAsYBETCZIRAAAAAAAgASARASAYgGJmEyQiAAAAAAAAAkAiQgAxQISMZkgEQEAAAAAAAIk84+jTIk4LvoJAJA0kIjJBIkIAAAAAAAQIJKEZ1NxfyQ5iah6LSMRASCpIBGTCRIRAAAAAAAgUNwf2JKJbvnd6CcAQFJBIiYT/c+rUP4HFhIRAAAAAAAghut1mBl6IQJAkkEiJhMkIgAAAAAAQMDE/9B2AQBIMkjEZIJEBAAAAAAACBj9wRb/YzuUP+AAACoLEjGZIBEBAAAAAAACJ/7HNgBA0kEiJhMkIgAAAAAAQODojzb9oR3KH28AAFUBiZhMkIgAAAAAAAAJQH9oAwAUA0jEZIJEBAAAAAAoBB3ajTGEVDb/0ayLt56Qiib6VQQQAkjEZIJEBAAAAAAoBPoj/vChFwkhpOBBIkJgIBGTCRIRAAAAAKAQIBEJITUVJCIEBhIxmSARAQAAAAAKARKREFJTQSJCYCARkwkSEQAAAACgECARCSE1FSQiBAYSMZkgEQEAAAAACgESkRBSU0EiQmAgEZMJEhEAAAAAoBAgEQkhNRUkIgQGEjGZIBEBAAAAAAoBEpEQUlNBIkJgIBGTCRIRAAAAAKAQIBEJITUVJCIEBhIxmSARAQAAAAAKARKREFJTQSJCYCARkwkSEQAAAACgECARCSE1FSQiBAYSMZkgEQEAAAAACgESkRBSU0EiQmAgEZMJEhEAAAAAoBAkRSLe2mewady4ibnmmqbxP/BILYu+f90HS36zxnufkGQFiQiBgURMJkhEAAAAAIBCELpE7Hvr7faPudGjx5jt27fbQO3F3QPXXnudvS/69b3de9+QZASJCIGBREwmSEQAAAAAgEIQskRUj7M77hgd6SOAkkgmNmt2rRkwYKj3/iHhB4kIgYFETCYhScSQ2gIAAAAAkF9ClYgSiOp9CFAeY8aMQSQmNEhECAwkYjJBIgIAAAAAFIIQJaKGqKqHGUBFGTlyFEObExgkIgQGEjGZIBEBAAAAAApBiBIx1SzefQg5o/vGdz+RcINEhMBAIiYTJCIAAAAAQCEITSL+ZvEaO2kGQK6MHjXG9L11sPe+ImEGiQiBgURMJkhEAAAAAIBCEJpEbPzdJvRChEqh+0bv0vTdVyTMIBEhMJCIyQSJCAAAAABQCEKTiNdc0xSJCJVC943uH999RcIMEhECA4mYTJCIAAAAAACFIDSJmGpSpIQAckf3j+++ImEGiQiBgURMJkhEAAAAAIBCgEQMn08//dS8+uqr5vPPP49q8sMXX3xhLly4YH9eunTJfPTRR9Ga5KL7x3dfkTCDRITAQCImEyQiAAAAAEAhKEaJKOGm4ygPPvhgVOvnyiuvNHXq1IlKJVm8eLE9xpIlS6KawnL+/HnTs2fP9LkoXbp0Me+//360ReXZuXNn+pjnzp2zPxs3bhytLQzVcX11PN99RcIMEhECA4mYTJCIAAAAAACFoBgl4pw5c9J/BLZo0SKq9SOJqPhYtGiRPYZkV03QsWNH+/kNGjQwgwYNMnXr1rXlli1bRltUnl69etljjRo1yly8eNEMGzbM3HvvvdHawlAd11fH891XJMwgESEwkIjJBIkIAAAAAFAIilEiqkedjuOk2yuvvBKtMebYsWNWwqn34ZAhQ8wVV1yRlogaLnznnXfa/Ro1amS6d+9u95fk2rNnj2nSpImZPXu2ufHGG83kyZPNJ598YsaPH2+3VwYOHGg+/vhje6zdu3ebzp0722O3adPGbNiwwdaLlStXmlatWtl12ua5556L1nzJoUOH7GerfR988IGt07Bmd05nzpyxdQsXLjT169e3dWrztm3bbL32b968uT0ftVf7DR061A5Znjlzpj2u9tG1ePnll20bJRbFvHnz7LnqvHUt//CHP9hjSWTqmuhYffv2Nbt27bLbqRzvTbh69WrTsGFDe37t27dPX/+yrm++0PF89xUJM0hECAwkYjLR96TvLgSQiAAAAABQvBSbRDx9+rQ9huTY3XffbZfvu+++aK2xvfpUJ8Gln25ZSPS5OifrFEmuzZs3p8uK5KFEopa1rTuuRJxEnY6p9O/f3/6UtNMw5Oeff95uJznnJFrr1q3t58dZtmyZXde2bduo5jIScZ999pldXrNmjd1GkcxzyydPnrQzFbty/Fwee+wxKx7d+Xfq1Ck9/FvnIEaOHJneXolfF7efi2SsW37zzTetWNSyzle9QLVcr1492+ayrm++0PF89xUJM0hECAwkYjJBIgIAAAAAFIJik4hOHN5///3m2WeftcvuXX9Olkkwqhfhxo0bbVliTPTr18+WXW8+9ZZTOS4RJb8kyoQTaMePH7fvFXS9+w4fPpzeVjJQ8kw/1eNPx9I6tUFCT732tE69DOM4QTlu3LiopjRO0u3YscOWp06dasvDhw9PS0R9jqSmO1f1IBSSkyq/8847tqzlTImobc6ePWvfzaiyZKDaOXfuXFuWBBXqbajywYMHTY8ePezy8uXLbQ9ECVKVn3rqqTKvb77Q8Xz3FQkzSEQIDCRiMkEiAgAAAAAUgmKTiG5oryYkmTBhQvqPQcmwVatW2eUpU6bYbTX0WGUnEV3vOCf0nJCMS0S9O1BoG5V9kVB08sxFw5Y1LPn111+3Ms7VSzzec8899phxnGzM7In40ksv2eHPOpbrFehmVdYQapUl9ZxEHDt2rF3nhkdL8omKSERJTuEkonu/5COPPGLL06dPt2X3fsV9+/alxWZmVqxYUeb1zRc6nu++ImEGiQiBgURMJkhEAAAAAIBCUEwS0fU89GXatGnpobbu3X9vvPGGLTuJqPcUqixRJ/SOQ5XjEvGuu+6y64TreXjgwAH7rsW9e/faz1CPQwk9DTfWsGfXY1G9806dOmW30Tr1zHPHkOSMs3//fluvONHnxKH2uXDhQronn3pCCjcEWr0NnUSUSBWVkYiawVlUVCKqzW4yGL0jUddEvRN1vhrqXNb1zRc6nu++ImEGiQiBgURMJkhEAAAAAIBCUEwSUb3utL96C0pgKRourDoJMr2Xz0k7bePeI+gk4vz5821Zw5+1XstKNonohFnv3r3NrFmz7LJ6Qh49etQu6/iPPvqo7RWpsiTfAw88YJe7detmNm3alJ4ERkIzEyfd1GYNHXZt11Bn4YY8Syaqd6WTlWprTUhEyVR3DTURi2Zfdr0PJVbLur75Qsfz3VckzCARITCQiMkEiQgAAAAAUAiKSSI6YXXixImo5vKwYyffVK8eclpW3AzCTiK+/fbbaamnuCHJcYk4adIku63QOxYlA932knga0is087OrVyQc1ZaLFy+adu3apev12eol6UNiUTMrx4+jocrvvfeeXa+eiZoYJb5ePR+F3pOo8sSJE23ZvadRQlO448Yloq6HcBJR7zEUTiLq/YpCYlRln0SUqB09erQ9L9UpThKWdX3zhY7nu69ImEEiQmAgEZMJEhEAAAAAoBAUk0SsKJol+cyZM+aLL76Iar5EdRparG0qisSgZoV2syY7JPs0xFqTuGTy4Ycf2qHNvjZkIoknCejrrSgkAtX7UVIxFHQtNEu0e1+jozLXNxd0//juKxJmkIgQGEjEZIJEBAAAAAAoBLVRIkLxovvHd1+RMINEhMBAIiYTJCIAAAAAQCFAIkIxofvHd1+RMINEhMBAIiYTJCIAAAAAQCFAIkIxofvHd1+RMINEhMBAIiYTJCIAAAAAQCFAIkIxofvHd1+RMINEhMBAIiYTJCIAAAAAQCFAIoaPJmEZOHCgnf1Zsyprshbwo/vHd1+RMINEhMBAIiYTJCIAAAAAQCFAIobPkiVL7HUZMGCAufLKK03btm2jNZCJrpPvviJhBokIgYFETCZIRAAAAACAQoBEDJ+xY8fa67J69WrbG7FJkybRGshE18l3X5Ewg0SEwEAiJhMkIgAAAABAIUAihs+JEyfif9SaRx55JFoDmej6+O4rEmaQiBAYSMRkgkQEAAAAACgESMSw+eyzz+wwZl0XpWHDhuaDDz4wzZo1M3PmzIm2Aoeuke++ImEGiQiBgURMJkhEAAAAAIBCgEQMmxUrVthr0q5dO9OpUye7rOHM+rls2bJoK3DouvjuKxJmkIgQGEjEZIJEBAAAAAAoBEjEsOnXr5+9Jrt37zYXL1409evXt+UrrrjCnD9/PtoKHLo2vvuKhBkkIgQGEjGZIBEBAAAAAAoBEjFsNm7caK+Jeh9q+HLdunXTf+AeP3482gocui6++4qEGSQiBAYSMZkgEQEAAAAACgESMWz0TsSBAwfanoe6NldeeaUZOnSoXZZQfO+996ItQei6+O4rEmaQiBAYSMRkgkQEAAAAACgESMRk8OGHH5qzZ8+aL774IqoBH7p/fPcVCTNIRAgMJGIyQSICAAAAABQCJCIUE7p/fPcVCTNIRAgMJGIyQSICAAAAABQCJCIUE7p/fPcVCTNIRAgMJGIyQSICAAAAABQCJCIUE7p/fPcVCTNIRAgMJGIyQSICAAAAABQCJCIUE7p/fPcVCTNIRAgMJGIyQSICAAAAABQCJGLN8dFHH5kPPvggKoXFpUuXbPuShu4f331FwgwSEQIDiZhMkIgAAAAAAIUgaRLxyiuvtNtcuHAhqjGmSZMmtu7EiRNRTcXR8erUqROVsrNy5Uoze/bsqFRxTp48advWrVu3qOZLWrRoUepcKkKnTp3sfsrRo0dt3cWLF9N1jRs3tnVlsX79ervt3Llzo5ov+fTTT+26Ro0a2XKrVq1sWZ+RK2vXrk23S9eiutHn+O6r2pxevxpo41tX00EiQmAgEZMJEhEAAAAAoBAkVSKeP38+qvlSIh4/fjyqqTg6nlIeEmrltc2HxKb269KlS1TzJXPmzDEDBgwwH374YVRTMTp27GiPqTz44IO27sknn0zXVUQiPvzww3ZbtSGTzz//3LZr2rRpttyyZUu7bWUkYvv27dPtuuuuu6La6kOf47uvamMkDnU9QhWIChIRAgOJmEyQiAAAAAAAhaDYJOLOnTtt+e677zbt2rUzdevWNcOHDzcff/yx3fbYsWNWiqn34ZAhQ8wVV1yRloinT582N954oy1LxI0bN8588sknZvLkyXY7fUbbtm3NZ599Zg4fPmyPo/rmzZvbz3WsW7fONGzY0NSrV88MGzbM7ueTiP3797dt1ZDmQ4cO2ePceeedtg1q99ChQ71Dip1E1Gd3797d1k2dOjXdRicRJScHDx5sz1Xr1PazZ8/adU4ian+dh/s8na/OT+1yx86UiKtXr7bnp+skSfjKK6/Y+kzeffddu5+OrZ+6Ho7yvqeuXbva+nvuucfu16xZM7N37167riz0Ob77qrZF4vCqq64xCxf8zrs+lCARITCQiMkEiQgAAAAAUAiKTSI+8sgj7o8/K5/c8qRJk+y2DRo0sGV3HLcs2rRpY8v66fZdvHix7a3nBJ1k4FtvvZUuO8GmnDp1yrz99tvpspNnik8ixoczb9++3bvfY489Fm39JU4iOtkoJNxUVr2TiP369bNlnZ87b20vUeckolK/fv30+eh8M4czxyXirl277LK2d+3XtZJ4zGTp0qV2va69GxJ95MgRu66i35Pivit9psRkWWg7331VW5KE3ofxIBEhMJCIySWU3yVIRAAAAAAoXopVIqqHnHjiiSdsWaLs1VdftcuSYupxt3HjRlt2EnHKlCnm/vvvN2fOnLHDebVu7Nixdl18OPPy5cvtsiSdeuFNnDjRltVjcc2aNXZ5/Pjxdlv1rlO5ohJRbVPvQ9e2vn37Rlt/iZOIaq9+vv7661awqVefypKIOoaWlffff9988cUXaUmqYzuJePPNN9tjqmelK5clEXv06GGXdQ107q1bt7blp556ym4bx4nDZ555xr57UcujR4+268r6noSTiJKOkp7uc9TLsyy0je++Kva4nodJkYcuSEQIDCRicgnldwkSEQAAAACKl6RJRA3N1TZvvPFGVGPs0FrVqSegk1NuEhTJM5Ul2VatWmWXJd+E5JTKTiIuXLgw3SPPxScR9W6/+DYuvXr1Mr1797bL6rEndu/ebcsVlYju8zS8WWVJu0ycRHz88cftz+nTp9uf7hiSiM8//7xd1jBgh4YGq049K51EjE8Wo7LOvyyJ6NqcmRUrVthtHa+99lp63YQJE0zPnj3tsr4/fSdlfU/CSUTHjBkzbFmStyy0je++KuYkrfdhPEhECAwkYnIJ5XcJEhEAAAAAipekSUS910/bbNu2zZYltlRWJL+cnNIMxuLll1+2ZQ2ZdUNxJfuERKTKkoiul6Ik1/79+9O9DX0Scf78+XZZvQT1jkX1ltOx1YPR9Q7UbM5CPedUrqhElHATFZGIL7zwgpVuTny6dxBKIuqYWtY6CTqhdxyqTu80dBKxT58+dp16FaqsHn9lSUT32UuWLLHnfvDgQXvub775pt3W4Xoe+qJ3G5b1PQknEfUZwslZtb0stI3vvirGJFkeuiARITCQiMkllN8lSEQAAAAAKF6SJhE18Yi2Ubp165Ye3qwhzcLJKUXDjJ3809BjvbfPCTdNeOKGQesYTmKpV6N6+Ln9xowZY48rMafysmXL7PBct5/eIegk29q1a81zzz2XXicB6XpOVodEPHfuXPo9iGq3k3/unYiuXR06dDAjRoywy4rkafydiJp8xV2LWbNmlSkRnUDVJDCLFi1Kv79R1y+OO56kn0Sg4iaZ0eeV9T0JJxH12ZrwxW370ksv2fXZ0Da++6rYInGYxOHLmUEiQmAgEZNLKL9LkIgAAAAAULwkTSLqXX+dO3eO/5FnBdqLL75o1zs55YY4KxJUGl4r1IMuvp9knyLckFtF7+rTT73XT2j2Y7dOkk09FeOTf6hXoptcJH4c9x5CzTacSVwi7tixwy5LqAn3jkIdKxP13tM6SUTX81HyLVMiarbp+HWQQH300UftOtdD0sk7t6wehZkS0b3bUBJR56j3Guqauf0kUuOoXarXNvEJV+Lydf369XY52/fkrq2TkcoDDzxg15WFtvPdV8WSYuh9GA8SEQIDiZhcQvldontG9xEAAAAAQPGRNInouHTpknn22WfNO++8E9VcxklEvffvww8/LNVDTmiiEQ09dsN840hivffee1GpJJJomZ8nURef5MWhyU6cEKtpdA1OnDhh5aAPiVkN584FycGTJ0/afStDed9T/J2IGmr9wQcf2OXy0D6++yrpWbjgd1l7Hj598FypuqQEiQiBgURMLqH8LkEiAgAAAEDxklSJmI24nIJwKe97ikvEXNA+vvsqyfl558s9W5s0uc60/dFNpmHDRubv6/yD+drXrjB/9Vd/Zb7yla/YnyqrXuvbtr3J9L31djNr5iKz5Y8HvMcNIUhECAwkYnIJ5XcJEhEAAAAAipdik4jqcafZk/ft2xfVQIiU9z1p6PK0adOiUsXR/eO7r5KW+XNXmC4/72H+9m//PysINdR72LDhZunSpWbnzp22J62Gwbvh4vqpsuq1XtsNT21//fWtzF//9d+YevX+yR5Px/V9Xk0FiQiBgURMLqH8LkEiAgAAAEDxEppEvOaapnaSEYBc0X2j+8d3XyUh6x/ebnr8sq/5+t99w1x1VSMzYcJEO1P4uHHjrNDQZDaVfTZ0HB1Px9Xx9Tn6PF87ChkkIgQGEjG5hPK7BIkIAAAAAMVLaBKxceMmSESoFLpvdP/47quQs+Q360ybH95oewxq5mpNQOMjHzJR6PiDBw22n6fP1ef72lWIIBEhMJCIySWU3yVIRAAAAAAoXkKTiH16DzajR42JdAdAxbnuuuvMbxav8d5XIUY9AW9o29584xt1zIwZM0rMZF0W+ZKJ+rzp02fYz1c7aqJnIhIRAgOJmFxC+V2CRAQAAACA4iU0iaikmhVpDoCKIZmm+8Z3P4WYfv2GmK9+9atm/PiJ0RnkjpOJ+llV1A61p3+qXb72VleQiBAYSMTkEsrvEiQiAAAAABQvIUrEfn1vN3fcMTrSGwDl06zZtXY2Yt/9FFJWrthovvOdq82Pf3yTnQQlH+RLJqo9apfap3b62p/vIBEhMJCIySWU3yVIRAAAAAAoXkKUiIrebTeKYc1QAUaPHmMGDhjqvY9CyvhxU81XvvIVc99990Utzx/qianhzalHusoyUe1TO8eNneo9j3wGiQiBgURMLqH8LkEiAgAAAEDxEqpEVCQSr732uiq99w2KG/VYHXBb+AKxR4++5lvfqm9nSa5O8iUT1U61t2eq3b7zyVeQiBAYSMTkEsrvEiQiAAAAABQvIUtERUObU81My0SEYu3G3QOjRo2294XuD999E1J+8pOfmetbtjIXLlyIzqL6yYdMVHvV7p+0/5n3vPIRJCIEBhIxuYTyuwSJCAAAAADFS+gS0WXxojW2Z+I11zSN/4FHaln0/Tf+bhNza5/B3vsktNxwQ3vzk590iLRc4XEysSryXe3XefjOr6pBIkJgIBGTSyi/S5CIAAAAAFC8JEUikstJfWXeehJe1AOxJgViPtF5VEePRCQiBAYSMbmE8rsEiQgAAAAAxQsSMVlJfWXeehJW9A7Eli1bRQquONDQ5ny/IxGJCIGBREwuofwuQSICAAAAQPGCRExWUl+Zt56EE83CrElJCvkOxEKg89F55XPWZiQiBAYSMbmE8rsEiQgAAAAAxQsSMVlJfWXeehJGVq7YaL7yla9U+yzMNYXOS+en8/Sdf65BIkJgIBGTSyi/S5CIAAAAAFC8IBGTldRX5q0nYeQ737na3HfffZFyK050fjpP3/nnGiQiBAYSMbmE8rsEiQgAAAAAxQsSMVlJfWXeelLz6d9viPnxj2+KVFtxo/PU+fquQy5BIkJgIBGTSyi/S5CIAAAAAFC8IBGTldRX5q0nNZv1D283X/3qV82ZM2cizVbc6Dx1vjpv3/WoaJCIEBhIxOQSyu8SJCIAAAAAFC9IxGQl9ZV560nN5oa27c348RMjxVY70PnqvH3Xo6JBIkJgIBGTSyi/S5CIAAAAAFC8IBGTldRX5q0nNZclv1lnvvGNOpFaq13ovHX+vutSkSARITCQiMkllN8lSEQAAAAAKF6QiMlK6ivz1pOaS5s2N5oZM2ZEWq12MX36DNPmhzd6r0tFgkSEwEAiJpdQfpcgEQEAAACgeEEiJiupr8xbT2omeifgX//135jPPvss0mq1C523zr+y70ZEIkJgIBGTSyi/S5CIAAAAAFC8IBGTldRX5q0nNZMev+xrBg0aHCm12sng1PnrOviuT3lBIkJgIBGTSyi/S5CIAAAAAFC8IBGTldRX5q0nNZOv/903zDPPPBPptPwxYMCAuMhIp169embVqlXedUqrVq2iIxhTv359W9e5c+eopnrQ+es6+K5PeUEiQmAgEZNLKL9LkIgAAAAAULwgEZOV1FfmrSeFz/y5K8xVVzWKVFp+6d+/v/2uJQW7d++ezsiRI82ePXvS5SuuuMJu1759e1uePn263f/IkSO23uWDDz6w9dWFroOuh+86lRUkIgQGEjG56LsL4ftCIgIAAABA8YJETFZSX5m3nhQ+XX7ew0ycODHSaPnFScQtW7ZENX6aNWtmtztx4kRUc5lRo0bZevVc1M81a9ZEa6qHCRMm2uvhu05lBYkIgYFETC5IRAAAAACA6gaJmKykvjJvPSl86tX7J7N///5Io+UXJxFbt25tevfunc7mzZujLS7jk4iff/65qVOnjq3funWr/XnzzTdHa6sHXQddD991KitIRAgMJGJyQSICAAAAAFQ3SMRkJfWVeetJYbPljwfsrMTVhZOImbnnnnuiLS7jk4i7d++2dRKHmj3ZDXk+f/58tEX1oOuh6+K7XtmCRITAQCImFyQiAAAAAEB1g0RMVlJfmbeeFDazZi4y11//5SQm+cZJxNWrV5s333wznUuXLkVbXMYnEQcOHGjr9D5FDbeuW7euLS9btizaonrQ9dB18V2vbEEiQmAgEZMLEhEAAAAAoLpBIiYrqa/MW08Km7633m6GDRse6bP8U9l3In766afpnoeZadOmjd2muhieuh66Lr7rlS1IRAgMJGJyQSICAAAAAFQ3SMRkJfWVeetJYdP2RzeZpUuXRvos/ziJ2KhRIyv/4nn//fejrUpLRPcOxObNm5tjx47ZPPPMM7ZOeeONN+x21YGuR9u2N3mvV7YgESEwkIjJBYkIAAAAAFDdIBGTldRX5q0nhU3Dho3Mzp07I32WfwYMGBAXGSXyzjvvRFuVloi9evWy5YULF9qyQ+9HVP2iRYuimvyj66Hr4rte2YJEhMBAIiYXJCIAAAAAQHWDRExWUl+Zt54UNn9f5x/MmTNnIn0GQtdD18V3vbIFiQiBgURMLkhEAAAAAIDqBomYrKS+Mm89KWy+9rUrzIULFyJ9BkLXQ9fFd72yBYkIgYFETC5IRAAAAACA6gaJmKykvjJvPSls/uqv/sp89tlnkT4Doeuh6+K7XtmCRITAQCImFyQiAAAAAEB1g0RMVlJfmbeeFC5PHzxnvvKVr0TqDOLouuj6+K6bL0hECAwkYnJBIgIAAAAAVDdIxGQl9ZV560lhQ0/E0tATEYoAJGJyQSICAAAAAFQ3SMRkJfWVeetJYcM7EUvDOxGhCEAiJhckIgAAAABAdYNETFZSX5m3nhQ2uc7OfOWVV9rvLi4emzRpYutOnDgR1VQcHa9OnTpRKTsrV640s2fPjkrVC7MzQxGAREwuSEQAAAAAgOoGiZispL4ybz0pbBo2bGR27twZ6bPycRLx/PnzUc2XEvH48eNRTcXR8ZTyaNSokf2MQqDroeviu17ZgkSEwEAiJhckIgAAAABAdYNETFZSX5m3nhQ2bX90k1m6dGmkz8qnPIkoAafy3Xffbdq1a2fq1q1rhg8fbj7++GO77bFjx0zLli1t78MhQ4aYK664Ii0RL168aPr162f3qVevnundu7d55ZVXzOTJk+12+oy2bdvadxYePnzYHkf1zZs3LyFC1WuxVatW9ridO3c2zz33XLSmYuh66Lr4rle2IBEhMJCIyQWJCAAAAABQ3SARk5XUV+atJ4VN31tvN8OGDY/0WfmUJxEfeeQRJy2sCHTLkyZNsts2aNDAlt1x3LKYNm2aLavXYYsWLexy165dzZw5c9ISsUuXLuatt95KlyUS9VM5deqUef755+1y48aNTffu3e1y69at7fEriq6HrovvemULEhECA4mYXJCIAAAAAADVDRIxWUl9Zd56UtjMmrnIXH99q0iflU9FJWL79u3tuieeeMKW69evb1599VW7LPH3ySefmI0bN9qyk4irVq0yEydONGfPnrW9AbVOxxbx4czLly+3y+q1qJ6K2kdl9VhcvHixXdZnPPbYY2b16tVm2bJl5tNPP7X7VgRdD10X3/XKFiQiBAYSMbkgEQEAAAAAqhskYrKS+sq89aSw2fLHA+av//pvIn1WPhqGrO/ujTfeiGqMadiwoa1TT0AnEd0kKF988YUtq+egJKGWp0yZYtdpiLPKTiLu2rUr3VPRxScR77rrrhLbuPTq1cu8/vrrJXpA6nPvueceu19F0fXQdfFdr2xBIkJgIBGTSygSUfB7DQAAAACKEyRispL6yrz1pPCpV++fzP79+yOFVjZ6J6G+u23bttmy3mOosqLefk4idurUya5/+eWXbVliT5JQy5J9QiJSZScR1VtR5XXr1tmZnrXsk4jz58+3y3379rXvWDxy5Ig9tmZVlsjU8po1a2xPRTfsWb0bK4Kug66H7zqVFSQiBAYSMbkgEQEAAAAAqhskYrKS+sq89aTw6fLznmbChImRRiubO++8My0munXrlh7e7GRf/J2IGmbs5J+EniZEcVJv2LBh6WHQTiK6HoRbt26170LUsjuu3nGosoYmP/PMM+n9NHzZvRdx7dq15oEHHrDLatumTZvS+8V7TpaFrkOXn/fwXqeygkSEwEAiJhckIgAAAABAdYNETFZSX5m3nhQ+8+euMFdd1SjSaGXz0Ucf2RmP9f25aDjziy++aNc7ieiGOCsSia+99ppdv2TJkhL7SQQ6iejeZ6i4mZeVCxcumKlTp6bXqcej3osYH/qsXomSlOoZqVmhXb2OrQlbKoqug66H7zqVFSQiBAYSMbkgEQEAAAAAqhskYrKS+sq89aRm8vW/+4bt4VdRLl26ZJ599lnzzjvvRDWXcRJRMyp/+OGHdjhzJu+//74deqz3JWYiCagJWHxoXebnnT59usQkLw59toY2+z4jGzp/XQff9SkvSEQIDCRickEiAgAAAABUN0jEZCX1lXnrSc2kxy/7msGDBkc6rfLEJWLSGDx4sL0OvutTXpCIEBhIxOSCRAQAAAAAqG6QiGFn4YLflSinvrIS5V6/GliiTAqb9Q9vt7MSa0hwVdCEKJo9ed++fVFNMtB56/x1HXzXp7wgESEwkIjJBYkIAAAAAFDdIBHDjiTh179eJy0TU19Zul7LSMSaT5sf3mhmzJgRabXahc5b5++7LhUJEhECA4mYXJCIAAAAAADVDRIx/KS+JhvJRLd8xRX/w/70bU8KmyW/WWe+8Y06kVarXei8df6+61KRIBEhMJCIyQWJCAAAAABQ3SARw4/rdZgZeiGGkxvatjfjx0+M1FrtQOer8/Zdj4oGiQiBgURMLkhEAAAAAIDqBomYjKS+qlLxbUdqJnon4Fe/+lU7e3JtQOep863suxBdkIgQGEjE5IJEBAAAAACobpCIyUhmb0R6IYaX/v2GmB//+KZIsxU3Os9+qfP1XYdcgkSEwEAiJpdxUUKA32sAAAAAUJwgEZOT1NeVjm89qfl85ztXm/vm3BeptuLkvvvus+fpO/9cg0SEwEAiJhckIgAAAABAdYNETE5cb0R6IYablSs2mq985Stm//79kXIrLnReOj+dp+/8cw0SEQIDiZhckIgAAAAAANUNEjFZSX1l3noSTsaPm2q+9a365sKFC5F6Kw50PjovnZ/vvCsTJCIEBhIxuSARAQAAAACqm9Alonrd3dZ/iLnmmqbxP+wIqVVp3ry5zfbt2yOlV3iub9nK9OjR1/ucVjZIRAgMJGJyQSICAAAAAFQ3IUvE224bav+QGzduXI3KE4CaRve/IpGo56HQ/OQnHVL5mfc5rUqQiBAYSMTkgkQEAAAAAKhuQpWI1zRuYkaNGh0pDABwSCJKJhYKCcQbbmjvfU6rGiQiBAYSMbkgEQEAAAAAqpsQJaJ6II4ZMzZSGACQiURidfdI1DsQW7ZsVS09EF2QiBAYSMTkgkQEAAAAAKhuQpOICxf8zjRt2izSGACQjdTjW20iUbMwaxKVfL8DMTNIRAgMJGJyQSICAAAAAFQ3oUnE7179Pd5/CFABqqs34n333We+8pWv5HUW5mxBIkJgIBGTCxIRAAAAAKC6CU0iahZmJCJA+biJVvLFmTNnzI9/fJP5zneuNitXbPQ+n/kOEhECA4mYXJCIAAAAAADVTWgSMdWkSGkAQHnk63kZP36i+epXv2r69xvifS6rK0hECAwkYnJBIgIAAAAAVDdIRIDkUpXn5bPPPjMzZsww3/hGHXND2/Zm/cPbvc9kdQaJCIGBREwuSEQAAAAAgOoGiQiQXCrzvDzzzDNm0KDB5q//+m9MmzY3miW/Wed9FgsRJCIEBhIxuSARAQAAAACqGyQiQHKp6POi2ZYnTpxorrqqkfn6333D9Phl3xrpeZgZJCIEBhIxuSARAQAAAACqGyQiQHJxz4uGJl+4cMFOjrJz506zdOlSM2zYcHP99a1sj8N69f7JdPl5DzN/7grvc1dTQSJCYCARkwsSEQAAACqH/ighpJCJbr1Eovb7/rivqaSaZKUIAJSPnpevfOUr5q/+6q/M1752hfn7Ov9gGjZsZNr+6CbT99bbzayZi8yWPx7wPmshJOm/P6HoQCImFyQiAAAAVI7QpAgp7iAR85tUkyI9AgDloefl6YPnvM9SEoJEhMBAIiYXJCIAAABUDiQiKWSQiPlNqkmRHgGA8tDz4nuOkhIkIgQGEjG5IBEBAACgciARSSGDRMxvUk2K9AgAlIeeF99zlJQgESEwkIjJBYkIAAAAlQOJSAoZJGJ+k2pSpEcAoDz0vPieo6QEiQiBgURMLkhEAAAAqBxIRFLIIBHzm1STIj0CAOWh58X3HCUlSEQIDCRickEiAgAAQOVAIpJCBomY36SaFOmRL/n888/Nli1bzJw5c8y0adPMY489Zj755JNorTEff/yxOXLkiDl69GhUUzO89tprZs+ePVnz4Ycfeuvj+eCDD8zx48dL1O3bt8+8+OKL5rPPPos+qers3LnTXtPz589HNSV555137DV94YUXoprcyccxsvHyyy/b+2DlypXmmWeesfdAbUTPi+85SkqQiBAYSMTkgkQEAACAyoFEJIUMEjG/STUp0iOXkYhq1KiR+4Munbp165rnn3/ebnPq1Clbd8UVV9hyTSHJmdnOeJ599llvfTwHDx40LVq08K5r0KCBOXbsWPRpVaNOnTr2mLt377blkSNHmt69e5tXXnnFlhcvXmzX33zzzbZcEZYuXWqP8cQTT9hyZY5RHp9++qkZM8Y+cyWi8zl06FC0VdXRddG5PPDAA1FNmOjcfc9RUoJEhMBAIiYXJCIAAABUDiQiKWSQiPlNqkmRHrnMgAEDbF29evXMfffdZ+bPn28FouoaN25stwlNIl555ZWmT58+pfLqq6+ml7t162a3VSTZXL16HDqJ2Lx5czNo0CDTs2dPe/5ueydPq8KkSZPM0KFD070E1WYdW6JTVEYAunOaO3euLVeHRJw+fbo9ptKlSxd7fVzblb/85S/RllVDQlTH69ChQ1QTJmqj7zlKSpCIEBhIxOSCRAQAAIDKUVkpsmvnMW99bc+BfWfMoQNnvesIEjHfSTUp0iOXkShU3cyZM6MaY3u6NWnSxEbDWOMSceHChVa4STSOGjXK9lwTH330kRk7dqxp2LCh7bUmObRkyRK7TrRr1860bNnSDvFt06aNlWxi+/btVupJVDVr1qzMnmlOImr78lAPS22raMhvHCcRnYwTGgrtRGL//v2j2i+ZMmWKbb/aIFavXm3Lffv2teWTJ0/ass5Nw8NvueUWW1bPxu7du6fb0qpVK3t9nQC88cYbzcCBA+0107VbsWKFPV4ms2bNSvduVI9Jtb0ix/jiiy/stuptqmus9mmotY+333473c7x48dHtcYObXefLckodByd37lz52zZnX9cCm7cuNF07drVfm7r1q3NPffcY+8T3QOu96vWuWuo66bh9DoHrdN53n333elh5o888og9jraR3NT3pXPX8PR7773Xbq/ou3FcvHjRDB482G6rc+jcubMdqi3Onj1r29yrVy+zbNky2ybdj3HUDt9zlJQgESEwkIjJBYkIAAAAlaOiUmTF8sdMux93NA3+taH57//9a/Y/GPXz29++ytz8k1vMmtVbvPvlK+sf3m569xqUzoZHnvRuV+hIGt4xcpL53jXXmb/9279L/8d03brfTP2B/GPz22UbvPvV1iAR85tUkyI9chlJFdVJEErm6D14kklxnET0xclHSSdXF++5puMJHd/VKaNHj7YyK17nMmPGDLtPJk4iSmAuWLCgRLZt2xZtdZlcJaKQTFK9ZFIm6qGpdRKrQnLMHV8iVcJUy5KEwkk3DduV2HLb6tqsWbMmLQB9OXDggD1GHH03br2u5ZAhQyp0jMmTJ3vX79q1y66Pozq3Xu+JjPP666/bHpr6Kdx2bvi3Pk9lnZ/YsGFDepv4cHkN616+fHmJ+8H1eNU5ubp4JEhFtuHsmfeWcubMGbuPJGHmOn03b731lnf4uwRnHNX5nqOkBIkIgYFETC5IRAAAAKgc5UmRPz113HS+pUf8PxKzpmeP28ze3Se9x6lqZs1YWOKzZv/6N97tCpmHVv/R1PnGP5Roly/Xt/yR2b/3dIl99/zpz2bAbSPSWfHb35dYX9mMGzs1fcwZ0xd4t6nJIBHzm1STIj1yGfXi8kkYybD9+/fbbeISUSJHvbvat29vy506dbLbtG3b1so915PLyRvXo819hn6qR5qG+eozVKeefxJxTopJRLkejnGySSRFQ2/jVEYiaji36p0IixO/BuqZFx/+rIlHnOSbPXu23T4uEYUTq5nDmRVdZw0TdvtIivrINpw52zHUu9KtX7VqlW236xXpG0bsRKgSn1jHh9sum0Ts16+fLes+ef/99+19oXvECcHM4cxquzumzk89YPXT1eldku771zk+99xzZt68een1uu76jtx9pt6IcSkqAapJburXr2/L2jcuEVUvuan7Jo7W+Z6jpASJCIGBREwuSEQAAACoHOVJke//5w/j/4FYbm66qZP3OFVNaBJRcvUf//Hyu+YqkvYZ12XrHy//ke4y5PZxJdZXNvE2NW9+vXebmgwSMb9JNSnSI18icSKB1LFjxxJCUcuSN3GBduHCBbuPEzwaTio06/GDDz5oh/HGe96px6Fwx1UPNYerU081DXfWUFW334kTJ6KtviQukSZOnFgi69evj7a6TGUk4oQJE2y92u/DCbonn3zS/pQU009dOzcEV1I2vm15EtH1whMSaqrT0Fwf2SRitmPoGmpZUVt1jV07faJUMzFrnb6X8nDHzSYRJS3dNop6cErSOTmcKRHVA9Bt62aC1tBnV7dp06b09+/eAal7063X/Sc0JF5lDU/W0Hst63x07or7XtQDNy4RM+WhQ+t8z1FSgkSEwEAiJhckIgAAAFSOsqTI1Lu/7DniouHMgwaOslJPvd3qffNbpbaZP3eF93hVSWgSUdcg3h71SPxl977m3l8vNmPH3GPa/PCmEuuVJYvXpfdHIiaT0CWi3lunIcdOouj9c5s3b07fEw899FBaIsblkt5dqDrJKSGZ6LaRGHLvWsyUiE6iCZUVSTuJvXhOnz4dbfUlTiJpfXlURiI6ienEViaud50bAq7rpp/qBamfElSOikrE+KQo6tWpuvj7KeNUZGKV+DE0E7WWlfi1Vdz3Fmfv3r3p7d2EMA69C1GfL9Eo3HbqEShcrz8nEdWTcerUqenr4KJjiEyJ+Oijj9qy7hO9x1Hop7tv1q5dm/7+Xe/X1157zZYVJyc1WY7Kkoh6j6SWdYzM81cPWScRtT4bWu97jpISJCIEBhIxuSARAQAAoHJkkyLbH386/e5Dl//q1N2+AzC+nYYv/6hNSWGmdwPGJ17RNrt3nbCJ76/3Gs6ftzJddtm755Qd3nvfnKXmie1HbF1FJeKTO541ix9ca6beM8+sW7st6yQnaodrkz7P1e/Ydtj8etaDpc4zMy1btkm3RddJn5u5za19bi/R5oED7kivy0Ui6lquWrHJzJq5yCx6YHWZ74MsSyIe3P/lOSuHDrxQYr3KJdf7r92GR3daUXznxFlmzuwlZvXvNpc6VrYgEfObVJMiPXIZNxPzuHHj0hNYqFeXk14SZeVJxHiPMCf/3HvwMiWi67kmXI9FN8mKejlKUim+4bTVJRF1vu7Yyrp162x9Jk50uegznCxVJBkd2SSihj6LqkjE+++/35bLO0b8Gjz11FN2vb5LXV/17Msk/r3rmOoRKJGnbd1xNLmJcOcnCS30eSo7iSjpqNmpDx8+bD9zzBj7HNvoc5xEdG1XD063XvsI/XR1um65SkT3Xkbde++9955dL9mp8z906BASEaDwIBGTCxIRAAAAKkc2KXLXnZd7fbhoopBsokgS7m/+5n+V2D4u+eJi65b/+qWZNnVeugejfrrtJO603m3r0rTJf1hhFa/LlIibN+21k5vEt3HpcHPnUlKw40+/nEhB5yYR1rjx5aFzik8KxhPvgaleiL5ttmzeb9e56N2Sqv/WP/1LKUGrqO62/iPS+2/6/W5z1VXXlNpO0TWdMG56eltdt2zHbNashd1G70uMr1u08KH0/ooEZXz9lMlzSqzX5DlXN/peiW1cdH6Z2/uCRMxvUk2K9MhlNBRYdYoEUHzIp8oSUeVJxEuXLqUl4YgRI0yfPn3ssisLn0R04knrevfunX5fnd6n6CMu+nyJD2muiERUXLtcJLV872MUeqee207vRBSaJdjVuUlkRKZEdLJWPTYlsCojEXWNtF5DkuOTs5R1DH0/Kuvz9b04SejEbSbumIq2de1WNCTZyV3Nzuzq3WcoTiK63praXwLRlSWXJSbdcGdt79oSnwRF96FblhgUuUhEDZ3W9+XOV8Oc45PhSKoiEQEKDhIxuei70vcXAvxeAwAASBLZpEiPX/aP/4ehHdrs285l+LDL7x9zuX3wl8eNS8TM4c9OIqqXXDZB5UtcIq5csdEr0OKRiIz3joxLRO2bKUHLk4g/aHVDie1vuOFmK9mePnjOu3088VmcM/OrngPsNr/fsKvcc1JGDr/Tbq+Zs33rFc2grW00zDpeL2no2qQsXPC7EusnT5qdXveHTXsq1J7y7hMkYn6TalKkRy6j3odjx44t8Z0okj2SXUKTUqguLlvc++bcOxHd0FFF4kbvRtSyhJdwss69M1Dos9Vbze2nSFRlDqV1uIlPsqUyEtFF7Rw1alT6fXzZcO/cc8Ny1avNHUMTiDicRNyzZ48tazIZt5164blJTOJDp90107X08fjjj6evoz6/IseQaItLPqVHjx7pdwj6WLFiRSm5qglSNPmJQ70EnaBT3MzWTiKqd2pcBLp1TqrqWE5QxvfJ/G4kBV9++WW7PlMiaqZot12mRNQ5CE044+S0i44jjh49astIRICCgURMLkhEAAAAqBzZpEiL//hB/D8MzR827vZu5/LbZZeHmrnEJxKJS8TMOImY2fOxvDiJqN6Rek9j5vp//ud/K1UncejaFJeIvpQnESVJfftJRrZt+xMr7DSc2revrk2mMNU10vBjJ+70vsn4egk8fSeZEla9KLX9iOET7f7xddpHdd1+0cduUxWJmDlkXe987PWrgaXao/OIHzMzSMT8JtWkSI+URDP5njx50uzbt8+8+uqr6ffS5YLElHot5rqvhppKWOpzixnNai3xVZ6oLAvtq2PoWLkgmahrrN55FeHzzz+38ljST5/nQ9+zBF9ZbXnzzTftuxZ1X2QOUddnaL2Ebxx9nuSf2pwP9DlnzpyxPQ91n+eCnhffc5SUIBEhMJCIyQWJCAAAAJUjmxTR8NTU6nTUU9C3ncvWLV++9F9xvd8Un0TU0N6JE2baIbUSgZmfp4lL9JlPbH/G9O715RBDFycRZ0xfUKJe7yrc+cRRu07DgeM9DCXV9H5GrfNJxOtb/sjcMXKSff9ieee7509/9srLzKjXoWSba5NLee9EjMs5CVHXbiXzc9UWty5+rTPfiVgViRjvPanvKr7fzT+53FvKRcO44+vjQSLmN6kmRXoEAMpDz4vvOUpKkIgQGEjE5IJEBAAAgMqRTYpkDu/1bRPPU08+V2J710NOyZSIEn/xff/4h30l1mdKKkXDkePbOImoGZHj9ZqQJb6fBF58/czpD9j6TImoSWPi+1UkmnymrGHE8eh6xuVaeRJx+rT5dmiwomHSqpOI1EQm8f2UeK/J6pKImUOZ9a7GYUPH2+utduncXLJNyKIgEfObVJMiPQIA5aHnxfccJSVIRAgMJGJyCUkiqh3cOwAAAEkhmxTJnNDDzZKcLRq6G99ePQLdukyJuH/v6RL7Llm8rsT6Dh1+XmK9MuqOySW2cRIxPkuyItkVT3ydMnjQaLtfpkTUjM7xz8slmtFZsk9CMbNHZTy6pm6fiszOrJ6UmuFZE8b4zsWlEBJRvTTj6zKjIdz6HuPH8wWJmN+kmhTpEQAoDz0vvucoKUEiQmAgEZMLEhEAAAAqRzYpkinZ9M5D33Yuknrx7dUD0K2Li614D0WXu6eUnGBh5Ii7Sm2TeXwnETXTcby+vGhotPbLPD/1Kox/XlWiod2aqdg3s7ITfuVJxEyxWlYKIRHVW7Qi1zr+vfuCRMxvUk2K9AgAlIeeF99zlJQgESEwkIjJBYkIAAAAlSObFNGsv6nV6Wj2Yd92LpnDjSXR3Lq42Ir3xnPJHKJ7y3/9stQ2fW8tOeurk4jXXfv9EvWSWGVl/twVdr9MiXhgX9nvQIznT08dt/u7SM75ttN7FSVN45/zmwcftuvKkoi7d50osU7RddN7ItVj8hdde5dYV1mJuGD+qhLr9Z3F18cloqLzmTVzkZ1kpayekWX1SEQi5jepJkV6BADKQ8+L7zlKSpCIEBhIxOSCRAQAAIDKkU2KrFyxMf4fhjbLlz7q3XbufctLbbvhkSfT68uTiOsf3l5iX19vxYb/fnWJbZxEzBRqejdjfD9N2qLh0y5PHzxn66siEfXOv/i+Emp795zybpv5zsS1D2219WVJRInC+Lof3/jT9Dolc6bkikpEScH4fhPGTS+xvscv+5dY7ySi2jpt6rx0/rBpj70Gq1ZsMgMH3FFqCHf/fsNLHDceJGJ+k2pSpEcAoDz0vPieo6QEiQiBgURMLkhEAAAAqBxlSZFM0aaoN5tmTNZ6DQHW5BqZ2/yq54ASxylPIkruZfZs+/WsB9Pr75uztMQ6xUlEzfAcr29/U6e0KFTPudatf1xivYbsal1VJKKSOVRZYi8u8yQvM4dpK27W50yJqF6Sbt/MHoOZw4ozr5X7PpT4tY7PkK1kXkf1HnXtWb3qD6WO6z43c2i1rl38uJlDzQfcNqLE+niQiPlNqkmRHgGA8tDz4nuOkhIkIgQGEjG5IBEBAACgcpQlRXbtPGb+9m//Lv4fiOlkG84qiZXZK688iagMuX1sieMo9b75LZvMesVJxL27T5Y4vqKZkDURSGYbdS779jxv96uqRMwUZy76jGyTq6inn9tf4i++Tm3WkHEdd/68lSXW6fw0vFxt9l33+PscM6+XroOGQWvdtq1Pl1in6HMzr5+Lk4gavp25ThPaDLxtpOne7dZS+2cOk44HiZjfpJoU6REAKA89L77nKClBIkJgIBGTCxIRAAAAKkd5UkTv8JNoSm1abiTQNMQ18xgVkYgSj2VN3JEpz5xEVFb89vcl1vmi/ePDsasqEZU+vQeXOEZZady4WbrXn4vvfNWLU9Ium7z1ZdnSR9LHzBzercR7JGaed1mJ94DM7B2ZLRpC7XqC+oJEzG9STYr0CACUh54X33OUlCARITCQiMkFiQgAAACVoyJSZOcTR02HmzvH/0OxVLp06WXll2//uES8utH3vNsoe/7051Lv+1O+d811ZumS9SXqNBlLfN8Nj+60Aiu+jYv237J5f4ntf9bxFyW2yRR8FY3eX6hzih8rHgnY8eOmeY+vSV4yZaEbCi4Zm9nDTyJUklCzKsfrdX7umL/fsKvUZDNxiah3GXbo8PMS6xVd9xXLHytRF58cR5FUzNbLUun2iz6292p8n8wgEfObVJMiPQIA5aHnxfccJSVIRAgMJGJyQSICAABA5chFikjyPbT6j2b6tPlm1B2TzawZC+1EIRpS7Nu+stmx7bB9f596G2oIrm+bbNm65aB97+Fdd86ygi/+vsDqjN5xqB6BU++ea8aNnWoFoSaXqUgPxye2H7GTy0iExieG0b7qPaljSvDlIjrdMR9d/4R5fMuhUuslEx9e87g9vrbNXJ8tapO+c30/kqMzpi+wx4i/D7KsIBHzm1STIj0CAOWh58X3HCUlSEQIDCRickEiAgAAQOUITYqQ4g4SMb9JNSnSIwBQHnpefM9RUoJEhMBAIiYXJCIAAABUDiQiKWSQiPnNNdc0Ndu3b48UCQBkQ8+Jnhffc5SUIBEhMJCIyQWJCAAAAJUDiUgKGSRiftO/3xAzduzYSJMAQDYkEb/73Sbe5ygpQSJCYCARkwsSEQAAACoHEpEUMkjE/KbXrwbaP94AoGyaNr3Wvi/X9xwlJUhECAwkYnJBIgIAAEDlQCKSQgaJmP8MuG2oGT16TKRKACCTUaNGm9tSz4nv+UlSkIgQGEjE5IJEBAAAgMqBRCSFDBKxenJN4yaIRAAPY8aMtc+H77lJWpCIEBhIxOSCRAQAAIDKgUQkhQwSsfqiHolNmzYz27ZtY7IVqNXo/h83bpwVG8XQA9EFiQiBgURMLkhEAAAAqBxIRFLIIBGrN3rn23e/+z07C22quYTUyuj+79f3dvvOUN9zktQgESEwkIjJBYkIAAAAlQOJSAoZJCKpDUndKt56QqoSJCIEBhIxuSARAQAAoHIgRUghg0QktSGpW8VbT0hVgkSEwEAiJhckIgAAAFQOpAgpZJCIpDYkdat46wmpSpCIEBhIxOSCRAQAAIDKgRQhhQwSkdSGpG4Vbz0hVQkSEQIDiZhckIgAAABQOZAipJBBIpLakNSt4q0npCpBIkJgIBGTCxIRAAAAKgdShBQySERSG5K6Vbz1hFQlSEQIDCRickEiAgAAQOVAipBCBolIakNSt4q3npCqBIkIgYFETC5IRAAAAKgcSBFSyCARSW1I6lbx1hNSlSARITCQiMkFiQgAAACVAylCChkkIqkNSd0q3npCqhIkIgQGEjHZhPL7BIkIAACQJJAipJBBIpLakNSt4q0npCpBIkJgIBGTTSi/T5CIAAAASQIpQgoZJCKpDUndKt56QqoSJCIEBhIx2YTy+wSJCAAAkCSQIqSQQSKS2pDUreKtJ6QqQSJCYCARk00ov0+QiAAAAEkCKUIKGSQiqQ1J3SreekKqEiQiBAYSMdmE8vsEiQgAAJAkkCKkkEEiktqQ1K3irSekKkEiQmAgEZNNKL9PkIgAAABJAilCChkkIqkNSd0q3npCqhIkIgQGEjHZhPL7BIkIAACQJMqTIk9sP2Ke3PFsibqnD54zB/efKVFXzNm65aDZ8MiTOZ/zoQMv5O066Vi/37DL/vStT0qQiKQ2JHWreOsJqUqQiBAYSMRkE8rvEyQiAABAksgmRebPXWEaN26W/o/Db3/7KnPvrxen1/3t3/5dqX2qK/ps1454Ov60q+lwc2fvOmXgbSPt/tu2Pm3L1137/VLHLitzZi8xf/M3/6vEMTt0+LnZu/ukd/vM3DFykmnxHz/wrqtoJCFv+a9fptuhn+1v6mT+9NRxu37pkvXmNw8+XGq/zFR0u+oOEpHUhqRuFW89IVUJEhECA4mYbEL5fYJEBAAASBI+KbLnT3+2/0EoCbd71wnzh017zC+69rZ16pVYExKxe7dbbU+8eNRLcucTR82WzfttJD3b/bhjuuxE28jhd5r//t+/Ztu//fGnSx3fl/vmLLXbDxo4yl6DQwfOmiWL15k63/iHCsvIfEjESXf+2n7mo+ufMPv3nrbXXmVdD63/eeeeVmxm7peZim5X3UEiktqQ1K3irSekKkEiQmAgEZNNKL9PkIgAAABJwidFNHQ3tco8MH9Vuk69737Vc4CVcxJZ6hEnkSWZ+K1/+hezYvlj6W379R1m6tb9pvnHf6xre9FJwCn//M//ZsaPm2bXSYppmPD1LX9kjyUBuGrFpvQx4pFEHDxotHddPJJ7+rzMerVv5Ii77OeMHjWl1Hpf9JmtW/+4VL3OXdfm4TWP23Pp2eM28+Mbf2p7B2qoca9fDbTnrfO54Yab0xJRAlAiVgJQ7ZkyeY6t912X+Of9qM1NpuG/X12iTj0k77pzlpkxfYGVo8pt/UfYdb5rn7ndiOETza19bk8fb/iwCen9V6/6g/1OtO1VV11j1j+8Pb1dPoJEJLUhqVvFW09IVYJEhMBAIiabUH6fIBEBAACShE+KaAitZJdEUqef/cLMmrGwxHsRnUiTINMQ56sbfc8KJ617aPUfrazTPosWPmSXJbF0TO2jY/buNcj2IJQ8k2zT8br9oo9dr3r3OS4Sej9odYOZPGl2iagnYnw7n0Rct3abPa56IHbt0tseK77eF4k37eNEXzwH9l0+D51T31uH2OXvXXOdFa7aXud3++AxVsppnZOITiBOvWeemThhpl23cMHvSl2Xp558rsTnqSei1usaDxs63opWtU/rtv7xgBV+zZtfb8VvtmufuZ3aoh6b7jNUdr0UG/xrQ1tetvQRe82bNWuR3i4fQSKS2pDUreKtJ6QqqcDvz3Gp8Mc4FAokYrIp7/dJoUAiAgAAJIlsUuTxLYfscOZ63/xW+j8QL/dseyEtETXMV9uqZ5wkmJYl7TTsV6Jr0+93W1Go3nlOlk0YN91ut+K3v7fljY/9yZY1WYuk17Sp82w5Hok/rVMPvnjWPrS1xHY+iaiegm74sd4LGP/MbJEw1XY6r8x16lGodeoJKImodrnJTtRrsPMtPdLbSiAqWu/2ceu07c86/qLUdfFl5vQHTMuWbew11rbqZfjbZRvsuvgw5WzXPnO7siSiRKd6UEo8SmguX/poert8BIlIakNSt4q3npCqpIzfn5KHWve0LQEUBiRissn2+6TQIBEBAACShE+K7N1zKv0+QUXDjjX8NbW5mTVzUXo4s1u/+MG1dp2W9f5ECTKVJb2UuESU6NJ2U++ea8uZuWPkpPRxXSo7nFkyTe1UGyTHNPRanzFwwB0l9suMhKa2k4DMXOdEpHr6SSLGhzzrc9TT0JX1OZKIGgLuzi8e9Q7MvC6ZUc9MbaNlnc+C+aus2FVUF5eD2a595naZElHXzK2bP2+lvWY6hiTk7F//Jr1dPoJEJLUhqVvFW09IVeL5/enkofJuKvwhDoUEiZhs9J2FABIRAAAgSfikyNgx95SQhC6ScENuH2slYnxilbhE/K9O3e2QWPWEU1k96EpIxOgde3PvW27L6vGoiVwUvVfRN/FJZSWihgvrM/RZkm+K5JneGRjfzxcNs3aiLh69c1ByTr30MiWi2jnk9nHp8k03dbISUT021Y5fz3owfa5616CGFmdel8zoe7hz4pc9GBX1aNQ+Wo7LwWzXPnM7SUT1NtSyomHOWrdvz/PRcOkXzOrfbbbvedTnawi327aqQSKS2pDUreKtJ6Qqif3+jMtDF3ohQqFBIiYbfWchgEQEAABIEj4poklDUqusENPwXUklDe1VnURcWRJR79Dr+NOudnnlio1WuKlHX6Ys27HtsC2rt54+Qz3eVM4coqxIzkkOSmzFkzksOVMiShh+/z9/WGIbtUmfo/cHPrbhKStF9fnxbRSdp7bTuxrVE1PiT+8aVJ3kobbJlIh6F6KGWUsO6jwk4Nw7ESX31PNQPQt1fXX9NMlLeRKxzQ9vstJzw6M7bVnvgdR56pqoLCGo42o527XP3E6zVatnpma4dtfDSUTt43of6ntWWeeucj6CRCS1IalbxVtPSFXyH8262HuLEELylBBAIgIAACSJbFJEvRFTq9OR9FIvPK0rSyKq15/EkyJRJamldSujdyDGZ/u9e8p96eMr7viZkTCLb+eSKQjjElHiS9vEhxcrGqqstquHnhOXmZOZuLhZjeOfqQlTdAyt73vrUCv53PZ6j6CEn9tWUs+1UdJTn+vWSS6qh5+TiNlmQZbA1KQq2sa1Rb0kJQC13p2DrnO2a68Zl+Pb/WHj7nRb9FOzP7teipKqqpcA1XHu8Awvr0qQiKQ2JHWreOsJqUpivz99PRHdOoBCQU9EyAdIRAAAgCRRlhSRiFuzekt6eGxFox5tklxOtmmIsptRODMa6qvPiM/+XKioB6JmVnbt9EW9MNVjUe8slPDzbROPtpEQ3LXzmHedehxu3rS31Lryovcqaqix3leZuU6fpWuu5bKufXw7ndcf/7DPe+5PbH/GSs+KnG+uQSKS2pDUreKtJ6Qq8fz+zJSJKgMUCiQi5AMkIgAAQJKozVJEMxz7ZmAm1RckIqkNSd0q3npCqpIyfn/GZSJAoUAiQj5AIgIAACQJpAgpZJCIpDYkdat46wmpSirw+1Mykd6IUCiQiJAP+L0FAACQJJAipJBBIpLakNSt4q0npCpJ+u9PKDqQiJAPkIgAAABJIgQpovfyVcf790h4QSKS2pDUreKtJ6QqQSJCYCARIR8gEQEAAJJEdUgRTViSOrQZP25aum7ihJm2btHCh9J1v+o5wM4inDnbc0Wj2ZM3PLrTuy4z27Y+bT9fMzj71pPCBIlIakNSt4q3npCqBIkIgYFEhHyARAQAAEgS1SVFGjduZtr9uGO63OaHN9n/yOz1q4Hpuquuusa0v6lTpSVivW9+y0y9e653XWZGDr/T/Pf//jXbBs1Y7NuGVH+QiKQ2JHWreOsJqUqQiBAYSETIB0hEAACAJJFNisyaucjUrftNK96aN7/ebN6019aPumOy6dnjNisF/+Zv/pdp2uQ/vFLutv4jbC9DLR86cNYep+NPu5p//ud/s3Wut+KUyXOsRNSxune71crEb/3Tv5gVyx9LH6tf32G2Lf/4j3XNLf/1S3u8Hr/sb/fX9tr/yR3Pmk4/+4U9jrb99awH0/srOubIEXfZ9aNHTUnXDxo4yopNnaPWtW37E7Nr5zHbc7Hhv19thtw+1n6ucu+vF5c4Jsk9SERSG5K6Vbz1hFQlSEQIDCQi5AMkIgAAQJLwSZGH1zxu/4Pwvzp1N8uWPmKaNWthvv3tq+y7CzUEWet69xpkpt4zz4o3LWceY+mS9XY7CcZVKzbZ5T9s2mN/PrH9iFnx29/b5T/+YZ+VgFpu8R8/sKLu6kbfs70UdZyHVv/RfsasGQvtUGgtaxjz+oe3W0mpz96x7bAZOOAO871rrrPH7XvrEHu8fXuet8dYt3abLastXbv0tufi2nnzT26x60YMn2jboWMOuX2claaql/Rc9MBq88vufa0IPbCPdzdWJUhEUhuSulW89YRUJUhECAwkIuQDJCIAAECS8EkR9Qhs8K8N0+V1D2+3/4H4h427rURUD734tq1b/zhddnE9DefMXmIFnwSh6jUEedrUeXZ4seup6CTi7l0nbFn7SNhpWQJwyeJ1tvfhpt/vtlLPDYmOD2fu0OHntrfhmtVbrOxc/OBas+dPf7br1HPSvQvRyc2Nj/3JliURJR+1rKhnpASmk4jaXvU6ptobf6cjyT1IRFIbkrpVvPWEVCVIRAgMJCLkAyQiAABAkvBJketb/sgOG3blvbtP2v9AVC8/ScQbbrg5vU7Dlp0gzIyGOmt7vR9RQ4lV94uuva24k3jU8GbVueHMbj8JQH2eltV78UdtLr9PUWJR8UlEST/1MNR2kn3Dh02w9ZKPOrb2U72GP2sbiU2tV1s639LDLitOMm7auNv+VK9Jt07no6HVrkxyDxKR1IakbhVvPSFVCRIRAgOJCPkAiQgAAJAkfFLk1j63m+//5w/TZQ0pTm1qhwdLCsYnTClLIup9g+odqH3Vm1F1c+9bbkWexJ56JKpOEjE+sUpcImpItXpFqheiyi1btvFKRPVAVE9G9ZYcNnT85c9cu80sXPA7u6zPXTB/lY3ar/cmaj9JxPj5jBl9t22b64noeiyqJ6JE5B0jJ6W3JbkHiUhqQ1K3ireekKoEiQiBgUSEfIBEBAAASBI+KbJyxUYrzCTzVO72iz7p4cC5SMTfLttg/8My3svwT08dT/8H5+NbDtm6siSi3sfoeiy6dml4ssoSlJroRcuaGEX1emfhE9ufsfvrXYxqa1yIuuNoveSoJKKOKUm5ZfN+25tRPR+dRNRw7YP7z5i77pxly2sf2lriWCS3IBFJbUjqVvHWE1KVIBEhMJCIkA+QiAAAAEnCJ0XU6+4HrW6w/1EowSYJuHzpo3adTyJmSjoXyTcdI769oncqup6ASlkSUT0I1QZFw5ElFLVu9ao/WMGnZfVGfGD+qnR7FX2m3olo199zuceji85Pn6cejZKImnlZ2ykSk5KJTiK6npQ65oDbRpQ4Dsk9SERSjFGP53g5dauUKLve04RUJUhECAwkIuQDJCIAAECSKEuKSKZpFmTJQN/6QkXDqH+/YZeVfyprlmW961DL6nXolnftPGZW/25zeoKWikQSUT0t9d5HDYV29U4iPvXkc7Ze6+P7kcoFiUiKMZKEX/96nbRMTN0q6XotIxFJPoJEhMBAIkI+QCICAAAkidouRZxEzKx3ElFiMnMdqXyQiKRYk7o9bCQT3fIVV/wP+9O3PSG5BokIgYFEhHyARAQAAEgStV2KzJm9xA6FzqyXPNRQ7f17T5daRyofJCIp1rheh5mhFyLJV5CIEBhIRMgHSEQAAIAkgRQhhQwSkRRzUrdIqfi2I6QyQSJCYCARIR8gEQEAAJIEUoQUMkhEUszJ7I1IL0SSzyARITCQiJAPkIgAAABJAilCChkkIin2pG6TdHzrCalskIgQGEhEyAdIRAAAgCSBFCGFDBKRFHtcb0R6IZJ8B4kIgYFEhHyARAQAAEgSSBFSyCARSW1I6lbx1hNSlSARITCQiJAPkIgAAABJAilCChkkYuHSu9cg06/v7eaaxk3if+QRUnT53jVNTePUff7dq79nFi74nfd5KIYgESEwkIiQD5CIAAAASQKJSAoZJGL1p0/vQWbQwGH2j7px48aZ7du3G4BiRve4S7Nm15prrmlqFi16yPt8JDlIRAgMJCLkAyQiAABAkkAikkIGiVi9ua3/EPvHnOQhQG1FMrFp02vt8+B7TpIaJCIEBhIR8gESEQAAIEkgEUkhg0SsvgwYMNSMGjUm0igAMGrUaDPgtqHe5yWJQSJCYCARIR8gEQEAAJIEEpEUMkjE6ol6XN1xx+hInQCAQyKxWHokIhEhMJCIkA+QiAAAAEkCiUgKGSRi/rN40UN26CYA+Ek9uqZ370He5ydJQSJCYCARIR8gEQEAAJIEEpEUMkjE/EeTSDB5CkB29I5QTTbke36SFCQiBAYSEfIBEhEAACBJIBFJIYNEzG8WLvidnY0WAMom9fiaXr8a6H2OkhIkIgQGEhHyARIRAAAgSSARSSGDRMxvvnv198y2bdsiTQIA2VBvxP79kv1uRCQiBAYSEfIBEhEAACBJIBFJIYNEzG8aN26S+KHMr732mjl06JB5/fXXo5rw+PTTT80HH3xgPvvss6gGkoaeEz0vvucoKUEiQmAgESEfIBEBAACSBBKRFDJIxPzmewl+H+KxY8dMo0aN4n+AmiZNmpiTJ09GW5TP4sWL7X5LliyJairHQw89VKIdSseOHc3mzZvt+jvvvNPWbdy40Zazod5u2k5StLLo/HWMbt26RTVfsnTpUrtu+PDhUY0xW7dutXWdO3eOaiAbuk6+5ygpQSJCYCARIR8gEQEAAJIEEpEUMkjE/CbVpEiPJAv16qtbt65tf7169cz48ePtT5Xr169vPvzww2jLslm0aJHdRzKxKqxevdoep0GDBqZv377mxhtvtGXl7NmzZtOmTWbAgAHm6NGj0R5+Ro4cafc5ePBgVJM7J06csMfo0qVLVPMlkqVaN2zYsKjGmC1btti6Tp06RTWQDV0n33OUlCARITCQiJAPkIgAAABJAolIChkkYn6TalKkR5LFggULbNtbtGhhPv/8c1unocKNGze29cuWLTN79uyxPRNnz55tpd7kyZPttuoVKAGpXozdu3e32zuJKBnYsGFDc+WVV5r27dubV155xdbPmzfPHkvb6TN27Nhh6x1OIsblXIcOHWzd+vXrrbzT/rt377brdu7caZo1a2Y/R7LviSeesPVxifjiiy+a1q1b27z00kvm8OHDpmXLluaKK64wzZs3t8dwrFu3zrZbIlVt0DEqIxHPnz9v26n1vXv3NnXq1LHn8eqrr0Zb1250nXzPUVKCRITAQCJCPkAiAgAAJAkkIilkkIj5TapJkR6pOfQuw1zfZzhw4EDb9hkzZkQ1l5kwYYKtHzFihB1KrGUX9VbcsGFDuux6MiqSg7t27bLLknSSk1qWlJOcdHLPJXMymkyJeOHCBSv1VCdJFx/OLDnojuOkp/LGG2+kP0eS0u2vIcjvvvuubZfKEolun1OnTpm33347XY6fU2Uk4ltvvZXeX4LTLeszAYkIkGeQiJAPkIgAAABJAolIChkkYn6TalKkRwqPer3de++95tprr7XRsuoqws0332zbLgEWR73+VC+B5iSixJoEoejXr5+tcxLQvVNRErFHjx52efny5bYHonoAqvzUU0+l5V7btm3t8ORMnERU4vJN4u+dd94pIRHvueceuzxt2jS7r867VatWZv/+/enPcTJQ70gUapPKar/aNnHiRFtW78o1a9bYZUlSofcdqlwViahzuHjxonnzzTfT8lKSs7aj6+B7jpISJCIEBhIR8gESEQAAIEkgEUkhg0TMb1JNivRI4fnLX/4S/+PRRnUVYejQoXb7u+66K6q5jJNwY8eOTUvEuDBzck6zJYu7777bliURXe/DzKxYsSJ93Mcee8zul4mTiJJvGg7cpk0bM2fOHPPCCy/Y9XGJ2KdPH7uc2ZtRuM9xcRJR5xmvd+nVq5cddqxlJ0o1ZFpln0R0MlI9OR06J9V17do1LRHbtWsXrTVWnKrumWeeiWpqL7oOvucoKUEiQmAgESEfIBEBAACSBBKRFDJIxPwm1aRIjxSeqkhEvfNQ26snoYYbC4lBTaqies2W7CRiXDSqx5/q9I5B4YZFSyJqNmUtq7eeZn7Wewkl5tQbz8m9+HsI4/jeiRgnLhElF7WsHoRC7VQvQg1Ndp+jmZL1U5GInD9/vl3WpC1q25EjR2zbzpw5Y6ZMmWLXrVy50h5P70dU2ScRDxw4YNfpnYruXZKTJk2ydRKq8Z6ITrQ68ereD1mb0XXwPUdJCRIRAgOJCPkAiQgAAJAkkIikkEEi5jepJkV6pPBUZTjzxx9/nBaGEmJ6F6J6AKqsdwlKgPkkopNxehehhJ+WFUlEt07H06zNTp69/PLLeZWIJ0+etMtqv4SiG/6s9yi6z5HAdHJPw4yfffZZu6xt1Vb3XsS1a9ea5557Lr1OPTA1GYrKPomoWa21TtFM0upx6MqPP/54iXciqoejE6tqq5OOtRldC99zlJQgESEwkIiQD5CIAAAASQKJSAoZJGJ+k2pSpEdqjspMrCJOnDhRYmISRTMeP//883a9k4iScQ5NQhLfx733UGJOPRpHjx6dlnquXji5p/cj+lDPR63X+wh9uOHIkohCPQrdZyiuF2FcIuqdhK4tGqKsocgSf24fHcP1wuzZs2e6XkOp9VPDk308+eSTJc5RmTp1ql3nJKIEqttGPzXTNSARAfIMEhHyARIRAAAgSSARSSGDRMxvUk2K9EhykYA8fPhwhSf++OKLL+zkKO+//35UUxKJOfUW/Oijj6Ka6kETrqgXYa6fc/r0aW+PTV2H1157LSqVj4Ynawi1E5HCScT27dvbnofnzp1LD2sGJCJAnkEiQj5AIgIAACQJJCIpZJCI+U2qSZEeASgpEaE0uja+5ygpQSJCYCARIR8gEQEAAJIEEpEUMkjE/CbVpEiPABhz6dIlO/TaTfoCJdHz4nuOkhIkIgQGEhHyARIRAAAgSSARSSGDRMxvUk2K9AgAlIeeF99zlJQgESEwkIiQD5CIAAAASQKJSAoZJGJ+k2pSpEeSi94DeOjQoUpNzlIeH374oU0o6P2EmmE5/h5DKBx6XnzPUVKCRITAQCJCPkAiAgAAJAkkIilkkIj5TapJkR5JHseOHTONGjWK/wFqmjRpYidFqQiaEXn27NlRqSSaVEQzPeuYAwcOjGorh2aLjrdRqVOnjpk5c6ad5KUstF7ba0Zpceedd9qym+UZCouuve85SkqQiBAYSETIB0hEAACAJIFEJIUMEjG/STUp0iPJQr3x6tata9tfr149M378ePtT5fr161eo96ATkD6OHj1q10lK7t69O6qtHE4iXnnllaZv376ma9eudll1Q4YMibbykykRN23aZAYMGGDbB4VH34XvOUpKkIgQGEhEyAdIRAAAgCSBRCSFDBIxv0k1KdIjyWLBggW27S1atLC9BoWG+Eq2qX7ZsmVm586dVgIuXbrUrj9y5Igt33///Wby5MnmiiuusNu2bdu2xPDgs2fPpgWjROWcOXNs/cKFC62gVL3Wb9u2zdbv2bPHHle9Gm+88UZ77DhOIrZp0yaqMeYvf/mLrVPOnz9vPvnkEytC9XmKej9+/PHHpSTikiVL0mKze/fudvnUqVN23erVq21ZPSyzHU/yVduMGjXKCk21t3PnzrbupZdessfR/io//PDDtgxfou/C9xwlJUhECAwkIuQD3Te6lwAAACAJIBFJIYNEzG9STYr0SM2hdxnm+j5DSTG1fcaMGVHNZSZMmGDrR4wYYR555BG7rNmGhaSiysOGDbNi0EnELl26lJCIkmmtW7e26yQNFy9ebGcrVlmRYHPLGjq9efPmdFmRvIvjk4jC9ZzU+xwlHrUs4degQQO73KtXrzKHM0+cONEuz507165r166dLWuYd7bjvf/++3bZReeia6XlBx980B5HYlFltRtKouvie46SEiQiBAYSEfIBEhEAACBJIBFJIYNEzG9STYr0SOFRD7x7773XXHvttTZaVl1FuPnmm23bt2zZEtVcZv369bZeYrAsiSjKGs7sth03bpwtq8ejyjt27LDlqVOn2vLw4cPTElHCbteuXXZ9nGwS0YnKffv22Xckavn48ePm3LlzacGpnoP66ZOI2lbLkofqZahlCUOR7XhvvPGG/amox6Emajl48KAt65q64zRs2NAeB0qia+N7jpISJCIEBhIR8gESEQAAIEkgEUkhg0TMb1JNivRI4YkP6XVRXUUYOnSo3d4JQsfIkSNt/dixY0tJxCeffNKWKyMR3TsMP/roI1vWcGKV27dvn5aI7riZZJOIko6qz+wdGM8LL7xgf/okonC9DB9//HH7U3JTYlDLvqiXon7GJaF6O7q2aIi2fk6bNi1aC3F0bXzPUVKCRITAQCJCPkAiAgAAJAkkIilkkIj5TapJkR4pPFWRiHrnobaXCHRDkSXP3DsLH3roobTck1gU6nmncmUkottWPfuE+3y9V9B9TqbQdPgkoiZIUZ2GEwvXU/DAgQNW9O3du9f2apS0VH02ieh6RLoh1mfOnLH12Y739ttv23r1rIwzZox9rtLHOX36dLQG4uja+J6jpASJCIGBRIR8gEQEAABIEkhEUsggEfObVJMiPVJ4qjKcWcNunTBs3ry5fReiE2DqZSehqAlHVJZQGzRokF1WnESUmFNZQlC98eJkSkT3jkHJxClTpqSHC0sgVlQiqjdjp06dTMuWLW1Z0fsWRceOHW25d+/eZtasWXZZ5ydBquVsElHSUOX4NiLb8S5cuGCXMyWiJp1xx9E5gh9dH99zlJQgESEwkIiQD5CIAAAASQKJSAoZJGJ+k2pSpEdqjspMrCJOnDiRFoEuzZo1S08IolmbNfOwW6eegPqp9xgK14tPkXSMkykR9W5CCUC3veImUHEScdKkSbaciZOI8UjUPfDAA9EWxrz66qumW7du6fWSlHpXYubEKhKVKjuJKNw1uO+++6Ka7MdzQ6clMjNxE71kTlYDX6Lr43uOkhIkIgQGEhHyARIRAAAgSSARSSGDRMxvUk2K9EhykYA8fPiwnTTEh3o3qgeej4sXL5p33nknKpWPtj169KiVitWB2qOhxPHZoqtCLsdzPSRffvnlqAYy0fXxPUdJCRIRAgOJCPkAiQgAAJAkkIikkEEi5jepJkV6BGorGhru3qHYoUOHqBZ86Br5nqOkBIkIgYFEhHyARAQAAEgSSERSyCAR85tUkyI9ArUVDeXWbNd6N2QuvTJrI3pefM9RUoJEhMBAIkI+QCICAAAkCf1RQkghE916iUTt9/1xX1NJNSnSIwBQHnpefM9RUpL0359QdCARIR8gEQEAAACgOEEiAiQXPS++5ygpQSJCYCARIR8gEQEAAACgOEEiQrGhGaT/8pe/2HcrFjt6XnzPUVKCRITAQCJCPkAiAgAAAEBxgkTMDw899FD8D0+bK6+80nTp0sW8++670Vb545NPPrGf0apVq6im8qidderUiUo1y9mzZ83MmTPN/v37o5qK8/nnn5tZs2alJ2VRmjRpYk6dOhVtUTl0rXXcdevWRTXhoHP0PUdJCRIRAgOJCPkAiQgAAAAAxQkSMT+sXr3atr1hw4amb9++pmfPnlbMqU7lfKNedjp28+bNo5rKI4mohMDmzZvteU2bNi2qqTjz58+3+0oiDho0yApEV75w4UK0Ve68//779jht2rSJasJB7fI9R0kJEhECA4kI+QCJCAAAAADFCRIxPziJOG7cuKjGmC1btti6Ro0a2fLhw4dNy5YtrdSS/Nu5c6et1/Db2bNnmwYNGljx2KlTJ7Nr1y67TkiOaV29evXMwIEDzenTp9MSUcfu1q2blYA69pkzZ+w+6j03fvx4U7duXRvt54b3Hjt2zG6rzxoyZIhtj08iHjp0yLbzzjvvNDfeeKM9jmZN/uijj+z6ypzPvHnzrNxbvHixady4sdmxY4etF+qFqPPReelcV65caesXLlxo6tevnz7fbdu22fo4mtFZ7dA28WvXvXt3W6eZntU+ffbSpUvtuiNHjtjy/fffb8u7d+82nTt3ttdCwnDDhg22vn379vYYOv6IESNsnbZ1klJt1fnqvC9evGivhSSmPlvXTBJZbdL2Ki9ZssQeQ+i+kXjWZ+pzXnnlFVtf1nWKo8/3PUdJCRIRAgOJCPkAiQgAAAAAxQkSsTSSZ0ouOInYr18/K/JOnDhh+vfvb+skkTSk2UkuiTf9VDTUdu/evXZZwq1Dhw522Uk9N0xa+8ZFmpOIblvX61GyT0yePNmWJa0k87Tcq1cvu86VtZ9+uuVMtm/fnl6v47jlxx57rNLnM3LkyPS2SlwIvvTSS6ZFixa2Xm3U8OE1a9akt3XSTjl58mS012UkIN06CUWHxN5nn31mfz7yyCN2/V133WXXSSqqPGzYMCtG1UZF35t+6vzUC9GJSNVNmjTJvPji5ftUibdJwu/8+fPpsrZ3y4r7jpQ333zTikUt63PceUtIqr1lXac4Wud7jpISJCIEBhIR8gESEQAAAACKEyRiSdTr7e///u9ttFxRnETMjOSbeqctX77cliUZ1dts4sSJtizZp15tKu/bt88uOzl36dIl07p1a7ssMScRpl6Heg9iXFZ98MEH5p133rHLEo3CCavjx4+bc+fOpY8pwamfEn/qrbhx40ZblvDKxElEbSvJ5raVFK3s+Tg51rZtWyv+MskczuzkmuuJN3XqVFsePny4LTuckJPUy0ZZElHSV8v6vtRrUb0Q9fPll18uNZxZ+6s8YcIEW96zZ48tS+6670UyUDJz7ty5tiwRKVyvxoMHD5oePXrYZV1LXUP3XT/11FPlXieHtvE9R0kJEhECA4kI+QCJCAAAAADFCRLxS9T7UPJQbVC0XNEeiU4iSnrdc889Vky5nmhr165Ni6fMqHegZhKWGMxcJ+nmegC6IcQO1xNRQ10dKmt7ySt3jMzMmTPH/pwyZYrdxx2nLIk4duxYW9a1UFnyq7Ln4+SYejP6yJSI7hq685eUVFkyLo56QKpewjLeE/Htt982zz33nO35lykRn3zySVvWdyWcxHPR0GYJ2kyJ2LVrV1vW9RHx6+0kou4D4T5z+vTptqzro7IEqxOkmVmxYkW518mhbXzPUVKCRITAQCJCPkAiAgAAAEBxgkT8knxIxPg7EfWePNWp15yb9EO9+PROQr2PT73n1DNQ7yvUOsm6119/3fZiU1nSrV27dnZZYk7oXXl616F6N6o+PrGKypKIwvX+O3DggP089WTU56lHn+rd0OY33njDlsuSiK7HXVwiVvZ8nBxz70/MJFMiunckqkelUO9AlfW5cSRD3Tlv3brV1qnnprt+aps7ttog9M5FlSUR1U4JSg2f1vV1PTnVSzBTIur7VPmBBx6wZde7U+dZUYmo2ac7duxol/WORF1D9U5UOyU8y7tODm3je46SEiQiBAYSEfIBEhEAAAAAihMk4v+/vXsPlqI88D6+/7219cbdPzblVlJmd4utuBXfjZsli6IHlNcNMRRrWGMkhA0B4QWBgILIReQcQOSioBJEEbkJEkDkEtHoEhVUvKB4AS9gQFC8sN7viYpiv/N77GfS0zwznDPnYc7TPd9P1a+Y7unu6Rl6puBXT3eXau3pzMkS0RZIQ4cOjZ555hnzWGWdrp1nryOoUYoqxPRYp75ec8015rGiUXCLFy82j1WGafSgHnfu3Lk4grBciWgLqiFDhkSzZ882j3Wqs05htmWbyjN7Tb+WlojVvp8jlWP2ZjQ6jVfFob22o8pEvX9b7qkQTLOfj6KbudhrSGrfJDlaUTc+scvqc1CJp8f6PDZs2GDurq1plZbabz3WZ6sSVkWfpvXetX8aDappvbfmlogqd20Rq7/DRYsWFUed6hRqSkSgTVAiwgdKRAAAAOQTJeLhVJY1dwSiZW+AkiwR7am39jqFGtVmb2qiqGzTTTT0WiqkNE9Fkh19p/V1rcPkzTtUomnUn8pATZcrEQ8cOGCun5hcT6fQika+2fn2zsCuEtGOWtT1DUV3Y9a0Cjap5v3YckzX/XN5++23i9vU66rAUyGoaRuNFHTRZ9LY2FiyrLalglAOHTpkTlG2z2lkof6011fUnartc4qKWHtqtC1l7edtr81oo5L3gw8+KJaItrhUIalpV4moz0r7az8rRYWsHOlzsrSM63uUlVAiIjCUiPCBEhEAAAD5RIlYe3v37jVlU5LKKt1AQ6fgpmmeRqdpJJ2KsJbQac96PRVWSTpFV6fhul6vpVr6fppD2/vkk0/iqciUqc8++6wpFY9E10/USEndUMb1eWnbKvxcPvzwQ7OuCsk0vbY+N0unZ+t6iyo+W0N/N7rbdPq6l82h74vre5SVUCIiMJSI8IESEQAAAPlEiQhkl74vru9RVkKJiMBQIsIHSkQAAADkEyUikF36vri+R1kJJSICQ4kIHygRAQAAkE+UiEB26fvi+h5lJZSICAwlInygRAQAAEA+USKGR9faq+b6eKg/+r64vkdZCSUiAkOJCB8oEQEAAJBPlIh+LFu2LPkfTxPdGfjuu++OlyjvoYceMsvrTr26IYke647GbUV3C9bdnBE+HSuu71FWQomIwFAiwgdKRAAAAOQTJaIfS5cuNfvesWPHaNiwYVHPnj2L/xHdsGFDvJSbLREnTJhg7iY8YsSIaNasWfGztacSUUH4dNy4vkdZCSUiAkOJCB8oEQEAAJBPlIh+2BIxWf6tXbvWzGtoaDDT27dvj7p27Rodc8wxUZcuXaItW7aY+ckS8YsvvjDLDxgwIPrwww+jzp07R926dYu+/PJLs+wll1xint+5c2fZ7W3dutUsc+2110Y9evSIpk+fHh08eDCaPHly1K5dO5ORI0dGn332mVle29J2NPpw9OjRZnuUiNmg48b1PcpKKBERGEpE+ECJCAAAgHyiRDzck08+adISrhLxwIEDxf+Mvvfee6ac02MVdnb+nj17SkrE9OnMKgc1/cwzz5jnbMH31ltvld3exo0bi9OKykMViXqsAlGnWevx4MGDzWvYaW3XrkOJmA36u3J9j7ISSkQEhhIRPlAiAgAAIJ8oEUstXLgw+ta3vmWix83lKhF1arLmKfaaicOHD49ee+21aMqUKWZa5V6lEnHBggVmWqMKH330UfP4oosuipYvX24eu7ZnS0QVhtq2aJSh5u3atSvav39/sYDct2+f+VNFpEYr3nnnnWaaEjEb9Hfl+h5lJZSICAwlInygRAQAAEA+USL+mUYfqjzUPih63NwRia4S8ZVXXjHzzjjjjGjq1KnF7Saj0YCVSsQ333zTTHfv3j2aNm2aeazTlSttz5aIY8eONduw23Rl7ty55s8ZM2aYZXWKs6YpEbNBf1eu71FWQomIwFAiwgdKRAAAAOQTJeKf+S4Rx48fb+ZNnDgxmj9/vnmsm67oGoQ7duww5aFGAlYqEUXXRNS89u3bmxGFuj5ipe3ZElFFo2VHHj7++ONmeY1q1PL33XefmW9PbbalJSViNujvyvU9ykooEREYSkT4QIkIAACAfKJELNXa05l1fcHevXubwk/Tigo+XdNQj1XOLVmypHgdQ9185Ugl4s0332zmKY2NjWZepe25SsRevXqZeUOGDIlmz55tHp9wwgnmFGZbMGrkom7IoseUiNmgvyvX9ygroUREYCgR4QMlIgAAAPKJEvFwGn3Y3BGIli0RkznzzDOLd0wWXcfQ3sRE0ShC3Y35SCWibspi11EhaZXbni0RdfqzpZu89O/fv7isRjQ+9thj5rnkvqv8VIFIiZgN+jtzfY+yEkpEBIYSET5QIgIAACCfKBFrb+/evdH7778fT7VeS7b38ccfm+VVNiZ99NFH5lRonSqNbNi8eXN06imdnN+jrIQSEYGhRIQPlIgAAADIp9BKxI4dG0w5AqAyfU9OKXxfXN+jrIQSEYGhRIQPlIgAAADIp9BKxOHDLo4mTZoU1yQAylGJePJJpzq/R1kJJSICQ4kIHygRAQAAkE+hlYiDzx9p/vMGoLLOnU+LFi1c7fweZSWUiAgMJSJ8oEQEAABAPoVWIioXjRzLaESgAnMqc8avh6hQIiIwlIjwgRIRAAAA+RRiifiroaPMf+AAuHXqdFq0ZNGtzu9PlkKJiMBQIsIHSkQAAADkU4glonLBBaOjCRMa48oEgDVhQlN0YeH74freZC2UiAgMJSJ8oEQEAABAPoVaIiojRoyhSAQSLr200XwvXN+XLIYSEYGhRIQPlIgAAADIp5BLREUjEnXqpq4BB9QrXSO08HXNzQhEG0pEBIYSET5QIgIAACCfQi8RlZsWrzE3kbBlog2QZzrGJ06caMqMiy4aGw0dcpHz+5HlUCIiMJSI8IXfNgAAAORPFkpEm4U33hKddNKpUceODdGpp3RK/kePkNxFx/nwYRdHg88f6fw+5CGUiAgMJSJ84bcNAAAA+ZOlEpG0XQqHinM+Ia0JJSICQ4kIX/htAwAAQP5QIpLmpHCoOOcT0ppQIiIwlIjwhd82AAAA5A8lImlOCoeKcz4hrQklIgJDiQhf+G0DAABA/lAikuakcKg45xPSmlAiIjCUiPCF3zYAAADkDyUiaU4Kh4pzPiGtCSUiAkOJCF/4bQMAAED+UCKS5qRwqDjnE9KaUCIiMJSI8IXfNgAAAOQPJSJpTgqHinM+Ia0JJSICQ4kIX/htAwAAQP5QIpLmpHCoOOcT0ppQIiIwlIjwhd82AAAA5A8lImlOCoeKcz4hrQklIgJDiQhf+G0DAABA/lAikuakcKg45xPSmlAiIjCUiPCF3zYAAADkDyUiaU4Kh4pzPiGtCSUiAkOJCF/4bQMAAED+UCKS5qRwqDjnE9KaUCIiMJSI8IXfNgAAAOQPJSJpTgqHinM+Ia0JJSICQ4kIX/htAwAAQP5QIpLmpHCoOOcT0ppQIiIwlIjwhd82AAAA5A8lInFl4Y23lEwXDpWS6cHnjyyZJqSaUCIiMJSI8IXfNgAAAOQPJSJxRSXhN795XLFMLBwqxfl6TIlIfIQSEYGhRIQv/LYBAAAgfygRSbkUDg8TlYn28THH/JX507U8IS0NJSICQ4kIX/htAwAAQP5QIpJysaMO02EUIvEVSkQEhhIRvvDbBgAAgPyhRCSVUjhEDotrOUKqCSUiAkOJCF/4bQMAAED+UCKSSkmPRmQUIvEZSkQEhhIRvvDbBgAAgPyhRCRHSuEwKcb1PCHVhhIRgaFEhC/8tgEAACB/KBHJkWJHIzIKkfgOJSICQ4kIX/htAwAAQP5QIpLmpHCoOOcT0ppQIiIwlIjwhd82AAAA5E/oJaJGv114wejolFM6Jf9jR0hdRcf/ySefGi1auNr5PclqKBERGEpE+MJvGwAAAPIn5BLxwgvHmP/ITZo0Kdq8eXME1Csd/0qnTp1Nqe76vmQxlIgIDCUifOG3DQAAAPkTaol4SseGaMKExrhCAWA1NjaZkYmu703WQomIwFAiwhd+2wAAAJA/IZaIGoHY1DQxrkwApKlIzMOIREpEBIYSEb7w2wYAAID8Ca1EXHjjLeaUTQCVFb6+0ZDBFzm/R1kJJSICQ4kIX/htAwAAQP6EViKefNKpXP8QaAZdK/SC4dkejUiJiMBQIsIXftsAAACQP6GViLrWGyUicGT6nmT92oiUiAgMJSJ84bcNAAAA+RNaiVjYpbgiAXAk+r64vkdZCSUiAkOJCF/4bQMAAED+UCIC2aXvi+t7lJVQIiIwlIjwhd82AAAA5A8lIpBd+r64vkdZCSUiAkOJCF/4bQMAAED+UCIC2aXvi+t7lJVQIiIwlIjwhd82AAAA5A8lIpBd+r64vkdZCSUiAkOJCF/4bQMAAED+UCIC2aXvi+t7lJVQIiIwlIjwhd82AAAA5A8lIpBd+r64vkdZCSUiAkOJCF/4bQMAAED+UCIC2aXvi+t7lJVQIiIwlIjwhd82AAAA5A8lIpBd+r64vkdZCSUiAkOJCF/4bQMAAED+UCIC2aXvi+t7lJVQIiIwlIjwhd82AAAA5A8lIpBd+r64vkdZCSUiAkOJCF/4bQMAAED+UCKG59ChQ9Ef//jH6PPPP4/ntL33338/2rFjR7R///7oiy++iOdmlz5bfcY+38unn34aP6odfV9c36OshBIRgaFEhC/8tgEAACB/6rFE7Ny5s3md+++/30zPnTvXTHfp0sVMy/HHH2/mqTTTn2eeeWb8zNH3wAMPmNccN25cPKftvPfee1GfPn3M/tgce+yx0V133RUvcWS7d+826/Xv3z+eU3svvvhidM0110Tbtm0z05dffrnZpzvvvNNMt8bMmTOjdu3ame2dccYZ0eLFi+Nnjj69put7lJVQIiIwlIjwhd82AAAA5E89loi2QJoxY4aZ7tevn/0Poxmh9uabb5rHJ5xwQvTZZ5+Zx8mC8Wjbs2dPNGLEiOi2226L57QdWyAec8wx0fjx401JZj8rlYPN8fzzz5vl+/btG8+pvY0bN5p9mDVrlplWCarP+NlnnzXT1br77rvNdo877rjooosuMgWrplUE14Jey/U9ykooEREYSkT4wm8bAAAA8qceS8StW7ea1znrrLPMtMpCTSsqle644w7zeOzYscUSsUOHDmYknUqirl27Rvv27TPrHjx4MJo8ebIZiaaMHDnSrKNTZRsaGqIJEyZEw4YNi3r06GGWX716ddS+fXuznXPOOSd67bXXzPyk7du3m3XnzZtnph955BFT5mmd7t27R7fffruZn/Txxx+bolNF1oABA8y+6HUfeughsy1NL1261CyrbWneK6+8YqZXrlxpptetW2emrZ07dxY/l48++iieG5kRkpqn1yn3PtevX2/ep0Z06nPU8rZE1PvTZ6hiUvu8ZcsWM19/L9rWtddea7Yzffp0Mz9Jn4WW0fa0bS375ZdfmtOtNV+vNWTIEFPq9ezZMzpw4IAZhai/P7uO3q8+Cy2v7VXarkpl7aMKR7tdlc727//66683y6uklMbGRrON+fPnm+mjTa/l+h5lJZSICAwlInzRscTxAwAAgHypxxJRxZAKLEXlmF5z6NCh5s+bb765WARplJktERWVeCqR9NiWZSq6NK2S7sQTTzSPBw8eXNyujQoqFXp6rNe1I/pUQKWvy5c8nVnX2dPrKhdccIH50+53kko0+1paxj5W7D4rb731VnTJJZeYx/a0W70XTb/wwgtm2lIRqPm2bLXuu+8+M1/FnOt9vvPOO8VpfS72sUpEnR6t/de0ikT7nEZf2tGCNipnk15++avjQ7GFn7JkyZLo7bffLk4n379eQ2Wp/bz1d6T3lTydudJ2k3//2m+77TFjxsR79WcqLPX3qed1/cha0Gu5vkdZCSUiAkOJCF8oEQEAAJA/9Vgiikap6bVUFOlPW4xpJKFGnumxRtklSyRNv/vuu+axRi+KLeh27dplrp9oCzJ7SrSikW8qLgcOHGimly9fbkYgduvWzUw/+OCDZltWskS0pwKrjFPBqVGI+vPVV1+Nl/6KLRFVYum1NIpR0xotKBr1qOknnnjCRI/PPffc4vvTqMG06667zjzX1NQUz/mKikjNV6GWLBHt+1yzZo2ZtiWgHbmoElHvXY+HDx9uPoMpU6aYaZWxtkTUe1XhmjZ16lTz/GWXXWam7YhSlZm2RNQ+aVSm9jH5d5E+nTlZIlbarv18tK3XX3+95HNO0nxbIM6ZMyeee/Tp9Vzfo6yEEhGBoUSEL5SIAAAAyJ96LRFtedixY0fzp0oglYf2tFd7IxVbImk5S9MqulSY6bEr9lTgZDmXvJ5gMitWrIiX+Er6xiq2bLTR6cgqNJNsuaXXEF1PUdNXXXWVmdboSE0/9thj5jRdO0Jw06ZN5k9briXZ07rtNi1byGnUni0Rk+9Tp/1qni0CdaqwplUi2sIuHe2f3a5OSXax167cvHmzmU5+/rZEPPvss81zohGUmvf0009XLBErbdf+/eu9WppWeZyk7Wi+RrHWkl7T9T3KSigRERhKRPhCiQgAAID8qdcS0d51WVGhJvbafYru5Cu2RFLBaCXXsaPdHn/8cVMcPvroo6Y8s6f0Jgu4Xr16mXm6Hp+W1YhALatRc0nJEvGNN94wJZxG92lknx35qBF9Sc0tEe3diTW6UNP29N29e/ea+Umap+eU5D7q2oeapz9tiZh8n7phjeZpZKLY06JVIupagXZdfQY67Vefga4xaIs+FY0udkTjggULzLTW0bRGACZHIqoEFFuUasRjpRKx0nbL/f2nS0SNGNX6L730UjynNrQvru9RVkKJiMBQIsIXSkQAAADkT72WiGJPP9XIPlm1alXxP4/2mnZHKhFtMajRd7NnzzaPdarzBx98YB4nyzVboGlbixYtKpZc6VOTkyWiHdGosm/Dhg3RoEGDzLROaU5qbomoslP0/jStaPRlOXZUofZ10qRJUe/evYvr6VqDrhLxueeeM/NU6E2cOLFYfKpEfOaZZ4rPaTSovS7i2rVrj1giqmy06+r0ZzuKVHeNTl4TUfts/170d3Ho0KHiXZQ1OlGnnidLxErbbW6JqGJYn5GOoVrSvri+R1kJJSICQ4kIXygRAQAAkD/1XCKOGjXKvJ7KP7HXH1SZpFN+RXdf1rxyJaJupqG7NmueonJJpwzbck0lmaUbqOh0V23fLq8iLU13K9Zz9nTm0aNHF5dXVJDZ0XaWLRHt66lw1HS5ElFsiXr11VfHcw6nMtSe7muj93jPPfeY513vU2zZqeiO0vpT2xGNorQ3oVE0KlGfjS0Rp02bZpZzmTlzZnE9Racvax9tiai/F/v56k9d31D0vH1NXYfRnlatElHKbbfc33+6RJw7d66Zv3DhwnhObeg1Xd+jrIQSEYGhRIQvlIgAAADIn3ouEX3SzTx0+m/6TssuWmb37t3mzsvN9eGHH5pRfCq1fLGjANMjIV30+rq2oE4D18i+5tCp2LoZSTn6vFR+ttSf/vQnM9pRxaBlS0TdQEb7p/1MF62i1/vkk0/iqVKu7YZO79n1PcpKKBERGEpE+EKJCAAAgPyhRKw/OkXXXstRd6nOg2SJWE/0nl3fo6yEEhGBoUSEL5SIAAAAyB9KxPqjEXpjxowx11V8991347nZplGEOkVZN6CpJ/q+uL5HWQklIgJDiQhfKBEBAACQP5SIQHbp++L6HmUllIgIDCUifKFEBAAAQP5QIgLZpe+L63uUlVAiIjCUiPCFEhEAAAD5Q4kIZJe+L67vUVZCiYjAUCLCF0pEAAAA5A8lIpBd+r64vkdZCSUiAkOJCF8oEQEAAJA/lIhAdun74voeZSWUiAgMJSJ8oUQEAABA/lAiAtml74vre5SVUCIiMJSI8IUSEQAAAPlDiQhkl74vru9RVkKJiMBQIsIXSkQAAADkDyUikF36vri+R1kJJSICQ4kIXygRAQAAkD+UiEB26fvi+h5lJZSICAwlInyhRAQAAED+UCIC2aXvi+t7lJVQIiIwlIjwhRIRAAAA+UOJCGSXvi+u71FWQomIwFAiwhdKRAAAAORPaCXiKad0ijZv3hxXJADK0fdE3xfX9ygroUREYCgR4QslIgAAAPIntBLxguGjo4kTJ8Y1CYByVCKefHKD83uUlVAiIjCUiPCFEhEAAAD5E1qJOPj8keY/bwAq69TptGjhjbc4v0dZCSUiAkOJCF8oEQEAAJA/oZWIyogLx0SNjU1xVQIgbcKExujCwvfE9f3JUigRERhKRPhCiQgAAID8CbFEVE7p2ECRCDg0NU003w/X9yZroUREYCgR4QslIgAAAPIn1BJR0YjETp06R5s2beJmK6hrOv4nTZpkio08jEC0oUREYCgR4QslIgAAAPIn5BJR0TXfTj75VHMX2sLuElKX0fE/fNjF5pqhru9JVkOJiMBQIsIXSkQAAADkT+glIiEkv6FERGAoEeELJSIAAADyhxKRENJWoUREYCgR4QslIgAAAPKHEpEQ0lahRERgKBHhCyUiAAAA8ocSkRDSVqFERGAoEeELJSIAAADyhxKRENJWoUREYCgR4QslIgAAAPKHEpEQ0lahRERgKBHhCyUiAAAA8ocSkRDSVqFERGAoEeELJSIAAADyhxKRENJWoUREYCgR4QslIgAAAPKHEpEQ0lahRERgKBHhCyUiAAAA8ocSkRDSVqFERGAoEeELJSIAAADyhxKRENJWoUREYCgR4QslIgAAAPKHEpEQ0lahRERgKBHhCyUiAAAA8ocSkRDSVqFERGAoEeELJSIAAADyhxKRENJWoUREYCgR4QslIgAAAPKHEpEQ0lahRERgKBHhCyUiAAAA8ocSkRDSVqFERGAoEeELJSIAAADyhxKRENJWoUREYCgR4QslIgAAAPKHEpEQ0lahRERgKBHhy6Q4AAAAQH5QIhJC2iqUiAgMJSJ8oUQEAABA/lAiEkLaKpSICAwlInyhRAQAAED+UCISQtoqlIgIDCUifKFEBAAAQP5QIhJC2iqUiAgMJSJ8oUQEAABA/lAiEkLaKpSICAwlInyhRAQAAED+6D/xhFSb//Od053zCWlu4p8iIASUiPCFEhEAAAAAUiiBAOQFJSJ8oUQEAAAAgBRKRAB5QYkIXygRAQAAACCFEhFAXlAiwhdKRAAAAABIoUQEkBeUiPCFEhEAAAAAUigRAeQFJSJ8oUQEAAAAgBRKRAB5QYkIXygRAQAAACCFEhFAXlAiwhdKRAAAAABIoUQEkBeUiPCFEhEAAAAAUigRAeQFJSJ8oUQEAAAAgBRKRAB5QYkIXygRAQAAACCFEhFAXlAiwhdKRAAAAABIoUQEkBeUiPCFEhEAAAAAUigRAeQFJSJ8oUQEAAAAgBRKRAB5QYkIXygRAQAAACCFEhFAXlAiwhdKRAAAAABIoUQEkBeUiPCFEhEAAAAAUigRAeQFJSJ8oUQEAAAAgBRKRAB5QYkIXygRAQAAACCFEhFAXlAiwhdKRAAAAABIoUQEkBeUiPCFEhEAAAAAUigRAeQFJSJ8oUQEAAAAgBRKRAB5QYkIXygRAQAAACCFEhFAXlAiwhdKRAAAAABIoUQEkBeUiPCFEhEAAAAAUigRAeQFJSJ8oUQEAAAAgBRKRAB5QYkIXygRAQAAACCFEhFAXlAiwhdKRAAAAABIoUQEkBeUiPCFEhEAAAAAUigRAeQFJSJ8oUQEAAAAgBRKRAB5QYkIXygRAQAAACCFEhFAXlAiwhdKRAAAAABIoUQEkBeUiPCFEhEAAAAAUigRAeQFJSJ8oUQEAAAAgBRKRAB5QYkIXygRAQAAACCFEhFAXlAiwhdKRAAAAABIoUQEkBeUiPCFEhEAAAAAUigRAeQFJSJ8oUQEAAAAgBRKRAB5QYkIXygRAQAAACCFEhFAXlAiwhdKRAAAAABIoUQEkBeUiPCFEhEAAAAAUigRAeQFJSJ80bGj4wkAAAAAEKNEBJAXlIjwhRIRAAAAAFIoEQHkBSUifKFEBAAAAIAUSkQAeUGJCF8oEQEAAAAghRIRQF5QIsIXSkQAAAAASKFEBJAXlIjwhRIRAAAAAFIoEQHkBSUifKFEBAAAAIAUSkQAeUGJCF8oEQEAAAAghRIRQF5QIsIXSkQAAAAASKFEBJAXlIjwhRIRAAAAQN1L/6c6XSJOiv8EgKyhRIQvlIgAAAAA6p5KwhcLsf+5tiWi5usxJSKArKJEhC+UiAAAAABQYP+DrTLRPn4v/hMAsooSEb5QIgIAAABAgR11mA6jEAFkGSUifKFEBAAAAIBY8j/aNgCQZZSI8IUSEQAAAABi6dGIjEIEkHWUiPCFEhEAAAAAEpL/2QaArKNEhC+UiAAAAACQYEcjMgoRQB5QIsIXSkQAAAAASNF/tAEgDygR4QslIgAAWfFXk2ZEhNQy8aGXSa73Q0hz87/7DXLOJ6S5iX+KgBBQIsIXSkQAALJC/yn57SsHCKlJsv6fYL4vhJC2CiUiAkOJCF8oEQEAyApKEVLLUCISQkh1oUREYCgR4QslIgAAWUEpQmoZSkRCCKkulIgIDCUifKFEBAAgKyhFSC1DiUgIIdWFEhGBoUSEL5SIAABkBaUIqWUoEQkhpLpQIiIwlIjwhRIRAICsoBQhtQwlIiGEVBdKRASGEhG+UCICAJAVlCKklqFEJISQ6kKJiMBQIsIXSkQAALKCUoTUMpSIhBBSXSgRERhKRPhCiQgAQFZQipBahhKREEKqCyUiAkOJCF8oEQEAyIpypcgNDz4c/XzUxS3KTU/tcG6rrbJ6z76o98Wji/s3ecUtxefG3HBjcf6ASZeVrBdKrrtvS9T30gnF3Pz0c87lshRKREIIqS6UiAgMJSJ8oUQEACArypUiTTf/JvkPw2bl6rt+79xWW2XZjmdL9u8nQ39VfK7hP84qzv/rr3+9ZL1QMnre/JL9n3PPJudyWQolIiGEVBdKRASGEhG+UCICAJAVlIiUiLUMJWJt0mfU6Oj7DZ2iDp06lRxDpL6iv//2hePgqrXrnccJyVYoEREYSkT4QokIAEBWNLdEVNF2wkknV8y8LQ87t9VWoUQML5SIRzd9Lx5tjpUJTU3R5s2bTVC/7DHQ+fTTzXHR7+IxzuOGZCOUiAgMJSJ8oUQEACArmlsi9rxghHO5I2X5s7ui6et+a65BOHfz/dG6l15xLpfMLbv3mlGNKtFm3nGnubaha7lktF1dQ3DCTcui+Q89YuZVUyIu2vZkNOk3K8021r/8WnF+uSzb/kx0xW23R+MX32T+XPLEU87lktF2F2zdZl5H12nUfq/Zt/+w5SgRwxNyiaiRh+MaG+P6CCilMrHhtNOiQWPHOY8fEn4oEREYSkT4QokIAEBWHK0ScdFjT0T/enqXkm3Y/KhP32jti4eXZioPeww837nOiQ2dyhZ0I399bfSXX/tayfJ/+3d/b8rL5LxKJeK0tevNOsnltc2xNy4seS2bqWvWRX/zjW+ULG/zz6ecGs1Yv8G5nmtfFe1D/6ZJhc/l5eKylUrEsfMXlDynqMS0z4caSsSjExWIlzY1xXURUN6EpokUiRkNJSICQ4kIXygRAQDIiqNRIl5150ZnUZZM+/97RrRy1+7iOit2/SH6Zrt2zmVtVNpp1F7ytXpdNMq5rCvlSsQjZeBll5e8popF13LpzLz9dyXrqTx1LZdMch/LlYgqC5PzlVFzry+uF3IoEf3nvNFjok6nnR5XRMCRjW1s5NTmDIYSEYGhRIQvlIgAAGRFc0vE73ToEPUePaZsbCG4fv+r0T+1/37Jusq3/+V7h83r3u+84uud86thhz3vWkdFo13nhgcfPuz5Sqm2RFSWPvV0cd30CEuVmx1/1O2wkYk/HjiouI5GOiafU8oVrfYGNa4SUe85vV665Aw5lIj+U9gtrn2IFtNx4zqeSLihRERgKBHhCyUiAABZ0dwS8UjRNf603rgFi0rmq6z7zXPPm+cWPPKYOW3XPqcyTNc7XPz4UyXr6LTi+Q9vNeto3X/79x+UPG9H+P2w93+VzNdrrXp+T3Tr3pecowUrlYh6TV2zUdcrvHbTfYed2txr5CiznsrE5HwVhSpO7b4mn1Pxal9Pj5PPDZh0mVlP14xUmZp87rzGJrNOukS8fPWaw0ZrVnutyrYKJaLfzFyz3tw0A2ip8U1N0S8vHu08rkiYoUREYCgR4QslIgAAWeG7RPzp8AtK5l9153+XbDd9+vElCxebG4wk5w2YOLlknctWrS553o7wSxd9KiOT6/UdP6Hk+Uol4pUb7ihZN309RZ1+rfnLn9lpyj2bm57aYebrtVUMJtf5h+98xzynm6Yk5//jd79bctOWm59+zoy6tLGFZbpETEclanNu/hJSKBH9pn1DA6MQURUdN+0bOjmPKxJmKBERGEpE+EKJCABAVjS3RNQIwu91Pq1sdCdkrZcu5zTaMJnkc8p5TROj86dOO2x+pfU0MlE3IEnOU6GYfg9z7t1cskylEjF5QxMlXfylt6/RkCozXadu29gScd6W0tOuf9Dr5yXbKpcjlYgjZs9xrhdyKBH9pkOnTpSIqIqOGx0/ruOKhBlKRASGEhG+UCICAJAVzS0Rm3varEbZJdc7Un4+6mJT7rmeK5cTTjo5WrTtyZJ5KgXT+6JThZPLlCsRdS3D5Ho26VOv7fyBU6YW51eKLRGn3HJryfzezTyF8EglovZPN6RxrRtqKBH9prBLcSUEtJyOH9dxRcIMJSICQ4kIXygRAQDICt8lYoeuXUvW06m5lTJ5xS3m9OXkOj/q80vnsjZDr5gZrdhZev3Bb337+MP2JX1KcqWRiCock+umC0hbCE5fd1vJfEXb0j7N/v29Jdc+tOvobtXJ5buf17/ktcrlSCWiknxPWQglot8Udimug4CW0/HjOq5ImKFERGAoEeELJSIAAFnhu0RMjypU2Zd8XjcT0anCNrqmX9Oy5SXr6LWT6yjJdda99IqZlxwpqNhTqm00yjH5fKUS8dLFS0vWnbBkacnzdqTjL8aMK5mfPqU4uU+2RNR1FJPrnJi6Dtmix54w69n0GDTYzE+XiDoNWjd9Sc5T5m5+oGR7IYcS0W8KuxTXQUDL6fhxHVckzFAiIjCUiPCFEhEAgKzwXSJeeM2vS9b74X/9onjzD1138LT/PLvked1x+IYHS68ZqPJNd1m220xfM1HloOanRz2ePXho8bW0TZ2mnHy+UomoEYT2LtKr/vCCKfqSzw+6fKp57vSfnFMyX6dV222mbxBjS0QlXXiqONV8FaL6bJPP2ddKl4hz7tlk5v9H/wEl83VNSvs6oYcS0W8KuxTXQUDL6fhxHVckzFAiIjCUiPCFEhEAgKzwXSKu3rMv+ma7diXrqkBrOOvHh90gRSXfrXtfMutplF3yOS3b8UfdDtuWotF4WmfW7+467DltM3lKcTKVSkRFr6nrLab3U9O37N5r1tPp1MnndNfmIdOvMO8vOV9JnmI9dMaVhz2vm7Kky0W9lj21ulyJqBGX6X0ct2BR8bVCDiWi3xR2Ka6DgJbT8eM6rkiYoUREYCgR4QslIgAAWeG7RFSuuvO/S9Z1RSWY7nBs19Fpz+mRg67o2oPJ1+re7zznckq6oDtSiVguo+ZeX1zv6rt+71ymXHT6tdbTn8256YxOo7avVa5EVHRX6+Rz+uxs0RlyKBH9prBLcR0EtJyOH9dxRcIMJSICQ4kIn/h9AwAgC8qVIulTc3824iLncuWi04lP/uGZJduw+dfTu0SLH3/qsHV0p+H0NRVt/vbv/j66csMdh62j05fThZqiUm3elodLRuyd86thxfWSIwc1YvDi628wr2HnKVrXnnacjErF9EhAFZYj58yN+owbXzL/l5dcWlxPozTLlZ7aX5WvydcZO39ByTJ2BKbZ1gsvHla69r10Qsn6IYYS0W8KuxTXQUDL6fhxHVckzFAiIjCUiPCJ3zcAALLgaJciS57cbq57OPLX15q7JesmI67lklGZqFGKWkdl5sJHHy9e67BcNApvxvoNpnhTgXmk5ctFNzm5bOXqaP5Dj1TchkZOTr11rRktqLLStUy56NqLV9x2u7l+5PjFN0ULtm5zLpfHUCL6TWGX4joIaDkdP67jioQZSkQEhhIRPvH7BgBAFoRWipB8hxLRbwq7FNdB1Xv//fejHTt2RPv374+++OKLeC7qgY4f13FFwgwlIgJDiQif+H0DACALKBFJLUOJ6DeFXYrroJZ77733oj59+tj//Jkce+yx0V133RUvcWS7d+826/Xv3z+eU529e/eW7Ecyr7/+erxU6yxZssRsb+nSpdFvf/tb83jevHnxs603adIks80nn3wynnN0Jd9PtbS+67giYYYSEYGhRIRP/L4BAJAFlIiklqFE9JvCLsV1UMvZAvGYY46Jxo8fH51xxhlmWlE52BzPP/+8Wb5v377xnOq88MILxX0ZMGBAST744IN4qdZZtGiReQ2Vb+vWrTOP586dGz/bevoMtc0nnnginnN0Jd9PtbS+67giYYYSEYGhRIRP/L4BAJAFlIiklqFE9JvCLsV1UMvs3LnT/qcv+uijj+K5UTRu3DgzT+XdH//4x6ihoSGaMGFCNGzYsKhHjx5mmfXr10ft27ePjj/++Gjs2LFmeVsibt++PerataspA7t06RJt2bLFzN+6davZ1rXXXmu2M336dDPfsiWi1nEpt11ZvXq12R+NojznnHOi1157zcw/dOhQdPnll0ft2rWLOnToYN6TXiNZImqetqtlxowZEx08eNCse++995r91Ta7desWLVu2zMwXvXbnzp3Nc3rf999/v5mfLBFffvlls57yyiuvmOetjz/+OBo+fLh5TX2GQ4YMMfv8+eefm/c2YsQIM++4446L+vXrF+3bt8+sV+n9VEvru44rEmYoEREYSkT4xO8bAABZQIlIahlKRL8p7FJcB7WMikCte9ZZZ8VzvnLfffeZ+SqpVC7qsY1KtXfeeac4rTLLPlaZptOjVfJpWsWcfW7Pnj3Rxo0bi9PK5MmT41f8ii0RVZzNmTOnmAcffLDidh966CHzWM/bkZQq5nRtx9tvv724bHJfkyWicsIJJxS3r+c+/fTT4nTPnj2Lj/V6Kgfteh07diw+fvPNN4sloj5DlZp6nCwfrVmzZpnn9BnbfVZZ+Nlnn5nHil5TJaUeq9yUSu+nWlrfdVyRMEOJiMBQIsInft8AAMgCSkRSy1Ai+k1hl+I6qGWuu+46s25TU1M85ytvvfWWma8CK1kirly50oyUW7NmjZm2JaAduagScfny5eaxRtlpZN2UKVPMtEYd2hJR5ZeKvzRbIqajkY6Vtjtw4EDzWMvoOY3807TKRy2vx5s2bTKvodJO08kS8dxzzzXPaaSjnT5w4IB5DV038dlnnzWjDvXcPffcE1155ZXmsYpAUdF55plnRtu2bSuWiLbg0zUSXVatWmW2/+KLL5qSUcuqoLUlogpEXQdSN7zRtEpRqfR+qqX1XccVCTOUiAgMJSJ84vcNAIAsoEQktQwlot8Udimug1rmjjvuMOtqJFySLftUatkSUaPqLJ1mq3m2CHzkkUfMtErEqVOnmsfpDB48uLhdlYIutkQ88cQTzTZtXnrppYrbTV7HMZkVK1YUyzyVn3LFFVeY6WSJqNOrLU2rwNMoRp2+relkVCIOHTrUPLZFXpItEW3KlYj67PQ+k8smS0Q9tjSt0ZlS6f1US+u7jisSZigRERhKRPjE7xsAAFlAiUhqGUpEvynsUlwHtUzybsgafWjZ8kx/2hIxWTTOmGH+/szIRLGnRatEnD9/fnFdXXNxx44dpjDTNf1siahC0KXSNRErbbdXr17mOd2hWM/peoR6Tu9JIwT1nL0m4ciRI810skRUKSgaxahpjWRcu3ateaxTvXUKsy0OVSLqRix6rBGZovelUZlazpaIyTteqwRN0+nTek6fnb0xTbJETH4GmrYlYqX3Uy2t7zquSJihRERgKBHhE79vAABkASUiqWUoEf2msEtxHdRydlShRrhp1Fzv3r3NtKKiylUiPvfcc2aeTneeOHGiKbg0rRLxmWeeKT6nYstev1ClXGtKxErbtQWj1tPdiu1ovVdffbX4nK5daG8AoyRLRGXUqFGmxNPj2bNnmxu16PGgQYOiDRs2FK+JePfdd5u7VuuxikAVitonTesO0skbq0ybNs081meaptOT9ZxKSV0LUY+bUyJWej/V0vqu44qEGUpEBIYSET7x+wYAQBZQIpJahhLRbwq7FNdBLafiy5ZYNiqsVG6JLRFV2iWpXLPLd+/e3fyp7YiuTZg8VVejB3V6sC0RVa65VCoRpdx2lcbGxmKZp9hSTTeBSd78xF4vUc/bEZT2uoL2sUYw6q7Uydey71GnD4te2z6n2FGZyRJRd2C2+6TTspP0+nZdfbYqKZW3337bzCtXIlZ6P9XS+q7jioQZSkQEhhIRPvH7BgBAFlAiklqGEtFvCrsU10HV+/DDD6Onn3462r9/f3To0KF4bmVvvPGGuflHOTpdWjcG8a3cdlUmapSg7qyc9OWXX5obmKgQLUfr6GYqaToV+eDBg/FUqXfffdeMyky/XnOpZHS95pE05/20hI4f13FFwgwlIgJDiQif+H0DACALKBFJLUOJ6DeFXYrrIKDldPy4jisSZigRERhKRPjE7xsAAFlAiUhqGUpEvynsUlwHAS2n48d1XJEwQ4mIwFAiwid+3wAAyAJKRFLLUCL6TWGX4joIaDkdP67jioQZSkQEhhIRPvH7BgBAFlAiklqGEtFvCrsU10FAy+n4cR1XJMxQIiIwlIjwid83AACygBKR1DKUiH5T2KW4DgqLbtCiuxx//vnn8RyESMeP67giYYYSEYGhRIRP/L4BAJAFlIiklqFE9JvCLsV1kB/HHnus/c+gyTHHHBMNGjSoWXcDnjHD/N1Gd999d/TAAw+Yx+PGjYufra3jjjuu5H3YrFu3Ll6idXQnaG2vf//+0Ztvvmke9+zZM3629fQZaptz586N5xwdeg3XcUXCDCUiAkOJCJ/4fQMAIAsoEUktQ4noN4VdiusgP2yJOGzYsGjw4MHRiSeeaKbbt28fffnll/FSbtOnTzfLbty4MdqzZ080YsSI6LbbboufrS37PlTyDRgwoJht27bFS7TO888/b7bft2/f6I033jCPzznnnPjZ1tNnqG3Onj07nnN06DVcxxUJM5SICAwlInzi9w0AgCygRCS1DCWi3xR2Ka6D/LDlm6XTkW2ReO+995p5q1evNqWillVx9tprr5n5yRJx+/btUUNDQzRv3rzouuuuM4/XrFljltMoPk2PGTPGTJfb3g033GCWW7JkSdSxY0dTbGr6jjvuMM/v3LnTTDc2NprpJPs+Dh48GM/5M82bPHly1K5dO5ORI0dGn332mXlO+921a1czArNLly7Rli1bzHxZv3692c/jjz8+Gjt2rNl+skQ844wzoj59+phRkOeee270P//zP2a9jz/+OBo+fLh5La07ZMiQ4nt8+eWXzbLa3+7du5v3KskSUfvWr18/s1+a75New3VckTBDiYjAUCLCJ37fAADIAkpEUstQIvpNYZfiOsiPdIkoKu80b86cOdFDDz1kHqtkU2mmxyrGvvjii5ISMXk68/33328e29N9dYqupm+88caK2xs/fryZtrGnS6uoExVsml66dKmZTrLv46qrrjL7raxcudI8Z/dTpZ4tSDXq8r333jP7oWkVdvpT0ajKd955pzit9ezjZImo6HXta+s5mTVrlpnu0KFD8T2qFNR7POGEE4rP6U/lrrvuKpaI11xzjdk3PdZIyiONBm0pbdd1XJEw87+6/KB4nBBCSA4DAABCR4lIahlKRL8p7FJcB/nhKhGvvPJKM0+F3MCBA83j5cuXm9F03bp1M9MPPvhg2RJRZZm2q4JOIxs14k7P6VqClbZnS8SzzjorevHFF82IPG1D0Tbtsir40uz7SEajCMVeL3HXrl3R/v37i8Xh4sWLzZ8aNah9mTJlipnW+9IoSj3WCEbR+9J0skTUa+pmMhp5mHy/q1atMtvSe1i2bJlZViMoH3nkEfNYn4fcd9990Zlnnmn2w5aItrBU+egaVdla2rbruCJhJuu/n8gdRiICAADUG0pEUstQIvpNYZfiOsgPV4loR8KpGLQj6dJZsWJF2RJRRo0aZaZVlOlPFYBSaXu2RLSnL4tu8qJ5dvu2gEuz70OjIFXWKTt27DClnua7Mnr0aOd8vX+dgqzHGjkptgBMlohnn322eU5UfGqeTrnWOnbEo41KRJ3Grce2mEyyJaJN586dvY9CFG3bdVyRMEOJiMBQIgIAANQbSkRSy1Ai+k1hl+I6yI90iagReXaknkbY9erVyzzWKcQqyJ544glTkr311lsVS8StW7eaaZVn+vPmm2828yttz5aIyesS2rsW2+1oZJ+LfR+u0Xv2/Tz++OPmNR999FHzmrp2o+br9G3NV+mo+fv27SueSm1Pidb1ETWdLBE1atCyIwg1etKesqx17A1ZtP+6/qIea+Sj6DkVivfcc0+xRNRpzvZU51tvvdUs55O26zquSJihRERgKBEBAADqDSViy7P2xZfNn+v3v1p8TJoXSkS/KexSXAf5Ycu33r17m5F1tnCz1/ebP3++mdZNRxYtWlQsy1599dWKJaJG0dnTiJX333/fzK+0PVeJqFLQ7pPy7rvvxs+UqlQi2uJSowvtdRVV9Kk01GOtqxuc2Osirl27NnruueeKz02cOLH4XpIloqLrPup6h3rco0cP83q6xqOmVQ7a51Qi6jOx+6nrRNpidNOmTcUSUfunU7v1WK/5pz/9yWzTF23XdVyRMEOJiMBQIgIAANQbVymy9Kmnk/8oNPn2v3wvGjX3+sOWTUelmpa/7r4t0eQVt0R//fWvO5c7Wrls5VenCKaj/XctX03+8mtfi2ZvvCcadd286DsdOjiXqSbaxwlLljqfy0soEf2msEtxHeSHLbVsVOrpVGRbxulahLobcnI5e0dhO1pPBZiKPz22JaJoPc3T3YitStuzJaJKtKShQ4ea+TpluBy7PVeJeODAgah///7F11M599hjj5nndG3G5KnHGpWofRR7KrVir+uoUlDXdtRjlYX2dfXntm3bzHp6P3Y9e+dn5YMPPjAjMu1ziu4UfejQoZISUVRIanrmzJlm2hdt03VckTBDiYjAUCICAADUG1cpctNTX43IuWzValMoXnHb7dGP+vzSzLvg6msOWz4ZWyLO3fxAtPzZXWZd13JHKyou9fo3PPhwNP/hrcUsfvwp5/LV5GiViP/43e9Gly6mRAxZ3kvE5lKxtnv37ujTTz+N57ROS7Y3bdo08751TcHW0OnZe/fuLZaESZpvR0smadTh66+/Hk8dTgWgRlGmt6nXUnnpopuxaKSj6/WONn2OruOKhBlKRASGEhEAAKDeVCoRVZQl5/e8YET0N9/4RnFaheI/fOc70d/+3d9HPxtxkSkQkyXirN/dFXX8Ubdo0WNPmFF2c+7dXFz3xwMHRf2bJpXdzrqXXjHrDL/qmuhb3z4++smvhkXdftmvuP7s399rnl+x8/niPMWWiDrVODnfZubtv4tOOOlkM0Kyyzk/jW5++rnic6790Pw592yKTmzoFH2zXTsz3342KhG1b9qOikUVilrWbu8XYy8xz2s9vV+9J81Xudr5xz3MOtrupN+sNPOTJeLIX19r9nPho48Xt5eHUCL6TWGX4jqoPugUa71njfT75JNP4rmolj5L13FFwgwlIgJDiQgAAFBvWlIiamSi5q/Y9Yeoadly83jgZZeb4k7l4s9HXVxSIiZPZ1aZplJNj1f94QWzzOWr1xxxOyraND1uwSIzvXLXbrMNzXONArQloko4nX5to7LQvq/u5/WPpq5ZF/3bv//AFHVar9x+6DmViv96epdo9Lz55jW1nC0R9fi0/zw7Gr/4JvOcCkPt+6/vvte890sWLTGvpcd6D9pew1k/NgXotLXro58OG262r4LRlohjb1xotqv9sO8rL6FE9JvCLsV1UH3QzU90iq9udoLW0/HjOq5ImKFERGAoEQEAAOpNS0rEq+/6vZmvU5w7dO0a/aDXz4vPDZt1dbFA0zLpErHPuPGmJNPjSxYuNvNVnB1pO/b06bUv7jeFoi3iVEqeP3VacT0bWyJqG8lo5OKAiZNNObj+5dfMsrpuo5Zd8uT2svtx/QMPmWWW7XjWzLefQbJEVKmq5/QamtZ2526+P5qxfoN5jwseecyUhr0uGmWW1TJTbrnVrKP3+ZOhv4oWbXvSfD7aBz2vItHuS55Cieg3hV2K6yCg5XT8uI4rEmYoEREYSkQAAIB605ISUaPqbCmogk3LJKOSr1yJOG/Lw2a+Tm3W6b8qzpq3nfuLr/+jPn2jM879mbneoZ5zXefQloiu05m79zuv+BrJzLlnU9n9GDbzKvOc3YZKQT1nS8R/av/94nN2n3UdSJ2GrPdpt6OoRNQp3Zrn2neViHpOUeGZfj4PoUT0m8IuxXUQ0HI6flzHFQkzlIgIDCUiAABAvWlJidjwH2dFJ//wTPNY5ZmKwFt27zXRSLqr7vzvsiWiotF4Ol1Yz2tEX3O3Y9fX6dQq485rbIr++ZRTi/OTqVQi6pqO2gf7Wrqe4vR1t0Vr9u0vux/2FG7tj7ahUYWatiWiTkW227dFqdY/6/8NNNvU8npOn51KxFXP7zHLXHXnRjNf+zlwylQzGlIlosrDX105yyyjfbDbzksoEf2msEtxHQS0nI4f13FFwgwlIgJDiQgAAFBvKpWIOnVYp+aqTLN3Z7bllwo5jdDTqECd3qxyUTcLqVQiqizTc8mRfc3Zjl1W81Qiav7QK2YW5ydTqUTUDUz0nK5RuHrPPnPNQ+2ftltuP1Qw6jW17yoHVTRqG8nTmXV6tq7VqBu/fK/zaea1dL1FjXzUY31m2kbPC0eaaXPq9M96mRJTp2vrFGvtg70mon2sayfafc9LKBH9prBLcR0EtJyOH9dxRcIMJSICQ4kIAABQb1yliEq0wlMlUSmmm4/YZX7z3PPmzsL2eY3wW7B1W7H8U/mYLhF1Cq+e++Ull7ZoO3ZZRTdF0fzkXZWTuWzlVyMHy92ducfA84uvpX3TSEPNL7cfes6OnlR08xQVgrr+oR2JqO3oOc3XyEato8JS04qWsadSq3y8csMdZr6mVSCOnb/ArKPicMKSr+7OrO3oeb0fTecllIh+U9iluA4CWk7Hj+u4ImGGEhGBoUQEAACoN60pRXSDkhsfedQUffZmJdWkJdvRSEBda9D1XHOzbPsz5jqIq194sWR+pf3QjVU0StG1fyos9Zxu/pKcf+vel6L5D28trqPX1TUV9VglqUrKI73fvIUS0W8KuxTXQUDL6fhxHVckzFAiIjCUiAAAAPUmtFKkXDRS8KfDhpt/qNrrKZLshRLRbwq7FNdBQMvp+HEdVyTMUCIiMJSIAAAA9SYrJeKKXX8wNyax12Qk2Qwlot906NQp2rx5c1wJAc2n40bHj+u4ImGGEhGBoUQEAACoN1kpEUk+QonoN+0bKBFRHR033y8cP67jioQZSkQEhhIRAACg3lAiklqGEtFvfjHq4mh8U1NcCwHNd9rpp0cz16x3HlckzFAiIjCUiAAAAPWGEpHUMpSI/lPYrbgWAppHoxB13LiOJxJuKBERGEpEAACAekOJSGoZSkT/6XfxmOiSxsa4HgKOrNNpp0d9Lx7tPJ5IuKFERGAoEQEAAOoNJSKpZSgRj050bTtOa0ZzXFo4TgaNHec8jkjYoUREYCgRAQAA6g0lIqllKBGPXlQkdjr9dG60grLGNTZGA8eMdR4/JPxQIiIwlIgAAAD1hhKR1DKUiEc3OrW5sJtR57hMpFCsb/YYuKSxyRwX540e4zxuSDZCiYjAUCICAADUG0pEUstQItYmV6xZF7Vv6BR16NQp+R88UmfR33/7hoaozyiuf5iHUCIiMJSIAAAA9YYSkdQylIiEEFJdKBERGEpEAACAekMpQmoZSkRCCKkulIgIDCUiAABAvaEUIbUMJSIhhFQXSkQEhhIRAACg3lCKkFqGEpEQQqoLJSICQ4kIAABQbyhFSC1DiUgIIdWFEhGBoUQEAACoN5QipJahRCSEkOpCiYjAUCICAADUG0oRUstQIhJCSHWhRERgKBEBAADqDaUIqWUoEQkhpLpQIiIwlIgAAAD1hlKE1DKUiIQQUl0oEREYSkQAAIB6QylCahlKREIIqS6UiAgMJSIAAEC9oRQhtQwlIiGEVBdKRASGEhEAAKDeUIqQWoYSkRBCqgslIgJDiQgAAFBvKEVILUOJSAgh1YUSEYGhRAQAAKg3lCKklqFEJISQ6kKJiMBQIgIAANQbShFSy1AiEkJIdaFERGAoEQEAAOoNpQipZSgRCSGkulAiIjCUiAAAAPWGUoTUMpSIhBBSXSgRERhKRAAAgHpDKUJqGUpEQgipLpSICAwlIgAAQL2hFCG1DCUiIYRUF0pEBIYSEQAAoN5QipBahhKREEKqCyUiAkOJCAAAUG8oRUgtQ4lICCHVhRIRgaFEBAAAqDeUIqSWoUQkhJDqQomIwFAiAgAA1BtKEVLLUCISQkh1oUREYCgRAQAA6o3+U0JILRMfepnkej+EEFKrxD9FQAhUGk5KhBIRAAAAAAAAAAAAAAAAAAAAAAAATn/xF/8f32etsfeBn1YAAAAASUVORK5CYII=;" vertex="1" parent="1">
          <mxGeometry x="10" y="8" width="1200" height="1092" as="geometry" />
        </mxCell>
        <mxCell id="NA0LoAFdrYcwkmw4g3k5-3" value="" style="rounded=0;whiteSpace=wrap;html=1;strokeColor=none;" vertex="1" parent="1">
          <mxGeometry x="780" y="364" width="440" height="166" as="geometry" />
        </mxCell>
        <mxCell id="NA0LoAFdrYcwkmw4g3k5-4" value="" style="rounded=0;whiteSpace=wrap;html=1;strokeColor=none;fillColor=#d0cee2;" vertex="1" parent="1">
          <mxGeometry x="230" y="865" width="200" height="74" as="geometry" />
        </mxCell>
      </root>
    </mxGraphModel>
  </diagram>
</mxfile>
